<svg xmlns="http://www.w3.org/2000/svg" viewBox="0 0 25.04 28.2"><defs><style>.cls-1{fill:#4d443c;}.cls-2{fill:#e6e6e6;}.cls-2,.cls-4{fill-rule:evenodd;}.cls-3{fill:gray;}.cls-4{fill:#f9b916;}.cls-5{fill:#fff;}</style></defs><title>16_1</title><g id="Layer_2" data-name="Layer 2"><g id="Layer_1-2" data-name="Layer 1"><path class="cls-1" d="M1.37,20.2h0m18.07,0h0Zm-9-.07H1.56a.31.31,0,0,0-.17.07s0,0,0,0a7.94,7.94,0,0,0,1.85,4.08c1.32,1.6,2.86,2.54,3.45,2.54h7.49c.58,0,2.13-.94,3.45-2.54a7.94,7.94,0,0,0,1.85-4.08s0,0,0,0a.31.31,0,0,0-.17-.07H10.41ZM1.6,18.76H19.41a1.7,1.7,0,0,1,.94.43,1.36,1.36,0,0,1,.46,1,1.34,1.34,0,0,1,0,.15,9.3,9.3,0,0,1-2.15,4.8c-1.58,1.91-3.64,3-4.5,3H6.66c-.86,0-2.93-1.13-4.5-3A9.3,9.3,0,0,1,0,20.35a1.34,1.34,0,0,1,0-.15,1.36,1.36,0,0,1,.46-1,1.7,1.7,0,0,1,.94-.43Z"/><path class="cls-2" d="M1.6,19.44H19.22a.84.84,0,0,1,.91.83c-.5,4.31-4.76,7.23-6,7.23H6.66c-1.21,0-5.47-2.92-6-7.23a.84.84,0,0,1,.91-.83"/><path class="cls-1" d="M14.55,27.79a.29.29,0,0,1,0-.57h5.74a.29.29,0,0,1,0,.57Z"/><path class="cls-1" d="M16.69,26.29a.29.29,0,0,1,0-.57H19a.29.29,0,0,1,0,.57Z"/><path class="cls-1" d="M15,27.23a.29.29,0,1,1,0-.57h7.2a.29.29,0,1,1,0,.57Z"/><path class="cls-1" d="M18.19,19.72a.29.29,0,1,1-.37-.44l4.31-3.6a.29.29,0,0,1,.37.44Z"/><path class="cls-3" d="M12.44,24.53a.29.29,0,1,1-.37-.44l5.75-4.81a.29.29,0,0,1,.37.44Z"/><path class="cls-4" d="M18.8,23.8c-1.5,2.31-3.81,3.71-4.65,3.71H6.67c-.84,0-3.15-1.41-4.65-3.71Z"/><path class="cls-4" d="M12.7,14.23l-1.07-.44h0l-1.45.4c-.13,0-.71.41-.8.31l-1.09-1.4c-.08-.11.43-.58.49-.7l.75-1.3h0L9.37,10A1.61,1.61,0,0,1,10,8.08l7.4-5.75A1.66,1.66,0,0,1,18.66,2l-.22-.28L20.28.29,24.76,6,22.92,7.48,22.7,7.2a1.66,1.66,0,0,1-.63,1.12l-7.4,5.75a1.61,1.61,0,0,1-2,.16"/><path class="cls-1" d="M11.74,13.53l1.07.44a2.28,2.28,0,0,0,.91.24,1.39,1.39,0,0,0,.78-.36L21.9,8.1a1.36,1.36,0,0,0,.35-.41,1.39,1.39,0,0,0,.17-.51A.29.29,0,0,1,22.93,7l0,.05L24.36,6,20.23.69,18.84,1.77l0,.05a.29.29,0,0,1,.06.21.29.29,0,0,1-.32.24,1.39,1.39,0,0,0-.55,0,1.36,1.36,0,0,0-.48.24l-7.4,5.75A1.39,1.39,0,0,0,9.65,9a2.28,2.28,0,0,0,0,.95l.17,1.14a.29.29,0,0,1-.07.23L9,12.54v0a1.77,1.77,0,0,1-.2.24c-.1.11-.41,0-.32.13l1.09,1.4c.09.12.08-.2.21-.27a1.77,1.77,0,0,1,.29-.13l1.4-.39a.28.28,0,0,1,.24,0m.85,1-1-.4-1.37.38-.17.09c-.31.16-.72.38-.92.12l-1.09-1.4c-.2-.26.11-.61.34-.87l.13-.15v0L9.24,11l-.15-1a2.73,2.73,0,0,1,0-1.19,1.9,1.9,0,0,1,.74-1l7.4-5.75a1.93,1.93,0,0,1,.69-.34l.23,0a.29.29,0,0,1,.11-.22L20.1.06a.29.29,0,0,1,.4.05L25,5.87a.29.29,0,0,1-.05.4L23.09,7.7a.28.28,0,0,1-.24.05,2,2,0,0,1-.1.21,1.93,1.93,0,0,1-.5.58l-7.4,5.75a1.9,1.9,0,0,1-1.11.48A2.73,2.73,0,0,1,12.59,14.5Z"/><rect class="cls-5" x="14.57" y="6" width="2.37" height="4.33" transform="translate(-1.69 11.39) rotate(-37.88)"/><path class="cls-4" d="M8.25,14.45c.21,0,.37.37.37.82s-.17.82-.37.82-.37-.37-.37-.82.17-.82.37-.82"/><path class="cls-4" d="M8.64,15.31c.28,0,.51.5.51,1.12s-.23,1.12-.51,1.12-.51-.5-.51-1.12.23-1.12.51-1.12"/><path class="cls-4" d="M8.37,16.58c.28,0,.51.5.51,1.12s-.23,1.12-.51,1.12-.51-.5-.51-1.12.23-1.12.51-1.12"/><path class="cls-4" d="M9,20.37c.36,0,.64.63.64,1.41S9.33,23.19,9,23.19s-.64-.63-.64-1.41.29-1.41.64-1.41"/><path class="cls-5" d="M1.57,20.76a.29.29,0,0,1,0-.57H16.89a.29.29,0,0,1,0,.57Z"/><path class="cls-5" d="M2.9,24.54a.29.29,0,1,1,0-.57H8.75a.29.29,0,1,1,0,.57Z"/><path class="cls-5" d="M2.46,23.79a.29.29,0,0,1,0-.57H11a.29.29,0,0,1,0,.57Z"/><path class="cls-5" d="M2.34,23a.29.29,0,1,1,0-.57H3.9a.29.29,0,0,1,0,.57Z"/></g></g></svg>