<?xml version="1.0" ?><svg xmlns="http://www.w3.org/2000/svg" xmlns:xlink="http://www.w3.org/1999/xlink" version="1.1" viewBox="0 0 512 512" style="enable-background:new 0 0 512 512;" xml:space="preserve"><g id="_x31_8_x2C__singing_bowl_x2C__music_therapy_x2C__music_and_multimedia_x2C__wellness_x2C__music_instrument_x2C__buddhism"><g><g><path style="fill:#DC5461;" d="M383.099,49.141l59.783,36.414c4.731,2.883,10.88,1.361,13.742-3.338     c2.873-4.717,1.379-10.869-3.338-13.742l-59.783-36.414c-4.72-2.877-10.871-1.378-13.742,3.338     C376.888,40.116,378.382,46.268,383.099,49.141z"/><path style="fill:#DC5461;" d="M499.295,211.232c-54.767,2.326-57.767,19.802-115.803,19.841     c-27.152,0-41.018-3.316-60.766-9.497c-22.048-6.899-37.623-10.413-66.742-10.413c-33.407,0.021-50.352,5.349-66.738,10.5     c-15.639,4.917-30.409,9.562-60.753,9.58c-27.283,0-41.169-3.371-60.752-9.503c-14.317-4.482-29.122-9.117-55.007-10.188     c-5.667-0.241-10.419,4.286-10.419,9.991c0,5.402,4.288,9.804,9.645,9.993c23.22,0.967,36.133,5.01,49.806,9.291     c21.63,6.772,37.179,10.416,66.74,10.416c33.407-0.021,50.352-5.349,66.738-10.5c15.639-4.917,30.409-9.562,60.752-9.58     c27.233,0,41.13,3.358,60.756,9.5c21.54,6.741,37.084,10.41,66.755,10.41c61.853-0.042,65.521-17.689,116.637-19.858     c5.519-0.234,9.802-4.897,9.567-10.415C509.477,215.281,504.828,210.995,499.295,211.232z"/><path style="fill:#DC5461;" d="M488.161,261.725c-44.982,4.151-50.619,19.068-104.667,19.098c-27.233,0-41.13-3.358-60.756-9.5     c-21.54-6.741-37.083-10.41-66.754-10.41c-33.407,0.021-50.352,5.349-66.738,10.5c-15.639,4.917-30.409,9.561-60.752,9.58     c-54.295,0-59.486-14.824-104.563-18.948c-5.482-0.492-10.366,3.547-10.869,9.046c-0.504,5.5,3.547,10.367,9.046,10.87     c41.304,3.783,49.11,19.032,106.398,19.032c33.407-0.021,50.352-5.349,66.738-10.5c15.639-4.917,30.409-9.562,60.754-9.58     c27.152,0,41.018,3.316,60.766,9.497c22.092,6.913,37.651,10.413,66.742,10.413c57.177-0.032,65.235-15.374,106.493-19.182     c5.499-0.508,9.546-5.378,9.039-10.877C498.53,265.265,493.669,261.225,488.161,261.725z"/><path style="fill:#DC5461;" d="M404.34,380.992H107.66c-5.522,0-10,4.478-10,10s4.478,10,10,10h296.68c5.522,0,10-4.478,10-10     S409.862,380.992,404.34,380.992z"/></g><g><path style="fill:#283954;" d="M431,430.992h-75.692c35.892-15.172,67.575-38.422,92.795-67.303     c3.632-4.161,3.204-10.478-0.956-14.11c-4.16-3.631-10.477-3.205-14.11,0.956c-44.512,50.985-108.19,80.457-177.037,80.457     c-129.579,0-235-105.421-235-235c0-8.294,6.702-15,15-15h88.67c5.522,0,10-4.478,10-10s-4.478-10-10-10H36     c-19.349,0-35,15.646-35,35c0,107.131,65.611,196.923,155.689,235H81c-22.056,0-40,17.944-40,40s17.944,40,40,40h350     c22.056,0,40-17.944,40-40S453.056,430.992,431,430.992z M431,490.992H81c-11.028,0-20-8.972-20-20s8.972-20,20-20h350     c11.028,0,20,8.972,20,20S442.028,490.992,431,490.992z"/><path style="fill:#283954;" d="M476,160.992h-45.589c2.218-9.117,0.007-18.812-5.894-26.063l39.91-65.522     c12.908-21.191,6.169-48.934-15.022-61.841c-21.192-12.909-48.934-6.169-61.841,15.022l-39.906,65.516     c-21.095-4.438-39.504,14.01-35.659,34.799c-15.908,4.763-25.134,21.835-19.802,38.089H164.67c-5.522,0-10,4.478-10,10     s4.478,10,10,10c43.915,0,235.022,0,311.33,0c8.271,0,15,6.729,15,15c0,43.869-12.16,86.649-35.166,123.717     c-2.913,4.692-1.47,10.857,3.223,13.77c4.699,2.919,10.865,1.46,13.77-3.223C497.8,290.02,511,243.592,511,195.992     C511,176.694,495.299,160.992,476,160.992z M404.644,32.992c7.172-11.773,22.586-15.518,34.356-8.347     c11.773,7.172,15.518,22.584,8.347,34.356l-39.016,64.054c-47.759-29.095-34.123-20.788-42.339-25.793     c0.001,0,0.001,0.001,0.002,0.001c-0.006-0.003-0.011-0.007-0.018-0.011c-0.009-0.005-0.074-0.045-0.083-0.051     c0.004,0.002,0.007,0.004,0.01,0.007c-0.006-0.004-0.013-0.008-0.019-0.012c0.002,0.002,0.005,0.003,0.008,0.005     c-0.454-0.277,0.029,0.018-0.262-0.16L404.644,32.992z M366.031,97.287C366.037,97.291,366.038,97.291,366.031,97.287     L366.031,97.287z M365.832,97.166c-0.049-0.03-0.107-0.065-0.177-0.108C365.691,97.08,365.761,97.123,365.832,97.166z      M316.818,160.992c-0.077-0.1-10.298-5.351-4.691-14.562c2.924-4.793,9.089-6.189,13.751-3.348     c45.367,27.638,22.905,13.954,29.397,17.909H316.818z M408.291,160.992h-14.574l-57.432-34.989     c-0.108-0.1-3.464-1.849-4.517-6.179c-0.631-2.597-0.214-5.282,1.169-7.555c2.924-4.795,9.079-6.178,13.729-3.358     c2.235,1.355-13.333-8.121,59.804,36.433C411.984,148.7,412.948,156.396,408.291,160.992z"/><path style="fill:#283954;" d="M365.635,97.046c0.005,0.003,0.008,0.005,0.012,0.007c0.001,0.001,0.002,0.001,0.004,0.002     C365.634,97.045,365.628,97.041,365.635,97.046z"/><path style="fill:#283954;" d="M365.894,97.203C365.893,97.203,365.893,97.203,365.894,97.203     C365.893,97.203,365.893,97.203,365.894,97.203z"/><path style="fill:#283954;" d="M365.992,97.263c-0.008-0.005-0.015-0.009-0.024-0.015     C365.989,97.262,365.992,97.263,365.992,97.263z"/></g></g></g><g id="Layer_1"/></svg>