<svg width="276" height="188" viewBox="0 0 276 188" fill="none" xmlns="http://www.w3.org/2000/svg">
<g clip-path="url(#clip0_218_3398)">
<path d="M77.4589 173.224C65.3416 172.25 28.3515 156.652 20.821 134.038C17.987 125.51 17.8684 115 24.8026 108.935C30.2013 104.217 38.1422 103.614 45.3843 102.456C52.6263 101.298 60.6923 98.5591 63.3114 92.058C65.2798 87.183 63.507 81.7691 63.0806 76.5637C62.0195 63.6545 70.3868 50.5272 82.957 45.4084C95.5272 40.2897 111.329 43.5514 120.498 53.154C124.133 56.9578 126.723 61.5474 130.051 65.5949C133.379 69.6425 137.8 73.2923 143.16 74.0396C152.415 75.3225 160.087 67.8785 168.335 63.7026C183.621 55.9699 204.562 60.4954 214.821 73.7221C219.059 79.1969 221.604 85.8648 226.727 90.6115C231.712 95.2268 238.589 97.5135 244.106 101.545C256.558 110.647 260.11 128.223 254.259 142.05C248.408 155.876 234.588 165.812 219.475 169.927C204.363 174.042 188.103 172.891 172.843 169.286C166.729 167.839 160.462 165.992 154.249 166.989C147.728 168.035 142.262 172.044 136.517 175.145C118.431 184.896 95.3355 185.528 76.5078 177.275C74.2604 176.29 75.0057 173.277 77.4589 173.224Z" fill="#F7F7FF"/>
</g>
<path d="M82.8768 50.5739C82.8772 54.6892 84.021 58.7235 86.1806 62.2267C88.3402 65.7299 91.4307 68.5642 95.1072 70.4133C98.7837 72.2625 102.902 73.0538 107.002 72.699C111.102 72.3441 115.023 70.8571 118.327 68.4039L129.217 71.1838L124.687 61.0539C126.281 58.0753 127.175 54.7725 127.301 51.3964C127.427 48.0203 126.782 44.66 125.414 41.5709C124.046 38.4818 121.992 35.7453 119.407 33.5695C116.823 31.3937 113.776 29.8358 110.499 29.0144C107.222 28.193 103.801 28.1297 100.496 28.8292C97.1907 29.5287 94.0886 30.9727 91.4253 33.0514C88.7621 35.1301 86.6079 37.7886 85.1266 40.825C83.6453 43.8613 82.8759 47.1954 82.8768 50.5739Z" fill="white"/>
<path d="M82.8768 50.574C82.8798 54.6911 84.0145 58.7282 86.1568 62.244C86.6783 63.131 87.2527 63.9859 87.8768 64.804C88.5402 65.5873 89.2515 66.3288 90.0068 67.024C91.4987 68.4305 93.182 69.6189 95.0068 70.554C96.8372 71.4883 98.7895 72.1615 100.807 72.554C101.82 72.7507 102.846 72.8776 103.877 72.934C104.905 73.019 105.939 73.019 106.967 72.934C111.126 72.6112 115.114 71.1399 118.487 68.684L118.187 68.744L129.047 71.604L129.927 71.834L129.557 70.994L125.067 60.844V61.264C126.7 58.2277 127.613 54.8562 127.734 51.4106C127.855 47.965 127.182 44.5377 125.767 41.394C124.349 38.2591 122.24 35.4863 119.597 33.284C116.957 31.1142 113.86 29.5705 110.538 28.7686C107.216 27.9667 103.756 27.9275 100.417 28.654C97.1078 29.4067 94.0089 30.8895 91.3468 32.994C88.6975 35.0931 86.5589 37.7657 85.0918 40.8108C83.6247 43.8558 82.8673 47.194 82.8768 50.574ZM82.8768 50.574C82.8762 45.4922 84.635 40.5669 87.8543 36.6349C91.0735 32.7028 95.5548 30.0065 100.537 29.004C103.813 28.3517 107.196 28.4543 110.427 29.304C113.647 30.1358 116.634 31.6959 119.157 33.864C121.656 36.0556 123.649 38.765 124.997 41.804C126.326 44.8345 126.948 48.1275 126.817 51.434C126.663 54.7076 125.789 57.9068 124.257 60.804L124.147 61.014L124.247 61.224L128.817 71.344L129.327 70.744L118.417 68.044H118.247L118.117 68.144C114.883 70.6 111.029 72.1064 106.987 72.494C105.988 72.5675 104.985 72.5675 103.987 72.494C100.931 72.389 97.9332 71.6285 95.1968 70.264C93.3714 69.3754 91.6867 68.223 90.1968 66.844C89.4418 66.1591 88.7304 65.4277 88.0668 64.654C87.4299 63.8584 86.8389 63.027 86.2968 62.164C84.1151 58.6876 82.9319 54.6779 82.8768 50.574Z" fill="#5552A2"/>
<path d="M106.378 52.9741V55.4241C106.385 55.6689 106.342 55.9125 106.252 56.1401C106.161 56.3677 106.025 56.5744 105.852 56.7476C105.679 56.9208 105.472 57.0568 105.244 57.1473C105.017 57.2378 104.773 57.281 104.528 57.2741C104.286 57.2741 104.046 57.2261 103.822 57.1331C103.598 57.04 103.395 56.9035 103.224 56.7316C103.053 56.5597 102.917 56.3557 102.826 56.1313C102.734 55.9069 102.687 55.6665 102.688 55.4241V51.5141C102.688 51.5141 102.688 51.5141 102.688 51.4341C102.688 51.3541 102.688 51.4341 102.688 51.3641C102.701 50.8791 102.898 50.4173 103.241 50.0733C103.583 49.7293 104.043 49.5292 104.528 49.5141C105.099 49.5419 105.67 49.4535 106.205 49.2542C106.741 49.0549 107.23 48.7489 107.644 48.3548C108.058 47.9607 108.387 47.4866 108.613 46.9613C108.838 46.4361 108.954 45.8705 108.954 45.2991C108.954 44.7276 108.838 44.1621 108.613 43.6368C108.387 43.1115 108.058 42.6375 107.644 42.2433C107.23 41.8492 106.741 41.5432 106.205 41.3439C105.67 41.1447 105.099 41.0563 104.528 41.0841C103.798 41.0818 103.08 41.2719 102.446 41.6352C101.812 41.9986 101.285 42.5224 100.918 43.1541C100.795 43.3671 100.631 43.5537 100.436 43.7033C100.24 43.8528 100.017 43.9623 99.7795 44.0254C99.5417 44.0886 99.2937 44.1042 99.0499 44.0714C98.806 44.0385 98.571 43.9579 98.3584 43.8341C98.1497 43.7105 97.9675 43.5468 97.8223 43.3526C97.6771 43.1583 97.5717 42.9373 97.5122 42.7022C97.4528 42.467 97.4404 42.2225 97.4757 41.9825C97.5111 41.7426 97.5936 41.512 97.7184 41.3041C98.3762 40.1713 99.305 39.2196 100.421 38.5345C101.538 37.8494 102.807 37.4522 104.115 37.3787C105.423 37.3052 106.728 37.5576 107.914 38.1133C109.101 38.669 110.13 39.5106 110.911 40.5625C111.691 41.6144 112.199 42.8437 112.387 44.14C112.575 45.4363 112.438 46.7591 111.989 47.9895C111.539 49.2199 110.792 50.3195 109.812 51.1895C108.833 52.0595 107.653 52.6727 106.378 52.9741ZM106.378 61.2241V61.9041C106.384 62.1481 106.34 62.3906 106.249 62.617C106.157 62.8434 106.021 63.0489 105.848 63.221C105.675 63.3931 105.469 63.5282 105.242 63.6182C105.015 63.7081 104.772 63.7509 104.528 63.7441C104.04 63.7441 103.572 63.5502 103.227 63.2051C102.882 62.8601 102.688 62.3921 102.688 61.9041V61.2241C102.694 60.7367 102.889 60.2707 103.232 59.9251C103.576 59.5796 104.041 59.3819 104.528 59.3741C104.772 59.3714 105.014 59.4174 105.24 59.5094C105.465 59.6015 105.67 59.7376 105.843 59.9099C106.015 60.0823 106.151 60.2873 106.243 60.5129C106.335 60.7386 106.381 60.9804 106.378 61.2241Z" fill="#5552A2"/>
<g clip-path="url(#clip1_218_3398)">
<path d="M0.584961 187.5L34.9616 187.26L69.3317 187.17L138.085 187L206.832 187.17L241.208 187.25L275.585 187.5L241.208 187.74L206.832 187.83L138.085 188L69.3317 187.83L34.9616 187.74L0.584961 187.5Z" fill="#422955"/>
</g>
<path d="M171.029 168.407H92.4463V167.432H171.029C171.791 167.433 172.535 167.206 173.166 166.78C173.798 166.355 174.286 165.75 174.569 165.045C174.895 164.307 174.991 163.488 174.847 162.695C174.703 161.901 174.325 161.168 173.761 160.59L160.302 142.641L161.084 142.062L174.504 159.96C175.191 160.671 175.65 161.571 175.822 162.544C175.994 163.517 175.871 164.519 175.469 165.422C175.113 166.306 174.5 167.062 173.708 167.594C172.917 168.126 171.983 168.41 171.029 168.407Z" fill="#5552A2" stroke="#5552A2"/>
<path d="M108.201 186.993C112.079 186.993 115.224 183.858 115.224 179.989C115.224 176.121 112.079 172.985 108.201 172.985C104.322 172.985 101.178 176.121 101.178 179.989C101.178 183.858 104.322 186.993 108.201 186.993Z" fill="#422955"/>
<path d="M101.693 168.602L105.925 180.958C106.092 181.446 106.407 181.869 106.827 182.169C107.246 182.469 107.75 182.63 108.266 182.63C108.537 182.631 108.806 182.587 109.062 182.5C109.683 182.288 110.195 181.839 110.485 181.251C110.775 180.663 110.819 179.985 110.607 179.365L106.93 168.628L101.693 168.602Z" fill="#7976C9"/>
<path d="M106.525 180.139C106.527 180.47 106.626 180.792 106.811 181.066C106.996 181.34 107.258 181.553 107.564 181.679C107.871 181.804 108.208 181.836 108.532 181.771C108.857 181.706 109.155 181.546 109.389 181.312C109.622 181.078 109.781 180.78 109.845 180.456C109.91 180.132 109.876 179.797 109.749 179.492C109.622 179.187 109.407 178.926 109.132 178.743C108.856 178.559 108.532 178.461 108.201 178.461C107.981 178.461 107.762 178.505 107.558 178.589C107.355 178.674 107.17 178.797 107.014 178.953C106.858 179.109 106.735 179.294 106.651 179.498C106.567 179.701 106.525 179.919 106.525 180.139Z" fill="#422955"/>
<path d="M159.728 186.993C163.607 186.993 166.751 183.858 166.751 179.989C166.751 176.121 163.607 172.985 159.728 172.985C155.849 172.985 152.705 176.121 152.705 179.989C152.705 183.858 155.849 186.993 159.728 186.993Z" fill="#422955"/>
<path d="M153.221 168.602L157.453 180.958C157.618 181.446 157.933 181.87 158.353 182.17C158.773 182.47 159.277 182.631 159.794 182.63C160.064 182.631 160.333 182.587 160.589 182.5C161.21 182.286 161.72 181.837 162.01 181.25C162.3 180.663 162.344 179.985 162.135 179.365L158.45 168.628L153.221 168.602Z" fill="#7976C9"/>
<path d="M158.046 180.139C158.047 180.47 158.147 180.792 158.332 181.066C158.516 181.34 158.779 181.553 159.085 181.679C159.391 181.804 159.728 181.836 160.053 181.771C160.377 181.706 160.675 181.546 160.909 181.312C161.143 181.078 161.302 180.78 161.366 180.456C161.43 180.132 161.396 179.797 161.269 179.492C161.142 179.187 160.928 178.926 160.652 178.743C160.377 178.559 160.053 178.461 159.722 178.461C159.501 178.461 159.283 178.505 159.079 178.589C158.875 178.674 158.69 178.797 158.534 178.953C158.379 179.109 158.255 179.294 158.172 179.498C158.088 179.701 158.045 179.919 158.046 180.139Z" fill="#422955"/>
<path d="M189.782 90.2246L188.876 89.8669L201.728 57.175L214.816 55.9849L214.907 56.9539L202.42 58.0919L189.782 90.2246Z" fill="#5552A2" stroke="#5552A2"/>
<path d="M163.406 142.791H163.1L94.5854 140.332C89.7665 140.157 85.8149 136.053 85.3845 130.779L82.085 90.0947L82.5675 90.0557L193.421 80.5674L172.242 136.346C170.742 140.235 167.26 142.791 163.406 142.791ZM83.1413 90.9791L86.3691 130.695C86.7539 135.475 90.2816 139.194 94.6245 139.35L163.139 141.809C166.673 141.952 169.946 139.598 171.316 135.995L191.948 81.6664L83.1413 90.9791Z" fill="#5552A2" stroke="#5552A2"/>
<path d="M166.856 121.917L85.8711 124.54L85.9028 125.515L166.888 122.892L166.856 121.917Z" fill="#5552A2" stroke="#5552A2"/>
<path d="M178.502 101.468L84.9531 107.06L85.0116 108.034L178.561 102.442L178.502 101.468Z" fill="#5552A2" stroke="#5552A2"/>
<path d="M170.694 82.9553L151.254 141.067L152.182 141.376L171.622 83.264L170.694 82.9553Z" fill="#5552A2" stroke="#5552A2"/>
<path d="M101.774 88.9773L100.798 89.0459L104.39 139.893L105.366 139.824L101.774 88.9773Z" fill="#5552A2" stroke="#5552A2"/>
<path d="M146.971 84.9632L135.599 140.758L136.557 140.953L147.929 85.1575L146.971 84.9632Z" fill="#5552A2" stroke="#5552A2"/>
<path d="M123.586 86.7121L120.323 140.845L121.3 140.904L124.562 86.7707L123.586 86.7121Z" fill="#5552A2" stroke="#5552A2"/>
<path d="M210.401 60.8236L216.811 60.2058C217.767 60.1136 218.648 59.6468 219.259 58.908C219.87 58.1691 220.163 57.2184 220.072 56.2648C219.979 55.3126 219.512 54.4357 218.773 53.8262C218.033 53.2168 217.082 52.9244 216.127 53.0132L209.71 53.6245C208.755 53.72 207.877 54.1876 207.267 54.9257C206.656 55.6638 206.362 56.6126 206.45 57.5655C206.542 58.5194 207.01 59.398 207.751 60.0086C208.491 60.6193 209.444 60.9124 210.401 60.8236Z" fill="#422955"/>
<defs>
<clipPath id="clip0_218_3398">
<rect width="238" height="140" fill="white" transform="translate(19 43)"/>
</clipPath>
<clipPath id="clip1_218_3398">
<rect width="275" height="1" fill="white" transform="translate(0.584961 187)"/>
</clipPath>
</defs>
</svg>
