<svg width="280" height="280" viewBox="0 0 280 280" fill="none" xmlns="http://www.w3.org/2000/svg">
<path d="M151.849 212.1H93.5254V257.084H151.849V212.1Z" fill="#EBEBEB"/>
<path d="M137.239 256.771C137.161 256.771 137.094 246.741 137.094 234.371C137.094 222 137.161 211.971 137.239 211.971C137.318 211.971 137.385 222 137.385 234.371C137.385 246.741 137.318 256.771 137.239 256.771Z" fill="#E0E0E0"/>
<path d="M146.905 246.848H142.437V251.904H146.905V246.848Z" fill="#FAFAFA"/>
<path d="M117.947 212.219H111.322V221.817H117.947V212.219Z" fill="#E0E0E0"/>
<path d="M117.947 247.352H111.322V256.95H117.947V247.352Z" fill="#E0E0E0"/>
<path d="M257.684 200.82H184.14V257.543H257.684V200.82Z" fill="#EBEBEB"/>
<path d="M239.255 257.14C239.177 257.14 239.109 244.501 239.109 228.905C239.109 213.309 239.177 200.67 239.255 200.67C239.333 200.67 239.401 213.309 239.401 228.905C239.401 244.501 239.339 257.14 239.255 257.14Z" fill="#E0E0E0"/>
<path d="M251.446 244.629H245.807V251.002H251.446V244.629Z" fill="#FAFAFA"/>
<path d="M214.927 200.967H206.572V213.068H214.927V200.967Z" fill="#E0E0E0"/>
<path d="M214.927 245.27H206.572V257.371H214.927V245.27Z" fill="#E0E0E0"/>
<path d="M45.6179 202.49C48.5971 200.955 52.1027 200.754 55.4067 201.303C57.1819 201.594 59.0299 202.126 60.2395 203.459C61.4491 204.792 61.6731 207.138 60.2899 208.286C59.4611 208.969 58.3131 209.07 57.2379 209.059C54.6507 209.025 51.7835 208.572 49.7171 210.128C48.5355 211.019 47.7515 212.492 46.3571 212.928C44.9627 213.365 43.4227 212.542 42.6947 211.299C42.0212 210.002 41.8728 208.496 42.2803 207.093C42.4451 206.121 42.8321 205.2 43.4109 204.401C43.9898 203.603 44.745 202.949 45.6179 202.49Z" fill="#EBEBEB"/>
<path d="M38.7976 189.325C40.6176 191.924 44.1568 191.067 45.7976 189.477C47.4384 187.886 48.1328 185.59 48.76 183.401C50.2048 178.389 51.6552 173.13 50.5856 168.029C50.328 166.481 49.6478 165.036 48.62 163.851C48.0996 163.269 47.4363 162.833 46.6957 162.587C45.955 162.34 45.1628 162.291 44.3976 162.445C42.6112 162.916 41.5024 164.685 40.7016 166.326C38.3405 171.231 37.1046 176.602 37.084 182.045C37.084 184.582 37.3696 187.237 38.7976 189.325Z" fill="#EBEBEB"/>
<path d="M33.8019 193.053C35.7787 190.707 36.1539 187.291 35.2747 184.351C34.3955 181.411 32.4075 178.913 30.1171 176.869C27.4232 174.473 24.2886 172.624 20.8882 171.426C19.5704 170.893 18.1528 170.653 16.733 170.72C16.0248 170.761 15.3372 170.974 14.7301 171.341C14.123 171.708 13.6148 172.217 13.2498 172.826C12.2754 174.679 13.2106 176.925 14.2186 178.762C15.9937 181.994 18.0197 185.081 20.2778 187.996C22.0978 190.337 24.1979 192.65 26.9474 193.708C29.6971 194.767 32.5979 194.643 34.0651 192.723" fill="#EBEBEB"/>
<path d="M38.6735 228.536C38.7708 228.151 38.8271 227.757 38.8415 227.36C38.9255 226.498 39.0263 225.417 39.1551 224.135C39.3157 222.548 39.5568 220.97 39.8775 219.408C40.2983 217.498 40.8733 215.625 41.5967 213.808C42.3063 212.003 43.2658 210.306 44.4471 208.768C45.4129 207.517 46.6423 206.494 48.0479 205.772C49.0039 205.301 50.0282 204.983 51.0831 204.831C51.4802 204.816 51.8745 204.758 52.2591 204.658C51.8627 204.614 51.4627 204.614 51.0663 204.658C49.9709 204.74 48.8992 205.019 47.9023 205.481C46.418 206.181 45.1164 207.216 44.0999 208.505C42.8636 210.064 41.867 211.798 41.1431 213.651C40.4205 215.49 39.8584 217.388 39.4631 219.324C39.1585 220.906 38.9472 222.505 38.8303 224.112C38.7295 225.484 38.6903 226.593 38.6735 227.36C38.6323 227.751 38.6323 228.145 38.6735 228.536Z" fill="#E0E0E0"/>
<path d="M38.898 226.062C38.9313 225.877 38.9425 225.689 38.9316 225.502C38.9316 225.087 38.9316 224.567 38.9316 223.934C38.9316 222.573 38.9316 220.602 38.9988 218.171C39.122 213.311 39.5588 208.091 40.3484 200.705C41.1156 193.767 42.1404 185.697 43.2268 180.45C43.4564 179.257 43.6916 178.182 43.9156 177.241C44.1396 176.3 44.302 175.483 44.4756 174.827C44.6492 174.172 44.7444 173.707 44.8452 173.304C44.9 173.122 44.932 172.934 44.9404 172.744C44.8561 172.907 44.7921 173.08 44.75 173.259C44.6268 173.657 44.4756 174.15 44.2908 174.76C44.106 175.371 43.882 176.222 43.6468 177.157C43.4116 178.092 43.1428 179.167 42.8908 180.36C41.5456 186.566 40.5342 192.84 39.8612 199.154C39.0548 206.546 38.6908 213.277 38.6572 218.149C38.6572 220.585 38.6572 222.562 38.7412 223.923C38.7804 224.555 38.814 225.076 38.8364 225.485C38.8337 225.679 38.8544 225.873 38.898 226.062Z" fill="#E0E0E0"/>
<path d="M38.9318 213.079C38.9745 212.533 38.9745 211.984 38.9318 211.438C38.8702 210.385 38.7246 208.867 38.4278 207.003C38.0615 204.822 37.5717 202.665 36.9606 200.54C36.2543 197.925 35.3501 195.368 34.2558 192.891C32.3822 188.325 29.6933 184.139 26.3206 180.537C25.7354 179.918 25.1106 179.339 24.4502 178.801C24.1646 178.555 23.8902 178.314 23.655 178.123L22.9606 177.625C22.5248 177.292 22.0621 176.996 21.5774 176.74C21.499 176.847 23.5318 178.045 26.0966 180.772C29.359 184.408 31.9764 188.575 33.8358 193.092C34.9113 195.554 35.8187 198.085 36.5518 200.669C37.1676 202.774 37.6778 204.908 38.0806 207.064C38.4166 208.907 38.6406 210.424 38.7302 211.455C38.7541 212 38.8215 212.544 38.9318 213.079Z" fill="#E0E0E0"/>
<path d="M25.5146 234.002L26.8138 251.827H49.7123L51.0115 234.002H25.5146Z" fill="#EBEBEB"/>
<path d="M53.7378 226.979H23.3018V234.001H53.7378V226.979Z" fill="#EBEBEB"/>
<path d="M23.3018 251.143V253.086H24.7354H53.2394V251.143H23.3018Z" fill="#E0E0E0"/>
<path d="M26.1354 256.3L24.7354 252.873H52.1474L50.5122 256.3H26.1354Z" fill="#E0E0E0"/>
<path d="M50.5852 239.826C50.5566 239.886 50.5209 239.942 50.4788 239.994C50.3892 240.112 50.2716 240.263 50.1372 240.448L48.8044 242.128L48.7428 242.206L48.6868 242.128L45.4108 237.597H45.5956L42.37 242.161L42.2692 242.307L42.1572 242.172L38.3324 237.62H38.5508L38.3436 237.888L34.922 242.172L34.8044 242.318L34.7036 242.167L31.4724 237.603H31.6628L27.6868 242.128L27.6196 242.212L27.5636 242.116L26.3204 240.056C26.186 239.832 26.0852 239.647 26.0012 239.496C25.959 239.433 25.9251 239.365 25.9004 239.294C25.9528 239.348 25.998 239.408 26.0348 239.473L26.3876 240.005L27.6924 242.06H27.5692L31.4892 237.48L31.5844 237.362L31.674 237.485L34.9332 242.032H34.7204L38.1308 237.737C38.2036 237.648 38.2764 237.558 38.338 237.474L38.45 237.334L38.562 237.468L42.3756 242.032H42.1628L45.422 237.491L45.5172 237.356L45.6068 237.491C46.9004 239.333 47.998 240.896 48.8156 242.072H48.698L50.0868 240.392C50.238 240.218 50.3612 240.078 50.4564 239.96C50.496 239.912 50.539 239.868 50.5852 239.826Z" fill="#F5F5F5"/>
<path d="M51.3297 233.884C51.3297 233.963 45.5897 234.03 38.5169 234.03C31.4441 234.03 25.7041 233.963 25.7041 233.884C25.7041 233.806 31.4385 233.744 38.5169 233.744C45.5953 233.744 51.3297 233.806 51.3297 233.884Z" fill="#F5F5F5"/>
<path d="M211.916 31.8086L207.224 31.834L207.35 55.1856L212.043 55.1603L211.916 31.8086Z" fill="#E0E0E0"/>
<path d="M178.72 31.8698L166.568 31.9355L166.638 44.8265L178.79 44.7608L178.72 31.8698Z" fill="#EBEBEB"/>
<path d="M190.816 31.8053L178.664 31.8711L178.734 44.7621L190.886 44.6964L190.816 31.8053Z" fill="#F5F5F5"/>
<path d="M166.583 35.5033C174.662 35.5705 182.745 35.5332 190.831 35.3913C190.865 35.3913 190.898 35.3778 190.922 35.3536C190.946 35.3295 190.96 35.2967 190.96 35.2625C190.96 35.2284 190.946 35.1956 190.922 35.1715C190.898 35.1473 190.865 35.1337 190.831 35.1337C182.756 35.0889 174.658 35.1337 166.583 35.2849C166.558 35.2906 166.536 35.3045 166.521 35.3243C166.505 35.3441 166.496 35.3688 166.496 35.3941C166.496 35.4195 166.505 35.4441 166.521 35.464C166.536 35.4838 166.558 35.4977 166.583 35.5033Z" fill="#E0E0E0"/>
<path d="M181.074 44.5465L158.993 44.666L159.05 55.1714L181.13 55.052L181.074 44.5465Z" fill="#EBEBEB"/>
<path d="M203.047 44.4274L180.967 44.5469L181.024 55.0523L203.104 54.9329L203.047 44.4274Z" fill="#F5F5F5"/>
<path d="M159.007 47.5998C173.673 47.7622 188.39 47.5998 203.062 47.3814C203.096 47.3814 203.129 47.3678 203.153 47.3437C203.177 47.3195 203.191 47.2867 203.191 47.2526C203.191 47.2184 203.177 47.1857 203.153 47.1615C203.129 47.1374 203.096 47.1238 203.062 47.1238C188.395 47.0454 173.673 47.051 159.007 47.3758C158.977 47.3758 158.948 47.3876 158.927 47.4086C158.906 47.4296 158.895 47.4581 158.895 47.4878C158.895 47.5175 158.906 47.546 158.927 47.567C158.948 47.588 158.977 47.5998 159.007 47.5998Z" fill="#E0E0E0"/>
<path d="M236.293 55.1816H150.747V58.9448H236.293V55.1816Z" fill="#E0E0E0"/>
<path d="M168.224 56.9902H164.752V69.831H168.224V56.9902Z" fill="#E0E0E0"/>
<path d="M220.064 56.9902H216.592V69.831H220.064V56.9902Z" fill="#E0E0E0"/>
<path d="M216.494 23.0977L211.802 23.123L211.976 55.2386L216.668 55.2132L216.494 23.0977Z" fill="#EBEBEB"/>
<path d="M223.824 29.0777L216.533 29.1172L216.674 55.1456L223.965 55.1062L223.824 29.0777Z" fill="#F5F5F5"/>
<path d="M223.776 34.1033C221.352 34.2745 218.92 34.2745 216.496 34.1033C218.92 33.9395 221.352 33.9395 223.776 34.1033Z" fill="#E0E0E0"/>
<path d="M223.776 33.0405C222.564 33.1631 221.347 33.2042 220.13 33.1637C218.913 33.204 217.695 33.1629 216.484 33.0405C218.908 32.8693 221.341 32.8693 223.764 33.0405H223.776Z" fill="#E0E0E0"/>
<path d="M223.776 51.2009C221.352 51.3721 218.92 51.3721 216.496 51.2009C218.92 51.0372 221.352 51.0372 223.776 51.2009Z" fill="#E0E0E0"/>
<path d="M223.776 50.1089C221.352 50.2726 218.92 50.2726 216.496 50.1089C218.92 49.9377 221.352 49.9377 223.776 50.1089Z" fill="#E0E0E0"/>
<path d="M220.248 47.7222C220.181 47.7222 220.125 45.0958 220.125 41.859C220.125 38.6222 220.181 35.9902 220.248 35.9902C220.315 35.9902 220.377 38.6166 220.377 41.859C220.377 45.1014 220.321 47.7222 220.248 47.7222Z" fill="#E0E0E0"/>
<path d="M231.796 35.4805H223.86V55.1253H231.796V35.4805Z" fill="#EBEBEB"/>
<path d="M214.076 29.9433C214.822 29.9433 215.426 29.3391 215.426 28.5937C215.426 27.8484 214.822 27.2441 214.076 27.2441C213.331 27.2441 212.727 27.8484 212.727 28.5937C212.727 29.3391 213.331 29.9433 214.076 29.9433Z" fill="#E0E0E0"/>
<path d="M214.496 32.3066H213.662V51.4139H214.496V32.3066Z" fill="#E0E0E0"/>
<path d="M260.21 257.235C260.21 257.319 206.383 257.381 140.006 257.381C73.6294 257.381 19.791 257.319 19.791 257.235C19.791 257.151 73.607 257.09 140.006 257.09C206.405 257.09 260.21 257.157 260.21 257.235Z" fill="#263238"/>
<path d="M83.5566 51.7168C86.1974 54.9486 87.6274 59.0009 87.5997 63.1744C87.5717 65.5376 87.1349 68.1416 88.5125 70.0624C89.5541 71.5184 91.4581 72.252 92.3037 73.8312C93.3229 75.7296 92.4549 78.132 93.0821 80.1928C93.9669 83.116 97.3941 84.3424 99.4269 86.6216C100.293 87.6295 100.9 88.8344 101.193 90.1309C101.485 91.4274 101.456 92.7759 101.107 94.0584C100.737 95.3355 100.067 96.5059 99.1532 97.4721C98.2396 98.4383 97.1086 99.1725 95.8541 99.6136C94.5147 100.142 93.0206 100.117 91.6989 99.5464C90.3269 98.8632 89.4589 97.4576 88.7869 96.0856C87.4373 93.3864 75.5822 78.7984 74.9102 75.8528" fill="#263238"/>
<path d="M74.9328 48.28C70.0832 47.496 65.4128 50.716 63.38 55.1848C61.3472 59.6536 61.28 64.7048 61.14 69.6328C61 74.5608 60.6416 79.668 58.1384 83.8904C56.548 86.5728 54.084 88.9304 53.6976 92.016C53.3504 94.7824 54.784 97.5712 54.308 100.321C53.8936 102.718 52.068 104.801 52.1408 107.226C52.2304 110.149 55.2376 112.35 58.1552 112.428C61.0728 112.506 63.8056 110.978 66.096 109.163C69.8276 106.2 72.8137 102.405 74.8152 98.0808" fill="#263238"/>
<path d="M66.9536 59.8364C66.8012 58.6165 66.8955 57.3784 67.2308 56.1957C67.5661 55.0129 68.1356 53.9096 68.9055 52.9511C69.6754 51.9927 70.63 51.1986 71.7126 50.6162C72.7953 50.0337 73.9839 49.6747 75.208 49.5604C80.0968 49.09 84.4479 52.7356 85.1815 57.5964C85.8255 61.858 86.3743 66.1588 86.3575 67.7212C86.2959 72.4308 83.5576 74.262 82.4376 74.8164C82.0347 74.961 81.6181 75.0642 81.1944 75.1244V75.158L82.236 80.5676C82.712 84.1124 80.7352 87.2876 77.196 87.786C73.6568 88.2844 70.8736 85.5796 70.3304 82.0348L66.9536 59.8364Z" fill="#FFBE9D"/>
<path d="M84.2178 59.6595C84.1394 59.7715 83.5178 59.4411 82.7226 59.5587C81.9274 59.6763 81.3954 60.1579 81.2946 60.0739C81.1938 59.9899 81.2946 59.8499 81.541 59.6259C81.8472 59.3276 82.2386 59.1319 82.661 59.0659C83.0754 59.002 83.4993 59.0726 83.8706 59.2675C84.1506 59.4467 84.257 59.6147 84.2178 59.6595Z" fill="#263238"/>
<path d="M77.1289 61.3831C77.0505 61.4951 76.4289 61.1591 75.6281 61.2767C74.8273 61.3943 74.3065 61.8815 74.2057 61.7975C74.1049 61.7135 74.2057 61.5679 74.4521 61.3495C74.7583 61.0512 75.1497 60.8555 75.5721 60.7895C75.9871 60.7305 76.4101 60.8029 76.7817 60.9967C77.0561 61.1703 77.1681 61.3327 77.1289 61.3831Z" fill="#263238"/>
<path d="M80.0344 65.6568C80.435 65.4641 80.8584 65.3229 81.2945 65.2368C81.4961 65.1864 81.6809 65.1192 81.6977 64.9736C81.6795 64.769 81.6016 64.5742 81.4737 64.4136L80.6393 62.924C79.48 60.8408 78.612 59.116 78.696 59.0656C78.78 59.0152 79.816 60.6784 80.9361 62.7616C81.2217 63.2768 81.4961 63.7696 81.7425 64.2344C81.9052 64.4621 81.9843 64.739 81.9665 65.0184C81.948 65.0948 81.9121 65.1659 81.8616 65.2261C81.8111 65.2863 81.7473 65.3341 81.6753 65.3656C81.5661 65.4133 81.4513 65.4472 81.3337 65.4664C80.9107 65.5862 80.474 65.6502 80.0344 65.6568Z" fill="#263238"/>
<path d="M81.1485 75.1309C81.1485 75.1309 78.1077 75.8309 73.9189 74.0781C73.9189 74.0781 75.7277 77.9701 81.4341 76.5869L81.1485 75.1309Z" fill="#EB996E"/>
<path d="M76.7191 59.2939C76.6743 59.5235 75.8623 59.5347 74.9439 59.7867C74.0256 60.0387 73.3032 60.3971 73.152 60.2235C73.0848 60.1395 73.1855 59.9155 73.4599 59.6635C73.8294 59.3475 74.266 59.1197 74.7366 58.9974C75.2071 58.8752 75.6994 58.8617 76.1759 58.9579C76.5455 59.0419 76.7191 59.1875 76.7191 59.2939Z" fill="#263238"/>
<path d="M83.5626 57.8946C83.4506 58.0962 82.8738 57.9898 82.213 58.0738C81.5522 58.1578 81.009 58.3762 80.8522 58.2026C80.785 58.1186 80.8522 57.9282 81.065 57.721C81.3586 57.4606 81.7272 57.2999 82.1178 57.2618C82.5035 57.2153 82.8942 57.2876 83.2378 57.469C83.5066 57.6202 83.613 57.7938 83.5626 57.8946Z" fill="#263238"/>
<path d="M75.3977 62.4134C75.41 62.5 75.4394 62.5834 75.4842 62.6586C75.529 62.7338 75.5883 62.7993 75.6586 62.8514C75.7289 62.9035 75.8089 62.9411 75.8939 62.9621C75.9789 62.983 76.0672 62.9868 76.1537 62.9733C76.2378 62.9637 76.3191 62.9374 76.3929 62.896C76.4668 62.8545 76.5316 62.7989 76.5837 62.7322C76.6358 62.6655 76.6742 62.5891 76.6965 62.5074C76.7188 62.4258 76.7246 62.3405 76.7137 62.2566C76.6874 62.0822 76.5931 61.9253 76.4514 61.8204C76.3097 61.7154 76.1321 61.6709 75.9577 61.6966C75.8733 61.7055 75.7916 61.7313 75.7174 61.7725C75.6432 61.8137 75.578 61.8694 75.5257 61.9363C75.4735 62.0031 75.4352 62.0798 75.4132 62.1618C75.3912 62.2438 75.3859 62.3293 75.3977 62.4134Z" fill="#263238"/>
<path d="M82.4592 60.8841C82.4855 61.0584 82.5798 61.2153 82.7215 61.3202C82.8632 61.4252 83.0407 61.4697 83.2152 61.4441C83.2993 61.4344 83.3806 61.4081 83.4545 61.3667C83.5283 61.3252 83.5931 61.2696 83.6453 61.2029C83.6974 61.1362 83.7357 61.0598 83.758 60.9781C83.7803 60.8965 83.7862 60.8112 83.7752 60.7273C83.7489 60.5529 83.6546 60.396 83.5129 60.2911C83.3712 60.1861 83.1937 60.1416 83.0192 60.1673C82.9348 60.1762 82.8531 60.202 82.7789 60.2432C82.7047 60.2844 82.6395 60.3401 82.5873 60.407C82.535 60.4738 82.4968 60.5505 82.4748 60.6325C82.4528 60.7145 82.4475 60.8 82.4592 60.8841Z" fill="#263238"/>
<path d="M81.289 67.2008C81.0692 67.1324 80.8323 67.1431 80.6196 67.231C80.4068 67.319 80.2316 67.4787 80.1242 67.6824C80.0217 67.8694 79.9801 68.0838 80.0052 68.2956C80.0303 68.5074 80.1208 68.7061 80.2642 68.864C80.4168 69.0139 80.6178 69.1047 80.8312 69.12C81.0446 69.1354 81.2565 69.0744 81.429 68.948C81.645 68.7513 81.7757 68.478 81.793 68.1864C81.8311 67.919 81.7671 67.6471 81.6138 67.4248C81.5352 67.3161 81.4229 67.2363 81.2943 67.1978C81.1657 67.1594 81.0281 67.1643 80.9026 67.212" fill="#EB996E"/>
<path d="M84.5597 53.7614C84.1201 51.9871 83.0232 50.4459 81.4909 49.4494C80.2366 48.5434 78.7466 48.0201 77.2013 47.943C75.6463 47.876 74.1281 48.4277 72.9789 49.4774C72.1634 50.2857 71.697 51.3813 71.6797 52.5294L71.7693 51.7454C71.5339 52.3833 71.5339 53.0842 71.7693 53.7222C71.8981 54.0638 72.0549 54.411 72.1893 54.7526C72.5902 55.7397 73.3338 56.549 74.2837 57.0318C74.7138 57.2625 75.1956 57.38 75.6837 57.3734C75.928 57.3684 76.1683 57.3103 76.3879 57.2029C76.6074 57.0956 76.8009 56.9416 76.9549 56.7518C77.3026 56.1447 77.4104 55.4295 77.2573 54.747C77.6247 55.4215 78.1491 55.9977 78.7861 56.427C79.1113 56.6348 79.4982 56.7243 79.8816 56.6805C80.2651 56.6366 80.6218 56.4621 80.8917 56.1862C81.3509 55.6262 81.1717 54.7414 80.8917 54.047C81.3249 54.7019 81.9318 55.2235 82.6445 55.5534C82.832 55.6609 83.0398 55.7284 83.2548 55.7516C83.4697 55.7747 83.6871 55.753 83.8933 55.6878C84.0581 55.606 84.2021 55.488 84.3147 55.3425C84.4272 55.197 84.5052 55.0278 84.5429 54.8478C84.626 54.491 84.6317 54.1205 84.5597 53.7614Z" fill="#263238"/>
<path d="M80.5106 55.2513C80.4602 55.2513 80.4714 54.5849 80.253 53.5713C80.0011 52.2244 79.324 50.9938 78.321 50.0601C77.7698 49.5589 77.1048 49.1994 76.3834 49.0129C75.7927 48.8679 75.1775 48.8526 74.5802 48.9681C74.0298 49.0968 73.5039 49.3143 73.0234 49.6121C73.0234 49.6121 73.1186 49.4721 73.365 49.2929C73.7187 49.0456 74.1157 48.867 74.5354 48.7665C75.1635 48.6195 75.817 48.6195 76.445 48.7665C77.2189 48.9597 77.9315 49.3449 78.517 49.8865C79.5671 50.8587 80.2529 52.161 80.4602 53.5769C80.5269 53.9955 80.5606 54.4187 80.561 54.8425C80.568 54.9807 80.5509 55.119 80.5106 55.2513Z" fill="#455A64"/>
<path d="M132.086 120.541L110.554 112.001C110.554 112.001 99.5279 97.5359 99.7575 97.2559L92.0127 105.734L103.269 120.961L129.359 127.076L133.839 125.833C132.853 121.078 132.086 120.541 132.086 120.541Z" fill="#FFBE9D"/>
<path d="M85.158 79.2763L82.2236 78.1562L69.5564 79.7634V82.0034L69.1924 82.0482C66.4618 82.6288 63.8429 83.6462 61.4364 85.0611C59.1823 86.4371 57.3912 88.4559 56.2935 90.8579C55.1958 93.2599 54.8416 95.9353 55.2764 98.5403C55.7916 101.743 56.7884 105.635 58.7148 107.887C62.394 112.193 65.754 106.873 65.754 106.873C65.754 106.873 68.0612 112.137 67.9268 114.629C67.8148 116.718 66.8964 121.063 66.5996 122.419C66.5874 122.473 66.5864 122.529 66.5966 122.583C66.6068 122.638 66.628 122.69 66.6589 122.736C66.6898 122.782 66.7298 122.822 66.7764 122.852C66.823 122.882 66.8753 122.902 66.93 122.911L93.6532 127.856L93.782 121.321L92.9308 94.4411L91.7268 84.0027C91.7268 84.0027 91.766 79.0187 85.158 79.2763Z" fill="#00B5B7"/>
<path d="M91.3184 82.2656L101.51 96.988L93.3064 106.978L91.3184 82.2656Z" fill="#00B5B7"/>
<path d="M93.5194 113.243C93.4828 112.927 93.4697 112.609 93.4802 112.291C93.4802 111.631 93.4802 110.763 93.4466 109.704C93.397 106.863 93.1932 104.028 92.8362 101.209C92.4162 97.905 91.7722 94.9538 91.285 92.809L90.6914 90.289C90.6053 89.9842 90.5417 89.6735 90.501 89.3594C90.6283 89.6503 90.7295 89.9521 90.8034 90.261C90.977 90.821 91.2122 91.7002 91.481 92.7642C92.204 95.5272 92.7539 98.3326 93.1274 101.164C93.4874 103.995 93.6632 106.845 93.6538 109.699C93.6538 110.819 93.6258 111.681 93.5922 112.291C93.595 112.61 93.5707 112.929 93.5194 113.243Z" fill="#263238"/>
<path d="M68.4319 90.8606C68.4319 90.9054 67.6591 90.8998 66.4215 90.9614C64.8067 91.0489 63.2006 91.2567 61.6167 91.583C60.0332 91.9153 58.476 92.3626 56.9575 92.9214C55.7927 93.3525 55.0927 93.6718 55.0703 93.627C55.2139 93.5145 55.3721 93.4221 55.5407 93.3526C55.8487 93.1846 56.3079 92.9718 56.8847 92.731C59.9065 91.4831 63.1359 90.8144 66.4047 90.7598C67.0319 90.7598 67.5247 90.7598 67.8887 90.7934C68.0722 90.7875 68.2554 90.8101 68.4319 90.8606Z" fill="#FAFAFA"/>
<path d="M92.0351 97.5979C91.6255 97.7467 91.1981 97.8409 90.7639 97.8779C88.6931 98.1802 86.5952 98.2516 84.5087 98.0907C84.0729 98.0832 83.64 98.0192 83.2207 97.9003C83.6529 97.8619 84.0877 97.8619 84.5199 97.9003C85.3151 97.9003 86.4183 97.9003 87.6335 97.9003C88.8487 97.9003 89.9463 97.7771 90.7415 97.7043C91.1686 97.6297 91.6016 97.5941 92.0351 97.5979Z" fill="#FAFAFA"/>
<path d="M96.7112 90.9398C96.0939 91.6531 95.3543 92.2504 94.5272 92.7038C93.7463 93.2317 92.875 93.6113 91.9568 93.8238C91.9232 93.7454 93.0768 93.2638 94.376 92.435C95.6752 91.6062 96.6552 90.8726 96.7112 90.9398Z" fill="#FAFAFA"/>
<path d="M92.5947 84.1134C90.8279 85.7028 88.5767 86.6498 86.2051 86.8014C86.2051 86.7118 87.7451 86.4766 89.5147 85.7206C91.2843 84.9646 92.5387 84.0406 92.5947 84.1134Z" fill="#FAFAFA"/>
<path d="M93.1499 109C92.9852 109.111 92.8086 109.203 92.6235 109.275C92.2707 109.443 91.7611 109.65 91.1115 109.891C89.4238 110.497 87.6816 110.94 85.9091 111.212C84.1367 111.486 82.3417 111.585 80.5499 111.509C79.8611 111.481 79.3067 111.431 78.9259 111.38C78.7265 111.367 78.5293 111.331 78.3379 111.274C78.3379 111.223 79.1891 111.274 80.5779 111.307C84.1384 111.341 87.6807 110.796 91.0667 109.695C92.3435 109.275 93.1331 108.955 93.1499 109Z" fill="#FAFAFA"/>
<path d="M93.357 116.588C93.357 116.588 93.2786 116.644 93.1162 116.728L92.3994 117.041C91.7834 117.333 90.8706 117.713 89.7282 118.161C88.5858 118.609 87.2026 119.041 85.6458 119.466C82.2613 120.378 78.7873 120.917 75.2858 121.073C73.673 121.135 72.2226 121.129 71.0018 121.073C69.781 121.017 68.801 120.928 68.1234 120.833L67.345 120.726C67.2533 120.72 67.1629 120.701 67.0762 120.67C67.1671 120.656 67.2597 120.656 67.3506 120.67L68.1346 120.721C68.8122 120.777 69.8146 120.833 71.0074 120.866C72.2002 120.9 73.673 120.866 75.2746 120.81C76.8762 120.754 78.6346 120.553 80.4658 120.25C82.297 119.948 84.0218 119.584 85.5786 119.192C87.1354 118.8 88.513 118.357 89.6554 117.949C90.7978 117.54 91.7274 117.198 92.3546 116.941L93.0826 116.655C93.1714 116.623 93.2634 116.601 93.357 116.588Z" fill="#FAFAFA"/>
<path d="M44.2393 235.639L41.2097 249.319L35.6825 259.45C35.5885 259.623 35.531 259.813 35.5135 260.009C35.496 260.205 35.519 260.403 35.5809 260.59C35.6428 260.777 35.7424 260.949 35.8736 261.096C36.0047 261.243 36.1646 261.361 36.3433 261.443C36.5507 261.539 36.778 261.583 37.0059 261.572C37.2339 261.561 37.4561 261.496 37.6537 261.382C40.2185 259.903 49.6321 254.399 49.7945 253.385C49.9905 252.215 53.9497 239.167 53.9497 239.167L44.2393 235.639Z" fill="#00B5B7"/>
<g opacity="0.6">
<path opacity="0.6" d="M36.3428 261.442L50.0236 252.482L49.878 253.042C49.7583 253.542 49.4644 253.983 49.0492 254.286C47.9292 255.086 44.81 257.237 37.698 261.392C37.4938 261.512 37.2632 261.579 37.0267 261.588C36.7902 261.596 36.5553 261.547 36.3428 261.442Z" fill="white"/>
</g>
<g opacity="0.6">
<path opacity="0.6" d="M48.3045 247.392C48.1069 247.475 47.9467 247.627 47.8547 247.82C47.7628 248.014 47.7454 248.234 47.8061 248.44C47.8809 248.639 48.0293 248.803 48.221 248.897C48.4126 248.99 48.6329 249.007 48.8365 248.944C49.0481 248.856 49.2193 248.693 49.3167 248.485C49.4141 248.278 49.4305 248.042 49.3629 247.823C49.2637 247.625 49.0925 247.472 48.8842 247.396C48.6759 247.32 48.4465 247.327 48.2429 247.415" fill="white"/>
</g>
<path d="M40.9138 256.257C40.6879 255.753 40.3708 255.296 39.9786 254.907C39.5268 254.593 39.0195 254.366 38.4834 254.241C38.4834 254.202 38.6794 254.14 39.0098 254.174C39.4397 254.229 39.8444 254.408 40.1746 254.689C40.5074 254.959 40.7529 255.321 40.8802 255.731C40.9754 256.05 40.9474 256.257 40.9138 256.257Z" fill="#263238"/>
<path d="M39.4956 257.842C39.4172 257.887 39.0868 257.338 38.4316 256.963C38.0136 256.769 37.5833 256.602 37.1436 256.464C37.3853 256.385 37.6425 256.365 37.8937 256.405C38.145 256.445 38.3831 256.544 38.5884 256.694C39.3332 257.125 39.574 257.825 39.4956 257.842Z" fill="#263238"/>
<path d="M43.2875 254.366C42.8113 253.838 42.2945 253.347 41.7419 252.899C41.133 252.528 40.4965 252.204 39.8379 251.93C40.5953 251.915 41.3335 252.169 41.9211 252.647C42.5689 253.037 43.0541 253.647 43.2875 254.366Z" fill="#263238"/>
<path d="M44.5591 250.281C44.5031 250.354 43.8255 249.856 42.8791 249.581C41.9327 249.307 41.0759 249.352 41.0703 249.257C41.6936 249.095 42.3489 249.105 42.967 249.286C43.5851 249.466 44.1429 249.81 44.5815 250.281H44.5591Z" fill="#263238"/>
<path d="M45.5498 246.289C45.0036 245.951 44.4139 245.69 43.797 245.511C43.1616 245.424 42.5173 245.424 41.8818 245.511C41.8818 245.477 42.0554 245.343 42.4138 245.236C42.8849 245.108 43.3794 245.092 43.8578 245.19C44.3362 245.287 44.7853 245.495 45.169 245.796C45.4546 246.065 45.5722 246.267 45.5498 246.289Z" fill="#263238"/>
<path d="M44.0037 244.753C44.0041 244.576 44.0423 244.4 44.1157 244.238C44.2744 243.776 44.5259 243.351 44.8549 242.989C45.0701 242.703 45.3729 242.494 45.7173 242.396C45.8346 242.376 45.9549 242.393 46.0627 242.443C46.1705 242.493 46.2609 242.574 46.3221 242.676C46.425 242.884 46.447 243.124 46.3837 243.348C46.2401 243.797 45.9449 244.182 45.5485 244.438C45.1521 244.693 44.6792 244.803 44.2109 244.748C43.7491 244.682 43.317 244.481 42.9692 244.17C42.6214 243.859 42.3735 243.452 42.2565 243.001C42.2296 242.886 42.2272 242.767 42.2494 242.651C42.2716 242.535 42.3179 242.425 42.3853 242.329C42.4627 242.238 42.5668 242.175 42.6826 242.148C42.7984 242.12 42.9198 242.131 43.0293 242.177C43.3458 242.335 43.616 242.573 43.8133 242.866C44.1101 243.255 44.3357 243.693 44.4797 244.16C44.5479 244.327 44.5804 244.506 44.5749 244.686C44.3492 244.082 44.0339 243.516 43.6397 243.006C43.4562 242.767 43.2181 242.575 42.9453 242.446C42.8853 242.42 42.8185 242.414 42.7549 242.429C42.6913 242.444 42.6343 242.48 42.5925 242.53C42.5534 242.596 42.5282 242.669 42.5186 242.745C42.5089 242.822 42.5151 242.899 42.5365 242.973C42.6533 243.353 42.8751 243.692 43.1763 243.951C43.4774 244.211 43.8458 244.38 44.2389 244.44C44.635 244.486 45.035 244.396 45.3737 244.186C45.7123 243.975 45.9697 243.656 46.1037 243.281C46.158 243.128 46.158 242.962 46.1037 242.81C46.072 242.753 46.023 242.707 45.9637 242.679C45.9045 242.65 45.8379 242.642 45.7733 242.653C45.4815 242.733 45.2214 242.902 45.0285 243.135C44.5989 243.613 44.2525 244.16 44.0037 244.753Z" fill="#263238"/>
<g opacity="0.3">
<path opacity="0.3" d="M43.8691 237.123L43.2139 240.259L53.1203 241.905L53.9491 239.167L44.2219 235.639L43.8691 237.123Z" fill="black"/>
</g>
<path d="M88.4788 240.7L87.6612 251.631C87.6612 251.631 98.5028 256.111 98.5476 258.172L77.2676 257.349L77.8276 240.258L88.4788 240.7Z" fill="#00B5B7"/>
<g opacity="0.6">
<path opacity="0.6" d="M81.1376 250.457C80.9311 250.512 80.752 250.641 80.6344 250.82C80.5167 250.999 80.4686 251.214 80.4992 251.426C80.5464 251.634 80.671 251.816 80.8478 251.936C81.0247 252.056 81.2404 252.103 81.4512 252.07C81.6709 252.011 81.8611 251.874 81.9852 251.684C82.1094 251.493 82.1585 251.264 82.1232 251.039C82.0525 250.827 81.9022 250.65 81.7039 250.545C81.5056 250.441 81.2746 250.417 81.0592 250.479" fill="white"/>
</g>
<g opacity="0.6">
<path opacity="0.6" d="M77.2793 257.35L77.4025 255.625L97.7585 257.042C97.7585 257.042 98.6937 257.49 98.5593 258.162L77.2793 257.35Z" fill="white"/>
</g>
<path d="M88.0203 251.537C88.0203 251.643 87.4939 251.671 86.9731 251.985C86.4523 252.298 86.1611 252.724 86.0659 252.679C85.9707 252.634 86.1499 252.041 86.7883 251.671C87.4267 251.302 88.0483 251.442 88.0203 251.537Z" fill="#263238"/>
<path d="M90.2152 252.561C90.2152 252.667 89.7784 252.824 89.4088 253.25C89.0392 253.675 88.9216 254.135 88.8152 254.129C88.7088 254.123 88.6696 253.53 89.14 253.009C89.6104 252.488 90.2152 252.449 90.2152 252.561Z" fill="#263238"/>
<path d="M91.3805 255.265C91.2853 255.265 91.1621 254.756 91.4477 254.201C91.7333 253.647 92.2317 253.434 92.2709 253.524C92.3101 253.613 92.0021 253.904 91.7725 254.364C91.5429 254.823 91.4813 255.26 91.3805 255.265Z" fill="#263238"/>
<path d="M87.9192 249.028C87.8744 249.118 87.404 248.955 86.7992 248.972C86.1944 248.989 85.7464 249.157 85.6792 249.067C85.612 248.978 86.0824 248.625 86.7992 248.614C87.516 248.602 87.9864 248.95 87.9192 249.028Z" fill="#263238"/>
<g opacity="0.3">
<path opacity="0.3" d="M88.3279 242.867L88.1823 244.816L77.7383 244.312L77.8111 242.061L88.3279 242.867Z" fill="black"/>
</g>
<path d="M88.0592 246.816C87.7074 246.902 87.3387 246.886 86.9952 246.772C86.607 246.691 86.2306 246.561 85.8752 246.385C85.6679 246.283 85.4677 246.167 85.276 246.038C85.1591 245.966 85.0534 245.878 84.9624 245.775C84.9007 245.695 84.8672 245.596 84.8672 245.495C84.8672 245.394 84.9007 245.295 84.9624 245.215C85.0169 245.144 85.0875 245.087 85.1683 245.049C85.2492 245.011 85.3379 244.993 85.4272 244.996C85.5621 245.002 85.6957 245.024 85.8248 245.064C86.0489 245.129 86.2664 245.215 86.4744 245.321C86.8281 245.494 87.1514 245.723 87.432 245.999C87.908 246.475 88.0592 246.872 88.0256 246.889C87.992 246.906 87.7512 246.587 87.264 246.189C86.978 245.966 86.6658 245.778 86.3344 245.629C86.1368 245.547 85.9349 245.476 85.7296 245.416C85.5056 245.349 85.3152 245.344 85.2536 245.416C85.192 245.489 85.2536 245.472 85.2536 245.54C85.3208 245.614 85.3981 245.678 85.4832 245.73C85.6629 245.855 85.8499 245.969 86.0432 246.072C86.3661 246.25 86.7056 246.396 87.0568 246.508C87.3978 246.587 87.7328 246.69 88.0592 246.816Z" fill="#263238"/>
<path d="M87.9194 246.962C87.7333 246.648 87.6492 246.284 87.6786 245.92C87.6808 245.526 87.7451 245.135 87.869 244.761C87.9494 244.542 88.0487 244.33 88.1658 244.128C88.2287 243.99 88.3261 243.87 88.4487 243.78C88.5712 243.689 88.7148 243.632 88.8658 243.613C88.9614 243.619 89.0533 243.653 89.1307 243.709C89.208 243.766 89.2677 243.843 89.3026 243.932C89.3512 244.058 89.3814 244.19 89.3922 244.324C89.429 244.562 89.429 244.804 89.3922 245.041C89.3173 245.437 89.1461 245.808 88.8938 246.122C88.457 246.682 88.0202 246.766 88.009 246.732C87.9978 246.699 88.345 246.492 88.6866 245.971C88.8826 245.674 89.0107 245.337 89.0618 244.985C89.0902 244.781 89.0902 244.574 89.0618 244.369C89.0338 244.145 88.9554 243.955 88.8714 243.977C88.7874 244 88.5802 244.134 88.485 244.313C88.3757 244.492 88.2802 244.68 88.1994 244.873C88.0698 245.211 87.9869 245.566 87.953 245.926C87.8802 246.553 87.9754 246.962 87.9194 246.962Z" fill="#263238"/>
<path d="M66.4818 122.81C66.4818 122.81 63.1218 122.961 60.8818 134.452C58.6418 145.943 41.5674 239.054 41.5674 239.054L53.949 239.166L77.2786 150.642L75.7274 241.922L88.305 242.885C88.305 242.885 97.741 141.922 97.825 136.048C97.937 128.723 93.7314 121.314 93.7314 121.314L66.4818 122.81Z" fill="#263238"/>
<path d="M83.5007 121.83C83.5791 121.83 82.2911 128.41 80.6279 136.491C78.9647 144.572 77.5535 151.112 77.4751 151.096C77.3967 151.079 78.6791 144.516 80.3423 136.435C82.0055 128.354 83.4391 121.813 83.5007 121.83Z" fill="#455A64"/>
<path d="M85.4278 123.47C85.4278 123.436 85.7638 123.335 86.1502 123.677C86.2599 123.777 86.3468 123.899 86.4048 124.035C86.4628 124.171 86.4906 124.319 86.4862 124.467C86.4722 124.654 86.4053 124.833 86.2932 124.984C86.1812 125.135 86.0287 125.25 85.8534 125.318C85.6824 125.395 85.4931 125.423 85.3069 125.399C85.1208 125.374 84.9453 125.297 84.8006 125.178C84.6923 125.076 84.6068 124.953 84.5499 124.816C84.4929 124.679 84.4658 124.531 84.4702 124.383C84.4702 123.867 84.8174 123.688 84.823 123.722C84.7286 123.927 84.6789 124.151 84.6774 124.377C84.6849 124.491 84.715 124.602 84.766 124.704C84.8169 124.806 84.8877 124.896 84.9742 124.971C85.0847 125.047 85.2125 125.094 85.346 125.108C85.4795 125.122 85.6143 125.102 85.7381 125.05C85.8619 124.998 85.9706 124.916 86.0544 124.811C86.1381 124.706 86.1942 124.582 86.2174 124.45C86.2256 124.336 86.211 124.222 86.1745 124.115C86.1379 124.007 86.0802 123.908 86.0046 123.823C85.7302 123.503 85.4222 123.515 85.4278 123.47Z" fill="#455A64"/>
<path d="M84.8956 128.017C84.8956 127.983 85.2428 128.017 85.4556 128.482C85.5097 128.614 85.5342 128.757 85.5274 128.9C85.5207 129.043 85.4828 129.183 85.4164 129.31C85.3201 129.461 85.1844 129.583 85.0241 129.663C84.8638 129.743 84.6847 129.777 84.5062 129.763C84.3278 129.748 84.1566 129.686 84.0111 129.581C83.8656 129.477 83.7512 129.335 83.6804 129.17C83.6356 129.035 83.621 128.892 83.6374 128.751C83.6538 128.61 83.701 128.474 83.7756 128.353C84.0388 127.933 84.3972 127.944 84.386 127.978C84.3748 128.011 84.1172 128.09 83.9548 128.448C83.8726 128.649 83.8726 128.874 83.9548 129.075C84.0132 129.186 84.0989 129.281 84.2037 129.35C84.3085 129.419 84.4291 129.461 84.5542 129.471C84.6794 129.481 84.8051 129.459 84.9196 129.408C85.0341 129.356 85.1337 129.276 85.2092 129.176C85.3146 128.984 85.3408 128.759 85.282 128.549C85.1196 128.168 84.8676 128.056 84.8956 128.017Z" fill="#455A64"/>
<path d="M73.0295 123.582C73.0065 123.775 72.9575 123.963 72.8839 124.142C72.709 124.655 72.4897 125.152 72.2287 125.626C71.3743 127.21 70.1402 128.558 68.6371 129.548C67.134 130.538 65.4087 131.14 63.6159 131.299C63.0775 131.346 62.5359 131.346 61.9975 131.299C61.8078 131.293 61.6196 131.263 61.4375 131.21C61.4375 131.154 62.2831 131.249 63.6215 131.081C65.3658 130.869 67.0373 130.256 68.5046 129.289C69.9718 128.322 71.1948 127.028 72.0775 125.509C72.7327 124.377 72.9791 123.565 73.0295 123.582Z" fill="#455A64"/>
<path d="M97.1203 131.753C97.1203 131.753 96.9747 131.685 96.7451 131.529C96.4242 131.298 96.1244 131.039 95.8491 130.756C94.9281 129.824 94.2095 128.711 93.7383 127.488C93.2671 126.266 93.0534 124.959 93.1107 123.649C93.1235 123.255 93.1741 122.863 93.2618 122.479C93.3234 122.205 93.3626 122.059 93.385 122.065C93.4074 122.07 93.3178 122.675 93.3178 123.655C93.3188 126.227 94.2746 128.708 96.0003 130.616C96.6555 131.338 97.1483 131.708 97.1203 131.753Z" fill="#455A64"/>
<path d="M140.56 132.078C140.744 131.63 140.694 131.809 137.726 129.838C137.726 129.838 141.982 132.638 141.54 131.305C141.157 130.8 140.689 130.366 140.156 130.023C141.276 130.684 141.926 130.756 142.122 130.488C142.458 130.023 140.022 128.248 138.863 127.447C139.922 128.205 141.034 128.888 142.189 129.491C142.878 129.704 142.548 128.897 142.083 128.309C141.618 127.721 138.012 124.249 137.043 123.213C136.951 123.134 136.877 123.036 136.826 122.926C136.775 122.816 136.749 122.696 136.749 122.575C136.749 122.453 136.775 122.334 136.826 122.223C136.877 122.113 136.951 122.015 137.043 121.936C138.779 120.816 139.54 119.03 139.518 118.442C139.499 118.31 139.438 118.187 139.344 118.091C139.251 117.995 139.13 117.932 138.998 117.909C138.866 117.887 138.73 117.907 138.61 117.966C138.491 118.026 138.393 118.122 138.331 118.24C137.892 118.785 137.382 119.267 136.813 119.674C136.372 120.018 135.876 120.285 135.346 120.464C134.73 120.665 131.7 120.497 131.051 120.167L128.984 127.172C128.984 127.172 136.483 130.678 137.905 131.361C139.652 132.19 140.431 132.42 140.56 132.078Z" fill="#FFBE9D"/>
<path d="M136.376 128.801C136.314 128.885 137.289 129.596 138.549 130.397C139.809 131.198 140.867 131.775 140.917 131.691C140.968 131.607 139.993 130.89 138.739 130.095C137.485 129.3 136.432 128.695 136.376 128.801Z" fill="#EB996E"/>
<path d="M137.081 127.428C137.025 127.512 138.022 128.33 139.321 129.259C140.621 130.189 141.696 130.878 141.752 130.799C141.808 130.721 140.817 129.898 139.512 128.968C138.207 128.038 137.143 127.35 137.081 127.428Z" fill="#EB996E"/>
<path d="M137.827 126.041C137.771 126.12 138.7 126.915 139.904 127.811C141.108 128.707 142.144 129.368 142.189 129.289C142.234 129.211 141.321 128.416 140.117 127.52C138.913 126.624 137.888 125.963 137.827 126.041Z" fill="#EB996E"/>
<path d="M61.5599 100.667L67.0591 100.969C67.4486 102.504 67.9695 104.003 68.6159 105.449C73.0455 97.7658 76.4559 87.4674 77.3295 83.329C77.2063 82.9221 77.0551 82.4629 76.8759 81.9514C76.7417 81.1782 76.7646 80.386 76.9431 79.6218C77.0943 78.7034 77.3519 77.4602 77.4247 76.889C77.6655 75.1418 77.9455 74.8618 78.5447 75.0634C79.3735 75.3322 78.2031 79.9746 78.8807 80.0754C79.2503 80.1258 79.6927 78.5354 79.8271 77.2306C79.9615 75.9258 80.5439 71.9162 80.9751 71.6306C81.6079 71.2386 82.1567 71.8602 81.9999 73.1594C81.8431 74.4586 81.6359 78.3954 82.3247 78.4458C83.0135 78.4962 83.5735 71.8434 83.5735 71.8434C83.5735 71.8434 83.4671 70.3986 84.2623 70.4322C85.7015 70.4938 84.5815 77.5106 84.4583 78.177C84.3687 78.6362 85.1191 78.737 85.1863 78.2218C85.2535 77.7066 85.6007 71.5634 87.0623 71.6138C88.1823 71.653 86.1943 77.393 86.8271 78.7258C87.4599 80.0586 87.8967 74.2066 88.9719 74.285C89.3695 74.3186 89.6663 74.397 88.9327 77.7066C88.2167 80.3384 87.3587 82.9294 86.3623 85.4682C84.6823 94.6522 77.1839 124.03 65.4687 118.654C58.9167 115.647 55.8535 100.734 55.8535 100.734L61.5599 100.667Z" fill="#FFBE9D"/>
<path d="M86.3741 85.5194C86.3837 85.4501 86.4026 85.3823 86.4301 85.3178C86.4805 85.1722 86.5421 84.9818 86.6261 84.7578C86.8109 84.2259 87.0629 83.4867 87.3933 82.5179C87.7237 81.5491 88.1213 80.373 88.5133 78.9842C88.7149 78.2954 88.8829 77.545 89.0341 76.7442C89.1125 76.341 89.1853 75.9267 89.2357 75.5011C89.2497 75.2904 89.2497 75.079 89.2357 74.8683C89.2357 74.6499 89.1853 74.4707 89.0117 74.4651C88.8381 74.4595 88.7149 74.5659 88.5917 74.7507C88.4802 74.9484 88.3883 75.1566 88.3173 75.3723C88.1605 75.8147 88.0373 76.2851 87.9141 76.7611C87.7909 77.2371 87.6789 77.7355 87.5333 78.2395C87.4698 78.5155 87.3559 78.7775 87.1973 79.0122C87.1574 79.0582 87.1048 79.0914 87.0461 79.1074C87.0091 79.1156 86.9708 79.1153 86.934 79.1065C86.8971 79.0978 86.8627 79.0809 86.8333 79.057C86.7689 78.998 86.7158 78.9278 86.6765 78.8499C86.6173 78.7123 86.5778 78.5672 86.5589 78.4187C86.5334 77.2891 86.6462 76.1607 86.8949 75.0587C86.9901 74.4987 87.0909 73.9387 87.1637 73.3787C87.1973 73.0931 87.2309 72.8187 87.2365 72.5163C87.2421 72.2139 87.1973 71.8947 87.0797 71.8443C86.9621 71.7939 86.6765 71.9507 86.5197 72.1859C86.3649 72.4343 86.2426 72.7015 86.1557 72.9811C85.9648 73.566 85.8206 74.1652 85.7245 74.7731C85.6181 75.3891 85.5341 76.0163 85.4613 76.6547C85.4333 76.9739 85.3997 77.2931 85.3717 77.6179L85.3269 78.1051C85.3329 78.2091 85.3159 78.3132 85.2772 78.41C85.2385 78.5067 85.179 78.5938 85.1029 78.6651C85.007 78.7351 84.8913 78.7729 84.7725 78.7729C84.6537 78.7729 84.538 78.7351 84.4421 78.6651C84.3878 78.6292 84.3417 78.5822 84.307 78.5271C84.2722 78.4721 84.2496 78.4103 84.2405 78.3458C84.232 78.2864 84.232 78.2261 84.2405 78.1667V78.049L84.3917 77.069C84.4869 76.4083 84.5653 75.7475 84.6269 75.0755C84.6885 74.4035 84.7389 73.7259 84.7501 73.0483C84.7829 72.3774 84.715 71.7054 84.5485 71.0547C84.5099 70.8895 84.4097 70.7453 84.2685 70.6515C84.201 70.6298 84.1283 70.63 84.0609 70.6521C83.9935 70.6742 83.9348 70.7171 83.8933 70.7747C83.712 71.1062 83.6377 71.4856 83.6805 71.8611C83.5573 73.1771 83.4173 74.4707 83.2269 75.7419C83.1317 76.3747 83.0253 77.0074 82.8685 77.629C82.8237 77.7802 82.7789 77.937 82.7229 78.0938C82.6697 78.2839 82.558 78.4524 82.4037 78.5754C82.3355 78.609 82.2579 78.6183 82.1837 78.6021C82.1094 78.5858 82.0429 78.5448 81.9949 78.4858C81.9265 78.414 81.8749 78.328 81.8437 78.2338C81.7833 78.0785 81.7401 77.917 81.7149 77.7522C81.5837 76.5336 81.5724 75.3051 81.6813 74.0843C81.7641 73.5152 81.7959 72.9398 81.7765 72.3651C81.7584 72.1197 81.646 71.8909 81.4629 71.7267C81.4199 71.6999 81.3719 71.6822 81.3219 71.6745C81.2719 71.6668 81.2208 71.6693 81.1717 71.6819C81.1193 71.6995 81.0687 71.722 81.0205 71.7491C80.9701 71.7939 80.9757 71.7491 80.9421 71.8443C80.7396 72.3479 80.5913 72.8716 80.4997 73.4067C80.3877 73.9667 80.2925 74.4763 80.2085 75.0027C80.1245 75.529 80.0461 76.0443 79.9789 76.5595C79.9117 77.0747 79.8781 77.5786 79.7773 78.0826C79.6903 78.575 79.5591 79.0586 79.3853 79.5274C79.3392 79.6468 79.2849 79.7628 79.2229 79.8747C79.1445 79.9811 79.0997 80.1154 78.8869 80.1826C78.8325 80.1926 78.7763 80.1863 78.7254 80.1644C78.6746 80.1424 78.6314 80.1059 78.6013 80.0595C78.5621 79.9948 78.532 79.9251 78.5117 79.8522C78.4866 79.7305 78.4716 79.6069 78.4669 79.4826C78.4669 78.525 78.5957 77.6514 78.6461 76.8058C78.6826 76.4016 78.6826 75.9949 78.6461 75.5907C78.6461 75.4115 78.5621 75.1987 78.4613 75.1595C78.3907 75.1248 78.3131 75.1068 78.2345 75.1068C78.1559 75.1068 78.0783 75.1248 78.0077 75.1595C77.7727 75.4119 77.6271 75.7346 77.5933 76.0779C77.5093 76.4195 77.4757 76.7667 77.4141 77.0971C77.1789 78.4187 76.9325 79.561 76.8149 80.4906C76.7597 80.8995 76.7597 81.3138 76.8149 81.7226C76.8933 82.0586 77.0109 82.3611 77.0725 82.5963C77.1341 82.8315 77.1957 82.9995 77.2349 83.1563C77.2558 83.2163 77.2708 83.2782 77.2797 83.3411C77.2462 83.2868 77.2198 83.2285 77.2013 83.1674L77.0109 82.6074C76.9325 82.3666 76.8149 82.0978 76.7197 81.7283C76.6598 81.3085 76.6598 80.8824 76.7197 80.4626C76.8261 79.5162 77.0501 78.3851 77.2797 77.0579C77.3413 76.7275 77.3749 76.3803 77.4477 76.0219C77.4878 75.8326 77.5383 75.6456 77.5989 75.4619C77.6549 75.2582 77.7771 75.0789 77.9461 74.9523C78.0479 74.8983 78.1613 74.8701 78.2765 74.8701C78.3917 74.8701 78.5051 74.8983 78.6069 74.9523C78.7164 75.0213 78.8064 75.1173 78.8681 75.231C78.9299 75.3447 78.9614 75.4724 78.9597 75.6019C78.9989 76.0228 78.9989 76.4465 78.9597 76.8674C78.9205 77.7186 78.7861 78.6091 78.8085 79.5163C78.8126 79.6236 78.8257 79.7303 78.8477 79.8354C78.8477 79.9418 78.9261 79.9866 78.9149 79.9642C78.9037 79.9418 79.0213 79.8747 79.0661 79.7851C79.1213 79.6857 79.17 79.5828 79.2117 79.477C79.3776 79.0231 79.4995 78.5543 79.5757 78.0771C79.6709 77.5899 79.7045 77.0859 79.7717 76.5651C79.8389 76.0443 79.9061 75.5291 79.9901 74.9971C80.0741 74.4651 80.1693 73.9331 80.2757 73.3899C80.3668 72.8226 80.5247 72.268 80.7461 71.7379C80.7909 71.6489 80.8585 71.5735 80.9421 71.5195C81.0165 71.4786 81.0955 71.4467 81.1773 71.4243C81.2712 71.3974 81.3698 71.391 81.4664 71.4055C81.563 71.42 81.6554 71.455 81.7373 71.5083C81.8673 71.6114 81.9746 71.7403 82.0526 71.8867C82.1307 72.0331 82.1777 72.1941 82.1909 72.3595C82.233 72.6642 82.233 72.9732 82.1909 73.2779C82.1629 73.5635 82.1349 73.8379 82.1181 74.1515C82.009 75.3442 82.0202 76.5449 82.1517 77.7355C82.1757 77.8769 82.2132 78.0156 82.2637 78.1499C82.2805 78.204 82.3092 78.2538 82.3477 78.2955C82.3477 78.2955 82.3477 78.2955 82.3757 78.2955C82.3757 78.4242 82.3757 78.2954 82.3757 78.3458C82.3757 78.3962 82.3757 78.3459 82.3757 78.3011C82.4456 78.2075 82.5004 78.1036 82.5381 77.9931C82.5904 77.8549 82.6352 77.7093 82.6725 77.5563C82.8237 76.9627 82.9245 76.3355 83.0197 75.7083C83.2101 74.4483 83.3501 73.1547 83.4677 71.8443V71.8723C83.4179 71.4107 83.5181 70.9453 83.7533 70.5451C83.8431 70.4307 83.9663 70.3471 84.1058 70.3059C84.2453 70.2648 84.3942 70.2681 84.5317 70.3155C84.6492 70.3806 84.7523 70.4687 84.8351 70.5746C84.9178 70.6804 84.9784 70.8018 85.0133 70.9315C85.1926 71.6201 85.2663 72.3319 85.2317 73.0427C85.2317 73.7371 85.1701 74.4203 85.1085 75.0979C85.0469 75.7755 84.9629 76.4418 84.8677 77.1026C84.8173 77.4386 84.7669 77.7635 84.7165 78.0938C84.6717 78.301 84.6829 78.3067 84.7165 78.3683C84.7554 78.3945 84.8012 78.4085 84.8481 78.4085C84.895 78.4085 84.9408 78.3945 84.9797 78.3683C85.0469 78.3179 85.0581 78.2227 85.0749 78.0379L85.1141 77.5506L85.2149 76.5819C85.2821 75.9435 85.3717 75.3051 85.4781 74.6835C85.5817 74.0591 85.7315 73.4433 85.9261 72.8411C86.0278 72.5367 86.165 72.2453 86.3349 71.9731C86.4274 71.8263 86.5495 71.7004 86.6933 71.6035C86.7731 71.5457 86.8656 71.5079 86.9631 71.4933C87.0605 71.4787 87.16 71.4877 87.2533 71.5195C87.3391 71.5724 87.4115 71.6444 87.4649 71.7298C87.5183 71.8153 87.5513 71.912 87.5613 72.0123C87.5844 72.1698 87.5938 72.3291 87.5893 72.4883C87.5893 72.7963 87.5501 73.0931 87.5165 73.3899C87.4381 73.9499 87.3317 74.5435 87.2309 75.1091C86.9904 76.1728 86.8739 77.2609 86.8837 78.3515C86.8995 78.4686 86.9296 78.5833 86.9733 78.6931C86.9936 78.7328 87.018 78.7703 87.0461 78.8051C87.0461 78.8051 87.0461 78.805 87.0461 78.7658C87.1718 78.5634 87.2645 78.3423 87.3205 78.1106C87.4661 77.6234 87.5837 77.1306 87.7125 76.6491C87.828 76.1699 87.9682 75.697 88.1325 75.2323C88.2101 75.0021 88.3114 74.7806 88.4349 74.5715C88.5017 74.4575 88.589 74.3568 88.6925 74.2747C88.7488 74.2258 88.816 74.1913 88.8885 74.1739C88.9609 74.1625 89.0345 74.1625 89.1069 74.1739C89.1833 74.1815 89.2563 74.2094 89.3183 74.2547C89.3804 74.3 89.4292 74.361 89.4597 74.4315C89.5065 74.5491 89.5312 74.6744 89.5325 74.8011C89.5369 75.0276 89.5237 75.2541 89.4933 75.4787C89.4429 75.9155 89.3589 76.3299 89.2805 76.7387C89.1181 77.5395 88.9389 78.3011 88.7205 78.9787C88.3005 80.3674 87.8805 81.5435 87.5389 82.5011C87.1973 83.4587 86.9061 84.1811 86.7101 84.6962C86.6149 84.9314 86.5365 85.1162 86.4805 85.2562C86.4554 85.3478 86.4197 85.4362 86.3741 85.5194Z" fill="#EB996E"/>
<path d="M55.8027 101.299C56.8667 105.057 58.9499 110.853 61.1843 116.979C61.2548 117.177 61.3822 117.349 61.5505 117.474C61.7188 117.599 61.9204 117.671 62.1297 117.681C62.339 117.691 62.5466 117.639 62.7263 117.531C62.9059 117.423 63.0495 117.264 63.1387 117.075L68.6155 105.488C68.6155 105.488 67.2939 95.9682 67.4059 96.3098C67.5179 96.6514 56.1051 97.5418 56.1051 97.5418L55.8027 101.299Z" fill="#00B5B7"/>
<path d="M68.1464 99.4358C68.1464 99.4806 67.4632 99.6822 66.3824 100.097C64.9699 100.633 63.6091 101.296 62.3168 102.079C61.0262 102.865 59.8081 103.765 58.6768 104.767C57.8088 105.534 57.3104 106.061 57.2768 106.027C57.2432 105.993 57.372 105.87 57.5848 105.618C57.8848 105.268 58.2025 104.933 58.5368 104.616C59.6406 103.553 60.8575 102.614 62.1656 101.816C63.4741 101.027 64.8634 100.382 66.3096 99.8894C66.7468 99.7388 67.1917 99.6116 67.6424 99.5086C67.8054 99.4576 67.9756 99.433 68.1464 99.4358Z" fill="#FAFAFA"/>
<path d="M70.3186 102.326C69.9627 101.967 69.6541 101.564 69.4002 101.127C68.7462 100.108 68.184 99.0318 67.7202 97.9128C67.256 96.7904 66.8943 95.6283 66.6394 94.4408C66.5089 93.955 66.443 93.4542 66.4434 92.9512C66.6104 93.4207 66.7433 93.9017 66.841 94.3904C67.141 95.55 67.5151 96.6891 67.961 97.8008C68.4268 98.9066 68.9617 99.9821 69.5626 101.021C69.8422 101.439 70.0947 101.875 70.3186 102.326Z" fill="#263238"/>
<path d="M73.9697 51.0158C73.0196 52.5817 72.4307 54.3397 72.2456 56.1619C72.0606 57.984 72.2842 59.8245 72.9001 61.5494C73.4601 63.0894 74.3561 64.607 74.1937 66.2422C74.0313 67.8774 72.7545 69.4958 73.2025 71.1086C73.4713 72.0662 74.2889 72.7886 74.6081 73.7182C74.9721 74.8382 74.6081 76.0198 74.4121 77.1678C73.9641 80.1022 74.9049 83.0534 75.1345 86.0102C75.3641 88.967 74.5745 92.4334 71.9313 93.7214C71.1305 94.1134 70.0833 94.2254 69.4169 93.6262C68.5657 92.8702 68.8009 91.5038 69.0361 90.3838C71.3545 79.1838 64.1921 68.2526 65.8273 56.9182C66.0905 55.1038 67.1041 52.0238 68.4089 50.7582C69.7137 49.4926 73.3369 49.6382 74.5689 50.9822" fill="#263238"/>
<path d="M62.9385 83.5081C62.9385 83.5081 63.2801 83.1049 63.7841 82.3097C64.4914 81.1866 64.9867 79.9434 65.2457 78.6417C65.4146 77.745 65.4729 76.831 65.4193 75.9201C65.3213 74.8609 65.2821 73.7972 65.3017 72.7337C65.3351 72.1513 65.4423 71.5755 65.6209 71.0201C65.8255 70.448 66.0843 69.8967 66.3937 69.3737C67.0209 68.3153 67.8105 67.3297 68.5385 66.2769C69.286 65.2819 69.806 64.1349 70.0617 62.9169C70.1858 61.7696 70.1196 60.6098 69.8657 59.4841C69.6538 58.4379 69.5711 57.3697 69.6193 56.3033C69.6859 55.3718 69.8742 54.4531 70.1793 53.5705C70.6071 52.2898 71.2804 51.1047 72.1617 50.0817C72.3958 49.8036 72.6503 49.5434 72.9233 49.3033C73.0098 49.2111 73.1077 49.1302 73.2145 49.0625C73.2145 49.0625 72.8393 49.4265 72.2457 50.1825C70.8319 51.9374 70.0052 54.0922 69.8825 56.3425C69.845 57.3914 69.9372 58.441 70.1569 59.4673C70.424 60.6232 70.4959 61.8157 70.3697 62.9953C70.1042 64.2473 69.5691 65.4263 68.8017 66.4505C68.0681 67.5201 67.2785 68.5001 66.6625 69.5305C66.3595 70.034 66.1081 70.5669 65.9121 71.1209C65.7349 71.6536 65.6276 72.207 65.5929 72.7673C65.5681 73.8191 65.598 74.8714 65.6825 75.9201C65.7269 76.8493 65.6555 77.7805 65.4697 78.6921C65.1891 80.0116 64.6567 81.2646 63.9017 82.3825C63.6973 82.6847 63.4728 82.9728 63.2297 83.2449C63.1425 83.343 63.0449 83.4313 62.9385 83.5081Z" fill="#455A64"/>
<path d="M57.6289 84.3432C57.674 84.2126 57.7322 84.0869 57.8025 83.968C57.9425 83.7048 58.1217 83.3576 58.3625 82.9208C58.8329 82.008 59.5329 80.6808 60.2217 79.0008C61.0643 77.0386 61.5315 74.9359 61.5993 72.8016C61.5996 72.1866 61.5528 71.5725 61.4593 70.9648C61.3641 70.3376 61.2185 69.7048 61.1233 69.044C61.0068 68.3604 61.0221 67.661 61.1681 66.9832C61.3575 66.2873 61.7469 65.6622 62.2881 65.1856C63.3409 64.228 64.6121 63.6008 65.2729 62.4752C65.8454 61.359 66.1828 60.1373 66.2641 58.8856C66.3826 57.7381 66.6422 56.6095 67.0369 55.5256C67.9245 53.1985 69.5061 51.2005 71.5673 49.8024C71.8959 49.5812 72.2382 49.381 72.5921 49.2032C72.7116 49.1316 72.8395 49.0752 72.9729 49.0352C72.9729 49.0352 72.4689 49.304 71.6345 49.8976C70.4585 50.7368 69.4403 51.7777 68.6273 52.972C68.0635 53.7906 67.6044 54.6767 67.2609 55.6096C66.8835 56.6961 66.6391 57.8243 66.5329 58.9696C66.3649 60.1624 66.2305 61.4952 65.5137 62.6768C64.7969 63.8584 63.4865 64.5304 62.4841 65.4768C61.9733 65.92 61.605 66.5046 61.4257 67.1568C61.2896 67.798 61.2763 68.4593 61.3865 69.1056C61.4761 69.7496 61.6161 70.388 61.7113 71.0208C61.8082 71.6431 61.8531 72.2725 61.8457 72.9024C61.7696 75.0758 61.2773 77.2144 60.3953 79.2024C59.8225 80.5458 59.1718 81.8547 58.4465 83.1223L57.8529 84.0016C57.7905 84.123 57.7154 84.2375 57.6289 84.3432Z" fill="#455A64"/>
<path d="M242.911 242.581C242.937 242.499 242.971 242.421 243.012 242.346C243.091 242.178 243.197 241.954 243.326 241.668C243.715 240.793 244.028 239.886 244.261 238.958C244.877 236.55 245.095 232.87 244.183 228.502C243.687 226.12 243.038 223.773 242.239 221.474C241.422 218.982 240.464 216.339 239.686 213.478C238.807 210.493 238.382 207.393 238.426 204.282C238.543 201.029 239.507 197.786 240.565 194.55C241.623 191.313 242.715 188.16 243.04 184.968C243.401 181.907 242.786 178.81 241.282 176.12C239.882 173.538 238.118 171.326 236.802 169.042C235.57 166.919 234.662 164.623 234.108 162.232C233.314 158.77 233.254 155.179 233.935 151.693C234.182 150.417 234.558 149.169 235.055 147.969C235.039 148.053 235.017 148.135 234.987 148.215L234.763 148.926C234.573 149.554 234.321 150.494 234.08 151.726C233.454 155.197 233.548 158.76 234.355 162.193C234.916 164.555 235.828 166.82 237.059 168.913C238.375 171.153 240.145 173.393 241.579 175.986C243.119 178.73 243.752 181.892 243.387 185.018C243.057 188.255 241.959 191.442 240.901 194.673C239.843 197.904 238.891 201.113 238.773 204.31C238.723 207.39 239.138 210.46 240.005 213.416C240.772 216.261 241.713 218.904 242.525 221.407C243.316 223.718 243.952 226.079 244.429 228.474C245.319 232.876 245.067 236.594 244.429 239.008C244.179 239.939 243.844 240.844 243.427 241.713L243.079 242.379C243.031 242.453 242.975 242.52 242.911 242.581Z" fill="#263238"/>
<path d="M238.593 171.298C238.593 171.298 235.916 162.724 240.721 157.707C240.758 157.666 240.806 157.637 240.859 157.622C240.912 157.608 240.968 157.608 241.021 157.623C241.074 157.638 241.121 157.667 241.158 157.708C241.195 157.748 241.22 157.798 241.231 157.852C241.488 159.269 241.808 163.581 238.593 171.298Z" fill="#00B5B7"/>
<path d="M240.2 160.562C240.192 161.093 240.132 161.622 240.021 162.142C239.842 163.234 239.634 164.511 239.41 165.922C239.186 167.333 238.979 168.615 238.806 169.702C238.757 170.231 238.663 170.756 238.526 171.27C238.473 170.74 238.484 170.206 238.559 169.679C238.649 168.699 238.822 167.355 239.063 165.877C239.304 164.398 239.567 163.077 239.774 162.108C239.856 161.578 239.999 161.06 240.2 160.562Z" fill="#263238"/>
<path d="M241.74 191.52C241.74 191.52 243.381 182.689 249.978 180.505C250.03 180.487 250.086 180.483 250.14 180.495C250.193 180.507 250.243 180.534 250.282 180.572C250.322 180.61 250.35 180.659 250.363 180.712C250.377 180.766 250.375 180.822 250.359 180.874C249.922 182.235 248.191 186.194 241.74 191.52Z" fill="#00B5B7"/>
<path d="M248.18 182.773C247.924 183.24 247.624 183.681 247.284 184.089L244.971 187.141L242.675 190.205C242.386 190.649 242.058 191.067 241.695 191.453C241.9 190.961 242.163 190.494 242.479 190.065C243.039 189.241 243.801 188.133 244.719 186.94C245.638 185.747 246.472 184.7 247.105 183.938C247.419 183.512 247.78 183.121 248.18 182.773Z" fill="#263238"/>
<path d="M239.96 213.656C239.96 213.656 238.963 204.73 244.641 200.726C244.685 200.692 244.738 200.671 244.793 200.665C244.848 200.66 244.904 200.671 244.954 200.696C245.003 200.721 245.044 200.76 245.072 200.808C245.1 200.856 245.114 200.911 245.112 200.967C245.095 202.406 244.585 206.695 239.96 213.656Z" fill="#00B5B7"/>
<path d="M243.6 203.426C243.495 203.947 243.336 204.456 243.124 204.943L241.802 208.539C241.309 209.883 240.867 211.098 240.492 212.134C240.348 212.644 240.161 213.14 239.932 213.618C239.983 213.087 240.1 212.564 240.279 212.061C240.553 211.12 240.979 209.821 241.5 208.421C242.02 207.021 242.53 205.761 242.916 204.859C243.095 204.36 243.324 203.879 243.6 203.426Z" fill="#263238"/>
<path d="M244.927 235.932C244.927 235.932 244.255 226.972 250.068 223.175C250.113 223.144 250.167 223.126 250.222 223.123C250.277 223.121 250.332 223.133 250.38 223.16C250.428 223.187 250.468 223.227 250.495 223.275C250.522 223.323 250.535 223.378 250.533 223.433C250.465 224.872 249.805 229.145 244.927 235.932Z" fill="#00B5B7"/>
<path d="M248.914 225.842C248.789 226.359 248.61 226.862 248.382 227.343C247.968 228.362 247.475 229.583 246.932 230.887C246.388 232.192 245.912 233.407 245.498 234.432C245.332 234.938 245.12 235.427 244.865 235.894C244.94 235.364 245.077 234.845 245.274 234.348C245.582 233.419 246.052 232.142 246.624 230.759C247.195 229.375 247.744 228.132 248.164 227.247C248.363 226.753 248.615 226.282 248.914 225.842Z" fill="#263238"/>
<path d="M234.74 163.765C234.74 163.765 226.8 159.599 226.626 152.66C226.626 152.606 226.64 152.552 226.667 152.505C226.695 152.458 226.734 152.42 226.782 152.393C226.829 152.367 226.883 152.354 226.938 152.356C226.992 152.357 227.045 152.374 227.091 152.403C228.272 153.22 231.554 156.043 234.74 163.765Z" fill="#00B5B7"/>
<path d="M228.278 155.047C228.651 155.428 228.983 155.846 229.27 156.296C229.919 157.186 230.675 158.239 231.509 159.398L233.749 162.489C234.091 162.896 234.394 163.333 234.657 163.794C234.247 163.453 233.88 163.064 233.565 162.635C232.932 161.884 232.103 160.809 231.229 159.594C230.356 158.379 229.589 157.253 229.062 156.43C228.754 155.997 228.491 155.534 228.278 155.047Z" fill="#263238"/>
<path d="M243.292 182.175C243.292 182.175 235.094 178.507 234.517 171.58C234.512 171.525 234.523 171.471 234.547 171.422C234.571 171.373 234.609 171.332 234.655 171.303C234.701 171.274 234.755 171.258 234.809 171.258C234.864 171.257 234.918 171.272 234.965 171.3C236.191 172.045 239.635 174.654 243.292 182.175Z" fill="#00B5B7"/>
<path d="M236.319 173.863C236.714 174.219 237.071 174.615 237.383 175.045L239.814 178.007L242.25 180.958C242.615 181.345 242.944 181.763 243.235 182.207C242.806 181.89 242.415 181.524 242.071 181.115C241.399 180.398 240.503 179.379 239.556 178.22C238.61 177.061 237.781 175.98 237.199 175.19C236.857 174.782 236.562 174.337 236.319 173.863Z" fill="#263238"/>
<path d="M238.559 202.72C238.559 202.72 232.959 195.72 235.575 189.28C235.595 189.23 235.63 189.186 235.674 189.153C235.718 189.121 235.77 189.101 235.824 189.097C235.879 189.092 235.933 189.103 235.982 189.127C236.031 189.151 236.072 189.189 236.101 189.235C236.879 190.45 238.744 194.348 238.559 202.72Z" fill="#00B5B7"/>
<path d="M236.14 192.125C236.332 192.622 236.471 193.139 236.554 193.665C236.79 194.74 237.064 196.006 237.366 197.406C237.669 198.806 237.954 200.066 238.19 201.141C238.339 201.651 238.443 202.174 238.498 202.703C238.252 202.227 238.064 201.723 237.938 201.203C237.663 200.256 237.327 198.963 237.014 197.473C236.7 195.983 236.454 194.673 236.297 193.71C236.187 193.189 236.134 192.657 236.14 192.125Z" fill="#263238"/>
<path d="M244.16 226.862C244.16 226.862 236.023 223.059 235.564 216.126C235.559 216.071 235.569 216.016 235.593 215.966C235.618 215.916 235.656 215.874 235.703 215.845C235.751 215.816 235.805 215.801 235.861 215.801C235.916 215.801 235.971 215.817 236.018 215.846C237.222 216.614 240.621 219.285 244.16 226.862Z" fill="#00B5B7"/>
<path d="M237.311 218.434C237.695 218.801 238.044 219.204 238.352 219.638L240.732 222.634L243.118 225.63C243.476 226.021 243.799 226.445 244.081 226.895C243.664 226.568 243.288 226.192 242.961 225.775C242.295 225.047 241.421 224.011 240.491 222.835C239.562 221.659 238.755 220.567 238.184 219.766C237.842 219.358 237.549 218.91 237.311 218.434Z" fill="#263238"/>
<path d="M260.349 191.559C260.349 191.559 260.349 191.626 260.349 191.755C260.349 191.883 260.349 192.096 260.349 192.315C260.349 192.875 260.293 193.586 260.254 194.493C260.153 196.408 260.002 199.079 259.829 202.271C259.269 205.519 257.589 209.12 255.349 212.62C253.719 215.196 251.989 217.537 250.533 219.715C249.204 221.627 248.01 223.629 246.96 225.707C246.265 227.112 245.702 228.578 245.28 230.087C245.14 230.619 245.028 231.039 244.966 231.324C244.94 231.473 244.9 231.619 244.849 231.761C244.851 231.61 244.869 231.46 244.905 231.313C244.944 231.022 245.028 230.596 245.157 230.053C245.533 228.518 246.068 227.026 246.753 225.601C247.793 223.507 248.986 221.491 250.32 219.57C251.787 217.375 253.484 215.028 255.108 212.469C257.32 208.986 258.966 205.441 259.588 202.243C259.812 199.057 259.997 196.391 260.148 194.476C260.221 193.569 260.282 192.847 260.327 192.303C260.327 192.079 260.366 191.889 260.383 191.743C260.364 191.683 260.353 191.621 260.349 191.559Z" fill="#263238"/>
<path d="M255.505 211.976C255.505 211.976 258.949 203.688 254.62 198.25C254.587 198.207 254.542 198.173 254.49 198.154C254.439 198.134 254.383 198.13 254.329 198.14C254.275 198.151 254.225 198.176 254.184 198.213C254.144 198.25 254.114 198.298 254.099 198.351C253.713 199.74 253.002 204.002 255.505 211.976Z" fill="#00B5B7"/>
<path d="M254.877 201.145C255.026 201.656 255.118 202.181 255.152 202.713C255.275 203.687 255.409 205.037 255.516 206.532C255.622 208.027 255.673 209.382 255.673 210.368C255.706 210.9 255.674 211.434 255.577 211.958C255.481 211.435 255.434 210.905 255.437 210.373C255.365 209.253 255.275 207.982 255.18 206.554C255.085 205.126 254.995 203.833 254.917 202.735C254.851 202.207 254.838 201.675 254.877 201.145Z" fill="#263238"/>
<g opacity="0.3">
<path opacity="0.3" d="M255.505 211.976C255.505 211.976 258.949 203.688 254.62 198.25C254.587 198.207 254.542 198.173 254.49 198.154C254.439 198.134 254.383 198.13 254.329 198.14C254.275 198.151 254.225 198.176 254.184 198.213C254.144 198.25 254.114 198.298 254.099 198.351C253.713 199.74 253.002 204.002 255.505 211.976Z" fill="black"/>
</g>
<path d="M244.837 231.964C244.837 231.964 247.598 223.419 242.838 218.356C242.801 218.316 242.754 218.287 242.701 218.271C242.649 218.256 242.593 218.256 242.541 218.27C242.488 218.285 242.44 218.314 242.403 218.353C242.365 218.393 242.34 218.443 242.329 218.496C242.06 219.907 241.696 224.219 244.837 231.964Z" fill="#00B5B7"/>
<path d="M243.331 221.201C243.525 221.699 243.66 222.218 243.734 222.747C243.936 223.704 244.177 225.043 244.406 226.521C244.636 228 244.793 229.349 244.877 230.329C244.949 230.858 244.959 231.394 244.905 231.925C244.772 231.411 244.682 230.886 244.636 230.357C244.473 229.265 244.283 227.988 244.076 226.572C243.869 225.155 243.667 223.878 243.516 222.786C243.402 222.265 243.34 221.734 243.331 221.201Z" fill="#263238"/>
<g opacity="0.3">
<path opacity="0.3" d="M244.837 231.962C244.837 231.962 247.598 223.417 242.838 218.354C242.801 218.314 242.754 218.285 242.701 218.269C242.649 218.254 242.593 218.254 242.541 218.268C242.488 218.283 242.44 218.312 242.403 218.352C242.365 218.391 242.34 218.441 242.329 218.494C242.06 219.905 241.696 224.217 244.837 231.962Z" fill="black"/>
</g>
<path d="M259.896 201.846C259.896 201.846 267.248 196.694 266.509 189.783C266.503 189.729 266.483 189.677 266.45 189.634C266.416 189.591 266.372 189.557 266.321 189.538C266.27 189.518 266.215 189.513 266.161 189.522C266.107 189.532 266.057 189.557 266.016 189.593C264.947 190.556 262.08 193.759 259.896 201.846Z" fill="#00B5B7"/>
<g opacity="0.3">
<path opacity="0.3" d="M259.896 201.846C259.896 201.846 267.248 196.694 266.509 189.783C266.503 189.729 266.483 189.677 266.45 189.634C266.416 189.591 266.372 189.557 266.321 189.538C266.27 189.518 266.215 189.513 266.161 189.522C266.107 189.532 266.057 189.557 266.016 189.593C264.947 190.556 262.08 193.759 259.896 201.846Z" fill="black"/>
</g>
<path d="M265.177 192.365C265.031 192.878 264.826 193.372 264.566 193.838C264.146 194.723 263.536 195.932 262.825 197.254C262.114 198.576 261.43 199.746 260.904 200.575C260.645 201.04 260.331 201.473 259.969 201.863C260.165 201.37 260.409 200.898 260.697 200.452C261.223 199.483 261.845 198.352 262.528 197.092L264.354 193.732C264.583 193.25 264.858 192.793 265.177 192.365Z" fill="#263238"/>
<path d="M247.806 223.49C247.806 223.49 256.676 222.107 259.05 215.577C259.07 215.527 259.075 215.471 259.065 215.418C259.054 215.364 259.03 215.315 258.993 215.274C258.957 215.234 258.91 215.204 258.858 215.188C258.806 215.173 258.75 215.172 258.698 215.185C257.314 215.6 253.305 217.196 247.806 223.49Z" fill="#00B5B7"/>
<g opacity="0.3">
<path opacity="0.3" d="M247.806 223.49C247.806 223.49 256.676 222.107 259.05 215.577C259.07 215.527 259.075 215.471 259.065 215.418C259.054 215.364 259.03 215.315 258.993 215.274C258.957 215.234 258.91 215.204 258.858 215.188C258.806 215.173 258.75 215.172 258.698 215.185C257.314 215.6 253.305 217.196 247.806 223.49Z" fill="black"/>
</g>
<path d="M256.72 217.309C256.361 217.701 255.959 218.052 255.522 218.356C254.755 218.972 253.674 219.789 252.459 220.663C251.243 221.537 250.107 222.281 249.267 222.797C248.829 223.102 248.355 223.352 247.855 223.541C248.253 223.187 248.682 222.87 249.138 222.595L252.263 220.389L255.382 218.149C255.797 217.822 256.246 217.54 256.72 217.309Z" fill="#263238"/>
<path d="M239.338 239.82L236.751 257.236H252.879L250.79 239.82H239.338Z" fill="#455A64"/>
<path d="M251.439 245.213C251.439 245.308 248.527 245.381 244.938 245.381C241.348 245.381 238.431 245.308 238.431 245.213C240.595 245.047 242.767 244.991 244.938 245.045C247.107 244.991 249.277 245.047 251.439 245.213Z" fill="#263238"/>
<path d="M251.753 246.602C251.753 246.697 248.746 246.77 245.033 246.77C241.321 246.77 238.313 246.697 238.313 246.602C238.313 246.506 241.321 246.434 245.033 246.434C248.746 246.434 251.753 246.506 251.753 246.602Z" fill="#263238"/>
<path d="M189.04 70.8629C189.04 70.8629 188.889 70.8629 188.597 70.8629C188.172 70.8376 187.746 70.8376 187.321 70.8629C185.676 70.9592 184.06 71.3381 182.544 71.9829C180.14 72.9903 178.049 74.6198 176.485 76.7037C175.52 78.0049 174.802 79.4722 174.368 81.0325C173.388 84.7493 173.917 88.7029 175.841 92.0309C176.365 92.9523 177.005 93.8029 177.745 94.5621C178.491 95.3664 179.36 96.0469 180.321 96.5781C181.306 97.1325 182.421 97.4129 183.552 97.3901C184.717 97.3761 185.834 96.9243 186.682 96.1245C187.092 95.6952 187.413 95.1893 187.627 94.6359C187.842 94.0824 187.945 93.4922 187.931 92.8989C187.922 91.6662 187.531 90.4666 186.811 89.4661C185.361 87.4221 183.008 86.0501 180.505 85.3109C177.91 84.5819 175.169 84.5433 172.553 85.1989C171.218 85.5462 169.932 86.0578 168.723 86.7221C167.503 87.4108 166.394 88.2813 165.436 89.3037C165.206 89.5669 164.943 89.8077 164.736 90.0989L164.103 90.9501C163.718 91.5499 163.374 92.1748 163.073 92.8205C162.474 94.1315 162.064 95.5212 161.857 96.9477C161.451 99.7974 161.838 102.704 162.977 105.348C164.066 107.931 165.962 110.092 168.381 111.508C169.554 112.178 170.864 112.574 172.212 112.667C173.533 112.741 174.848 112.425 175.992 111.76C177.127 111.132 178.025 110.148 178.545 108.96C179.036 107.788 179.07 106.476 178.641 105.28C178.198 104.127 177.474 103.103 176.535 102.301C175.624 101.514 174.574 100.904 173.438 100.504C171.224 99.8055 168.854 99.7646 166.617 100.386C164.524 100.953 162.601 102.024 161.017 103.505C159.574 104.888 158.475 106.589 157.809 108.472C156.642 111.741 156.696 115.321 157.96 118.552C158.946 120.965 160.532 123.086 162.569 124.712C163.851 125.741 165.28 126.574 166.808 127.182C167.334 127.378 167.743 127.524 168.023 127.602L168.437 127.736C168.437 127.736 168.292 127.708 168.012 127.63C167.598 127.519 167.19 127.387 166.791 127.232C165.243 126.651 163.796 125.831 162.501 124.802C160.43 123.176 158.812 121.046 157.803 118.614C156.517 115.352 156.451 111.735 157.618 108.428C158.286 106.515 159.397 104.788 160.861 103.388C162.467 101.877 164.418 100.781 166.545 100.196C168.829 99.5584 171.248 99.5973 173.511 100.308C174.68 100.715 175.761 101.34 176.697 102.15C177.673 102.978 178.425 104.04 178.881 105.236C179.342 106.484 179.322 107.859 178.825 109.094C178.273 110.329 177.336 111.353 176.154 112.012C174.968 112.703 173.606 113.034 172.234 112.964C170.853 112.867 169.513 112.458 168.314 111.765C165.839 110.33 163.896 108.131 162.776 105.499C161.612 102.807 161.213 99.8462 161.622 96.9421C161.836 95.4868 162.254 94.069 162.865 92.7309C163.173 92.0714 163.525 91.4335 163.918 90.8213L164.568 89.9533C164.775 89.6565 165.044 89.3933 165.279 89.1357C166.26 88.0939 167.393 87.2065 168.639 86.5037C169.876 85.8267 171.193 85.3075 172.559 84.9581C175.224 84.2902 178.017 84.3307 180.662 85.0757C183.216 85.8373 185.607 87.2317 187.113 89.3485C187.87 90.3908 188.282 91.6442 188.289 92.9325C188.317 94.2003 187.839 95.427 186.962 96.3429C186.066 97.1839 184.887 97.6576 183.658 97.6701C182.482 97.6968 181.321 97.4046 180.298 96.8245C179.315 96.2821 178.426 95.5843 177.666 94.7581C176.917 93.9819 176.267 93.1146 175.734 92.1765C173.776 88.7867 173.245 84.7582 174.256 80.9765C174.704 79.3981 175.439 77.9156 176.423 76.6029C178.016 74.5031 180.143 72.8691 182.583 71.8709C184.112 71.2385 185.74 70.8821 187.393 70.8181C187.822 70.7898 188.252 70.7898 188.681 70.8181L189.04 70.8629Z" fill="#263238"/>
<path d="M207.738 126.896H129.221V187.455H207.738V126.896Z" fill="#00B5B7"/>
<path d="M129.221 126.896L143.725 140.426H220.91L207.738 126.896H129.221Z" fill="#00B5B7"/>
<path d="M129.221 126.896L207.761 126.756H207.822L207.867 126.795L220.904 140.185L221.038 140.325L221.279 140.571H220.932L143.747 140.509H143.714L129.221 126.896L143.781 140.336H143.719L220.904 140.28L220.803 140.526L220.663 140.386L207.632 126.997L207.733 127.041L129.221 126.896Z" fill="#263238"/>
<path d="M152.808 154.824C152.383 154.84 151.981 155.021 151.688 155.33C151.395 155.639 151.236 156.051 151.243 156.477C151.251 156.902 151.426 157.308 151.729 157.606C152.033 157.904 152.442 158.071 152.867 158.071C153.293 158.071 153.701 157.904 154.005 157.606C154.309 157.308 154.483 156.902 154.491 156.477C154.499 156.051 154.339 155.639 154.046 155.33C153.754 155.021 153.351 154.84 152.926 154.824" fill="#263238"/>
<path d="M171.361 154.824C170.937 154.84 170.537 155.022 170.246 155.33C169.954 155.638 169.796 156.048 169.804 156.472C169.812 156.896 169.986 157.3 170.289 157.597C170.591 157.894 170.998 158.06 171.422 158.06C171.846 158.06 172.253 157.894 172.556 157.597C172.858 157.3 173.032 156.896 173.04 156.472C173.048 156.048 172.89 155.638 172.599 155.33C172.308 155.022 171.907 154.84 171.484 154.824" fill="#263238"/>
<path d="M171.467 169.316C171.143 168.079 170.617 166.904 169.91 165.838C169.123 164.699 168.114 163.731 166.942 162.993C165.528 162.055 163.879 161.533 162.183 161.487C160.487 161.44 158.812 161.871 157.349 162.73C156.141 163.405 155.08 164.315 154.23 165.407C153.464 166.433 152.876 167.58 152.488 168.801C152.493 168.71 152.508 168.619 152.533 168.532C152.587 168.279 152.656 168.031 152.74 167.787C153.047 166.887 153.495 166.042 154.067 165.284C154.912 164.141 155.986 163.187 157.22 162.484C158.721 161.588 160.446 161.137 162.193 161.185C163.94 161.233 165.638 161.776 167.087 162.753C168.28 163.519 169.298 164.526 170.078 165.709C170.61 166.499 171.012 167.369 171.271 168.285C171.34 168.534 171.394 168.786 171.433 169.041C171.452 169.132 171.464 169.223 171.467 169.316Z" fill="#263238"/>
<path opacity="0.5" d="M129.399 127.562L143.287 145.169H207.738V140.426H143.724L129.399 127.562Z" fill="black"/>
<path d="M192.254 187.321C192.176 187.321 192.108 176.788 192.108 163.801C192.108 150.815 192.176 140.281 192.254 140.281C192.332 140.281 192.405 150.809 192.405 163.801C192.405 176.793 192.338 187.321 192.254 187.321Z" fill="#263238"/>
<path d="M204.586 173.59H197.664V181.413H204.586V173.59Z" fill="#F5F5F5"/>
<path d="M129.22 126.896L113.104 140.426H129.22V126.896Z" fill="#00B5B7"/>
<g opacity="0.4">
<path opacity="0.4" d="M129.22 126.896L113.104 140.426H129.22V126.896Z" fill="black"/>
</g>
<path d="M210.057 187.455H119.779V257.086H210.057V187.455Z" fill="#00B5B7"/>
<path opacity="0.3" d="M210.057 187.455H119.779V257.086H210.057V187.455Z" fill="black"/>
<path d="M187.438 256.592C187.359 256.592 187.292 241.074 187.292 221.934C187.292 202.793 187.359 187.27 187.438 187.27C187.516 187.27 187.583 202.787 187.583 221.934C187.583 241.08 187.516 256.592 187.438 256.592Z" fill="#263238"/>
<path d="M202.401 241.238H195.479V249.062H202.401V241.238Z" fill="#F5F5F5"/>
<path d="M157.573 187.639H147.319V202.495H157.573V187.639Z" fill="#263238"/>
<path d="M157.573 242.021H147.319V256.878H157.573V242.021Z" fill="#263238"/>
<path d="M209.273 187.455H209.038H208.36L205.756 187.483L196.163 187.528L164.529 187.601L132.883 187.561L123.296 187.517L120.692 187.489H120.009H119.779H120.009H120.692L123.296 187.461L132.883 187.416L164.529 187.371L196.163 187.416L205.756 187.461L208.36 187.489H209.038L209.273 187.455Z" fill="#263238"/>
<path d="M54.5547 66.9025L44.7211 64.4833H44.7939C42.2548 66.0984 39.3187 66.9802 36.3099 67.0313C34.5286 67.0394 32.7562 66.7809 31.0515 66.2641C28.0544 65.3018 25.3955 63.5016 23.389 61.0763C21.3825 58.651 20.1122 55.702 19.7283 52.5777C19.4268 50.2149 19.6487 47.8146 20.3784 45.5472C21.1081 43.2797 22.3277 41.2005 23.9507 39.4569C24.8038 38.5198 25.76 37.682 26.8011 36.9593C27.3275 36.6289 27.8539 36.2873 28.4027 36.0017L29.2371 35.5985L29.6515 35.3969L30.0883 35.2401C32.3369 34.3685 34.7491 33.9996 37.1555 34.1593C40.3805 34.3687 43.4714 35.5281 46.0385 37.4913C48.6056 39.4546 50.5342 42.1338 51.5811 45.1913C52.1627 46.9017 52.4689 48.6937 52.4883 50.5001C52.5023 53.5023 51.6864 56.45 50.1307 59.0177V58.9281C52.8635 63.8617 54.2411 66.3537 54.5491 66.9025C54.2299 66.3425 52.8019 63.8953 49.9739 59.0121V58.9673V58.9225C51.4738 56.3797 52.2484 53.4746 52.2139 50.5225C52.1879 48.745 51.8778 46.983 51.2955 45.3033C50.26 42.3083 48.3639 39.6854 45.8447 37.7628C43.3256 35.8403 40.2952 34.7037 37.1331 34.4953C34.7741 34.3416 32.41 34.7047 30.2059 35.5593L29.7803 35.7105L29.3715 35.9121L28.5539 36.3041C27.9939 36.5897 27.5011 36.9201 26.9803 37.2449C25.9593 37.9482 25.0202 38.7634 24.1803 39.6753C22.587 41.3869 21.3894 43.4278 20.6723 45.6536C19.9552 47.8794 19.7362 50.2355 20.0307 52.5553C20.5499 56.8053 22.7303 60.677 26.0955 63.3241C27.6 64.5162 29.3074 65.4268 31.1355 66.0121C32.8096 66.5296 34.552 66.7921 36.3043 66.7905C39.277 66.7587 42.1835 65.9081 44.7043 64.3321H44.7379H44.7995L54.5547 66.9025Z" fill="#263238"/>
<path d="M34.7194 43.2864L35.2178 51.5184C35.2377 51.8431 35.3756 52.1493 35.6056 52.3794C35.8357 52.6094 36.1419 52.7473 36.4666 52.7672C36.8082 52.7865 37.1443 52.6743 37.4057 52.4535C37.6671 52.2326 37.8341 51.9201 37.8722 51.58L38.785 43.3312C38.8009 43.1836 38.7852 43.0344 38.739 42.8933C38.6929 42.7522 38.6172 42.6226 38.5171 42.513C38.4171 42.4034 38.2948 42.3163 38.1585 42.2575C38.0222 42.1987 37.875 42.1696 37.7266 42.172H35.7274C35.5871 42.1762 35.4491 42.2087 35.3217 42.2675C35.1943 42.3264 35.0801 42.4104 34.9859 42.5144C34.8918 42.6185 34.8196 42.7406 34.7738 42.8732C34.728 43.0059 34.7095 43.1464 34.7194 43.2864Z" fill="#00B5B7"/>
<path d="M38.6392 57.3652C38.5139 57.7412 38.2799 58.0717 37.9668 58.3148C37.6538 58.5579 37.2757 58.7028 36.8803 58.7311C36.4849 58.7593 36.0901 58.6698 35.7456 58.4737C35.4011 58.2777 35.1224 57.9839 34.9449 57.6295C34.7673 57.2751 34.6987 56.8761 34.7479 56.4828C34.797 56.0895 34.9617 55.7195 35.221 55.4198C35.4803 55.12 35.8227 54.9038 36.2048 54.7985C36.587 54.6933 36.9918 54.7037 37.368 54.8284C37.6182 54.9113 37.8495 55.0427 38.0488 55.2151C38.2481 55.3876 38.4115 55.5976 38.5296 55.8332C38.6476 56.0688 38.7181 56.3254 38.7369 56.5883C38.7557 56.8512 38.7225 57.1152 38.6392 57.3652Z" fill="#00B5B7"/>
</svg>
