<?xml version="1.0" encoding="UTF-8"?>
<svg version="1.1" xmlns="http://www.w3.org/2000/svg" width="86" height="37">
<path d="M0 0 C28.38 0 56.76 0 86 0 C86 12.21 86 24.42 86 37 C57.62 37 29.24 37 0 37 C0 24.79 0 12.58 0 0 Z " fill="#FBFDFD" transform="translate(0,0)"/>
<path d="M0 0 C11.55 0 23.1 0 35 0 C35 11.22 35 22.44 35 34 C23.45 34 11.9 34 0 34 C0 22.78 0 11.56 0 0 Z " fill="#1B76D2" transform="translate(48,1)"/>
<path d="M0 0 C0.66 0 1.32 0 2 0 C2.31026101 4.66264949 2.6132401 9.32569289 2.90942383 13.98925781 C3.01125322 15.57630224 3.11508577 17.16321943 3.22094727 18.75 C3.37259943 21.02834231 3.51708638 23.3070422 3.66015625 25.5859375 C3.70906509 26.29744965 3.75797394 27.00896179 3.80836487 27.74203491 C4.11387171 32.77225659 4.11387171 32.77225659 3 35 C17.52 35 32.04 35 47 35 C47 23.45 47 11.9 47 0 C59.87 0 72.74 0 86 0 C86 12.21 86 24.42 86 37 C57.62 37 29.24 37 0 37 C0 24.79 0 12.58 0 0 Z M48 1 C48 12.22 48 23.44 48 35 C59.55 35 71.1 35 83 35 C83 23.78 83 12.56 83 1 C71.45 1 59.9 1 48 1 Z " fill="#8DC0E0" transform="translate(0,0)"/>
<path d="M0 0 C11.55 0 23.1 0 35 0 C35 11.22 35 22.44 35 34 C23.45 34 11.9 34 0 34 C0 22.78 0 11.56 0 0 Z M1 2 C1 11.9 1 21.8 1 32 C5.39663033 32.02291238 9.79305488 32.04283833 14.18969727 32.05493164 C15.68644918 32.05997121 17.18319616 32.06680287 18.67993164 32.07543945 C20.82699807 32.08752159 22.97399962 32.09323191 25.12109375 32.09765625 C26.4145874 32.10289307 27.70808105 32.10812988 29.04077148 32.11352539 C31.88652404 32.33996932 31.88652404 32.33996932 33 31 C33.09993532 28.9394469 33.13080906 26.8754741 33.1328125 24.8125 C33.13410156 23.55695312 33.13539062 22.30140625 33.13671875 21.0078125 C33.13462402 20.35071289 33.1325293 19.69361328 33.13037109 19.01660156 C33.12502234 17.00838665 33.13031691 15.00039541 33.13671875 12.9921875 C33.13542969 11.73664062 33.13414063 10.48109375 33.1328125 9.1875 C33.13112061 7.44533203 33.13112061 7.44533203 33.12939453 5.66796875 C33.30337474 3.07936716 33.30337474 3.07936716 32 2 C29.70848583 1.91209025 27.41427476 1.89305962 25.12109375 1.90234375 C24.4344313 1.9037587 23.74776886 1.90517365 23.04029846 1.90663147 C20.83932199 1.91224521 18.63844591 1.92479993 16.4375 1.9375 C14.94856917 1.94251324 13.45963676 1.94707645 11.97070312 1.95117188 C8.31373195 1.96136979 4.65697883 1.98094221 1 2 Z " fill="#2C71B6" transform="translate(48,1)"/>
<path d="M0 0 C1.65 0 3.3 0 5 0 C5 4.95 5 9.9 5 15 C3.68 14.67 2.36 14.34 1 14 C1.33 11.69 1.66 9.38 2 7 C0.35 7.66 -1.3 8.32 -3 9 C-3 7.68 -3 6.36 -3 5 C-5.64 5 -8.28 5 -11 5 C-11 4.34 -11 3.68 -11 3 C-10.28972656 2.86722656 -9.57945313 2.73445313 -8.84765625 2.59765625 C-7.92855469 2.42105469 -7.00945313 2.24445312 -6.0625 2.0625 C-4.68771484 1.80146484 -4.68771484 1.80146484 -3.28515625 1.53515625 C-1.04710156 1.22285012 -1.04710156 1.22285012 0 0 Z " fill="#5087BF" transform="translate(21,18)"/>
<path d="M0 0 C2.6875 0.1875 2.6875 0.1875 6 1 C6.680625 1.86625 7.36125 2.7325 8.0625 3.625 C11.76234593 6.6163648 13.1723096 6.18913883 17.8125 5.8125 C19.87819055 5.56718492 21.94217222 5.30430543 24 5 C24.33 5.66 24.66 6.32 25 7 C11.68539326 11.43820225 11.68539326 11.43820225 8 10 C6.83078597 8.25898057 5.91939335 6.46386059 4.98046875 4.58984375 C4.07411765 2.77395314 4.07411765 2.77395314 1.75 2.0625 C0.88375 2.0315625 0.88375 2.0315625 0 2 C0 1.34 0 0.68 0 0 Z " fill="#2C76C2" transform="translate(13,7)"/>
<path d="M0 0 C0 4.29 0 8.58 0 13 C-0.99 13 -1.98 13 -3 13 C-3 9.7 -3 6.4 -3 3 C-3.99 3 -4.98 3 -6 3 C-6 2.34 -6 1.68 -6 1 C-4 0 -4 0 0 0 Z " fill="#C3E7F7" transform="translate(68,11)"/>
<path d="M0 0 C0.33 0.66 0.66 1.32 1 2 C-11.375 6.125 -11.375 6.125 -16 5 C-16 4.67 -16 4.34 -16 4 C-14.5459375 3.814375 -14.5459375 3.814375 -13.0625 3.625 C-11.5465625 3.315625 -11.5465625 3.315625 -10 3 C-9.67 2.34 -9.34 1.68 -9 1 C-5.99083491 -0.07470182 -3.17106439 -0.08808512 0 0 Z " fill="#538CBF" transform="translate(37,12)"/>
<path d="M0 0 C3.63 0 7.26 0 11 0 C11.33 0.99 11.66 1.98 12 3 C10.35 3.66 8.7 4.32 7 5 C7 3.68 7 2.36 7 1 C4.69 1 2.38 1 0 1 C0 0.67 0 0.34 0 0 Z " fill="#98BFDE" transform="translate(11,22)"/>
<path d="M0 0 C2.875 0.3125 2.875 0.3125 6 1 C6.66 1.99 7.32 2.98 8 4 C7.34 4.66 6.68 5.32 6 6 C5.34 5.01 4.68 4.02 4 3 C1.94074861 2.27617533 1.94074861 2.27617533 0 2 C0 1.34 0 0.68 0 0 Z " fill="#719BC6" transform="translate(13,7)"/>
<path d="M0 0 C0.66 1.32 1.32 2.64 2 4 C3.65 4 5.3 4 7 4 C7 4.33 7 4.66 7 5 C4.69 5.66 2.38 6.32 0 7 C-1.04449911 3.86650268 -0.93423645 3.01031744 0 0 Z " fill="#CFF0FD" transform="translate(19,13)"/>
</svg>
