<svg xmlns="http://www.w3.org/2000/svg" xmlns:xlink="http://www.w3.org/1999/xlink" width="750.018" height="271.96" viewBox="0 0 750.018 271.96">
  <defs>
    <linearGradient id="linear-gradient" x1="0.5" x2="0.5" y2="1" gradientUnits="objectBoundingBox">
      <stop offset="0" stop-color="#fff"/>
      <stop offset="1" stop-color="#effaff"/>
    </linearGradient>
    <linearGradient id="linear-gradient-2" x1="0.5" x2="0.5" y2="1" gradientUnits="objectBoundingBox">
      <stop offset="0" stop-color="#e8f2ff"/>
      <stop offset="1" stop-color="#fff"/>
    </linearGradient>
    <clipPath id="clip-path">
      <rect id="Rectangle_9186" data-name="Rectangle 9186" width="32.277" height="53.303" fill="none"/>
    </clipPath>
    <clipPath id="clip-path-2">
      <rect id="Rectangle_9323" data-name="Rectangle 9323" width="140.142" height="195.445" fill="none"/>
    </clipPath>
    <clipPath id="clip-path-3">
      <rect id="Rectangle_9320" data-name="Rectangle 9320" width="9.005" height="18.823" fill="none"/>
    </clipPath>
    <clipPath id="clip-path-4">
      <rect id="Rectangle_9324" data-name="Rectangle 9324" width="82.514" height="77.015" transform="translate(25.747 13.737)" fill="none"/>
    </clipPath>
    <clipPath id="clip-path-5">
      <rect id="Rectangle_9325" data-name="Rectangle 9325" width="12.339" height="32.278" transform="translate(55.813 29.572)" fill="none"/>
    </clipPath>
    <clipPath id="clip-path-6">
      <rect id="Rectangle_9326" data-name="Rectangle 9326" width="12.12" height="12.12" transform="translate(59.444 66.751)" fill="none"/>
    </clipPath>
    <clipPath id="clip-path-7">
      <rect id="Rectangle_9327" data-name="Rectangle 9327" width="33.209" height="33.432" transform="translate(1.267 1.606)" fill="none"/>
    </clipPath>
    <clipPath id="clip-path-8">
      <rect id="Rectangle_9328" data-name="Rectangle 9328" width="7.442" height="12.706" transform="translate(18.066 7.839)" fill="none"/>
    </clipPath>
    <clipPath id="clip-path-9">
      <rect id="Rectangle_9329" data-name="Rectangle 9329" width="4.893" height="4.893" transform="translate(15.4 22.274)" fill="none"/>
    </clipPath>
    <clipPath id="clip-path-10">
      <rect id="Rectangle_9330" data-name="Rectangle 9330" width="26.224" height="26.151" transform="translate(94.227 5.267)" fill="none"/>
    </clipPath>
    <clipPath id="clip-path-11">
      <rect id="Rectangle_9331" data-name="Rectangle 9331" width="5.271" height="10.1" transform="translate(101.207 10.179)" fill="none"/>
    </clipPath>
    <clipPath id="clip-path-12">
      <rect id="Rectangle_9332" data-name="Rectangle 9332" width="3.822" height="3.822" transform="translate(104.729 21.633)" fill="none"/>
    </clipPath>
  </defs>
  <g id="Group_84211" data-name="Group 84211" transform="translate(-276 -153.116)">
    <g id="Group_84161" data-name="Group 84161" transform="translate(559.546 169.963)">
      <g id="Group_84162" data-name="Group 84162" transform="translate(-526.546 -241.229)" opacity="0.7">
        <path id="Path_98790" data-name="Path 98790" d="M1581.6,193.695V462.588H831.844V193.182Z" transform="translate(-588.581 31.2)" fill="url(#linear-gradient)"/>
        <g id="Group_81118" data-name="Group 81118" transform="translate(243 305.371)">
          <g id="Group_81106" data-name="Group 81106" transform="translate(0 0)">
            <g id="Group_81110" data-name="Group 81110">
              <path id="Path_98765" data-name="Path 98765" d="M477.078,510.985l-2.192-95.935-.332-14.579h-15.61V381.326c-.242-.076-.48-.153-.722-.229h-4.655v-.01H426.492v.01h-.023v2.87h.023v1.974h-.023v2.868h.023v1.98h-.023v2.87h.023v.012l-2.869-.012V378.647H393.24v1.9h-.016v2.868h.016v2.524h-.016v2.868h.016v1.98h-.016v2.87h.016v1.833h-.016v2.87h.016V400.2h-.016v2.87h.016v1.726h-.016v1.823h.016v.2H358.993v16.424H346.2v4.136h-13.8v-7.126H307.591V400.893h-3.882v-1.929h-.555v1.929h-3.221v0H283.84v-1.925h-.558v1.925h-4.191v9.735l-20.846-.054v6.009H240.572V379.437H188.212v39.789H172.222V397.71h-52.36V512.432l.048.07v-.1h357.2Z" transform="translate(272.644 -323.899)" fill="url(#linear-gradient-2)"/>
              <rect id="Rectangle_9144" data-name="Rectangle 9144" width="0.566" height="3.865" transform="translate(372.545)" fill="#effaff"/>
              <rect id="Rectangle_9145" data-name="Rectangle 9145" width="0.566" height="3.865" transform="translate(384.543)" fill="#effaff"/>
              <rect id="Rectangle_9146" data-name="Rectangle 9146" width="0.566" height="3.865" transform="translate(522.728)" fill="#effaff"/>
              <rect id="Rectangle_9147" data-name="Rectangle 9147" width="0.566" height="3.865" transform="translate(401.294)" fill="#effaff"/>
              <path id="Path_98573" data-name="Path 98573" d="M512.333,550.434,509.924,425.9l-.365-18.925H492.408V382.125c-.265-.1-.528-.2-.793-.3H486.5v-.013H456.754v.013h-.025v3.725h.025v2.563h-.025v3.723h.025v2.571h-.025v3.726h.025v.016l-3.152-.016V378.647H420.221v2.47H420.2v3.723h.018v3.276H420.2v3.723h.018v2.571H420.2v3.726h.018v2.379H420.2v3.726h.018v2.38H420.2v3.725h.018v2.24H420.2v2.367h.018v.258H382.593v21.32H368.538V441.9H353.381v-9.25H326.118V407.524h-4.265v-2.5h-.609v2.5h-3.538v-.005H300.023v-2.5h-.613v2.5h-4.6v12.636l-22.9-.07v7.8H252.485V379.673H194.958v51.649H177.389V403.393H119.862v148.92l.053.09v-.135H512.368Z" transform="translate(-119.862 -361.432)" fill="url(#linear-gradient-2)"/>
              <rect id="Rectangle_9148" data-name="Rectangle 9148" width="31.165" height="8.173" transform="translate(65.571 18.24)" fill="#eef6ff"/>
              <rect id="Rectangle_9149" data-name="Rectangle 9149" width="31.165" height="8.172" transform="translate(65.571 30.82)" fill="#eef6ff"/>
              <rect id="Rectangle_9150" data-name="Rectangle 9150" width="31.165" height="8.173" transform="translate(65.571 43.661)" fill="#eef6ff"/>
              <rect id="Rectangle_9153" data-name="Rectangle 9153" width="15.583" height="4.963" transform="translate(219.089 17.217)" fill="#eef6ff"/>
              <rect id="Rectangle_9154" data-name="Rectangle 9154" width="15.583" height="4.963" transform="translate(219.089 24.857)" fill="#eef6ff"/>
              <rect id="Rectangle_9155" data-name="Rectangle 9155" width="15.583" height="4.963" transform="translate(219.089 32.655)" fill="#eef6ff"/>
              <rect id="Rectangle_9156" data-name="Rectangle 9156" width="15.583" height="4.963" transform="translate(219.089 40.579)" fill="#eef6ff"/>
              <rect id="Rectangle_9157" data-name="Rectangle 9157" width="15.583" height="4.963" transform="translate(219.089 48.223)" fill="#eef6ff"/>
              <rect id="Rectangle_9158" data-name="Rectangle 9158" width="15.583" height="4.963" transform="translate(219.089 56.637)" fill="#eef6ff"/>
              <rect id="Rectangle_9159" data-name="Rectangle 9159" width="15.583" height="4.963" transform="translate(219.089 64.277)" fill="#eef6ff"/>
              <rect id="Rectangle_9160" data-name="Rectangle 9160" width="15.583" height="4.963" transform="translate(219.089 72.076)" fill="#eef6ff"/>
              <rect id="Rectangle_9161" data-name="Rectangle 9161" width="15.583" height="4.963" transform="translate(219.089 79.999)" fill="#eef6ff"/>
              <rect id="Rectangle_9162" data-name="Rectangle 9162" width="15.583" height="4.963" transform="translate(219.089 87.644)" fill="#eef6ff"/>
              <rect id="Rectangle_9163" data-name="Rectangle 9163" width="15.583" height="4.963" transform="translate(245.761 20.472)" fill="#eef6ff"/>
              <rect id="Rectangle_9164" data-name="Rectangle 9164" width="15.583" height="4.963" transform="translate(245.761 28.112)" fill="#eef6ff"/>
              <rect id="Rectangle_9165" data-name="Rectangle 9165" width="15.583" height="4.963" transform="translate(245.761 35.91)" fill="#eef6ff"/>
              <rect id="Rectangle_9166" data-name="Rectangle 9166" width="15.583" height="4.963" transform="translate(245.761 43.834)" fill="#eef6ff"/>
              <rect id="Rectangle_9167" data-name="Rectangle 9167" width="15.583" height="4.963" transform="translate(245.761 51.478)" fill="#eef6ff"/>
              <rect id="Rectangle_9169" data-name="Rectangle 9169" width="1.203" height="19.611" transform="translate(209.776 35.137)" fill="#effaff"/>
              <rect id="Rectangle_9170" data-name="Rectangle 9170" width="0.501" height="3.611" transform="translate(57.561 14.629)" fill="#effaff"/>
              <rect id="Rectangle_9171" data-name="Rectangle 9171" width="0.501" height="3.611" transform="translate(68.183 14.629)" fill="#effaff"/>
              <rect id="Rectangle_9172" data-name="Rectangle 9172" width="0.501" height="3.611" transform="translate(92.534 14.629)" fill="#effaff"/>
              <rect id="Rectangle_9175" data-name="Rectangle 9175" width="0.501" height="3.611" transform="translate(83.014 14.629)" fill="#effaff"/>
              <rect id="Rectangle_9176" data-name="Rectangle 9176" width="30.945" height="6.302" transform="translate(369.636 8.68)" fill="#eef6ff"/>
              <rect id="Rectangle_9177" data-name="Rectangle 9177" width="30.945" height="6.302" transform="translate(369.636 18.38)" fill="#eef6ff"/>
              <rect id="Rectangle_9178" data-name="Rectangle 9178" width="30.945" height="6.302" transform="translate(369.636 28.282)" fill="#eef6ff"/>
              <rect id="Rectangle_9179" data-name="Rectangle 9179" width="30.945" height="6.302" transform="translate(369.636 38.341)" fill="#eef6ff"/>
              <rect id="Rectangle_9180" data-name="Rectangle 9180" width="30.945" height="6.302" transform="translate(369.636 48.048)" fill="#eef6ff"/>
              <g id="Group_81101" data-name="Group 81101" transform="translate(322.554 32.177)" opacity="0.4">
                <g id="Group_81100" data-name="Group 81100">
                  <g id="Group_81099" data-name="Group 81099" clip-path="url(#clip-path)">
                    <rect id="Rectangle_9181" data-name="Rectangle 9181" width="32.277" height="7.355" transform="translate(0)" fill="#eef6ff"/>
                    <rect id="Rectangle_9182" data-name="Rectangle 9182" width="32.277" height="7.355" transform="translate(0 11.321)" fill="#eef6ff"/>
                    <rect id="Rectangle_9183" data-name="Rectangle 9183" width="32.277" height="7.355" transform="translate(0 22.878)" fill="#eef6ff"/>
                    <rect id="Rectangle_9184" data-name="Rectangle 9184" width="32.277" height="7.355" transform="translate(0 34.619)" fill="#eef6ff"/>
                    <rect id="Rectangle_9185" data-name="Rectangle 9185" width="32.277" height="7.355" transform="translate(0 45.948)" fill="#eef6ff"/>
                  </g>
                </g>
              </g>
            </g>
          </g>
        </g>
      </g>
    </g>
    <g id="Group_84176" data-name="Group 84176" transform="translate(524.613 211.951)">
      <g id="Group_84164" data-name="Group 84164">
        <g id="Group_84210" data-name="Group 84210">
          <path id="Path_99270" data-name="Path 99270" d="M38.911,36.475,27.966,33.785l.081-.013A18.19,18.19,0,0,1,18.6,36.6a19.743,19.743,0,0,1-5.855-.855,18.089,18.089,0,0,1-5.705-3.025,18.334,18.334,0,0,1-6.9-12.2,18.114,18.114,0,0,1,4.7-14.612,19,19,0,0,1,3.17-2.762c.592-.365,1.175-.745,1.785-1.066l.931-.448.463-.223.482-.177a18.463,18.463,0,0,1,7.869-1.2A18.218,18.218,0,0,1,35.6,12.3a18.886,18.886,0,0,1,1.011,5.909,18.145,18.145,0,0,1-2.622,9.481v-.1l4.92,8.878L33.82,27.693l-.028-.05.03-.05a18.025,18.025,0,0,0,2.525-9.378A18.665,18.665,0,0,0,35.323,12.4,17.931,17.931,0,0,0,19.516.392,18.141,18.141,0,0,0,11.8,1.575l-.473.173-.454.219-.912.439c-.6.315-1.17.688-1.75,1.046A18.66,18.66,0,0,0,5.105,6.161,17.971,17.971,0,0,0,7.236,32.473a17.833,17.833,0,0,0,5.6,2.993,19.545,19.545,0,0,0,5.76.867A18.056,18.056,0,0,0,27.936,33.6l.038-.024.043.011,10.894,2.889" transform="translate(0 0)" fill="#263238"/>
          <path id="Path_99271" data-name="Path 99271" d="M28.458,16.365l.579,9.143a1.484,1.484,0,0,0,2.956.069l1.015-9.189A1.165,1.165,0,0,0,31.834,15.1l-2.23.031a1.164,1.164,0,0,0-1.145,1.237" transform="translate(-11.656 -6.183)" fill="#20abe1"/>
          <path id="Path_99272" data-name="Path 99272" d="M32.886,41.755a2.231,2.231,0,1,1-1.415-2.821,2.231,2.231,0,0,1,1.415,2.821" transform="translate(-11.688 -15.9)" fill="#20abe1"/>
        </g>
      </g>
      <g id="Group_84175" data-name="Group 84175">
        <g id="Group_84174" data-name="Group 84174" clip-path="url(#clip-path-2)">
          <path id="Path_99273" data-name="Path 99273" d="M106,55.186h.684a13.067,13.067,0,0,1,13.138,11.85c.5,6.213.974,13.084.925,16.417-.1,6.9-7.192,7.959-7.192,7.959l.261,6.131a8.44,8.44,0,0,1-16.865.69l-1.47-29.153c-.619-7.166,3.147-13.491,10.521-13.9" transform="translate(-39.08 -22.604)" fill="#ffbe9d"/>
          <path id="Path_99274" data-name="Path 99274" d="M119.795,114.68a17.553,17.553,0,0,1-9.28-2.664s2.173,4.97,9.246,4.363Z" transform="translate(-45.267 -45.882)" fill="#eb996e"/>
          <path id="Path_99282" data-name="Path 99282" d="M94.039,87.223c-.12-.051-4.866-1.412-4.721,3.306S94.3,94.133,94.3,94s-.262-6.774-.262-6.774" transform="translate(-36.583 -35.636)" fill="#ffbe9d"/>
          <path id="Path_99283" data-name="Path 99283" d="M94.344,93.324c-.022-.014-.083.06-.224.128a.868.868,0,0,1-.63.031,2.026,2.026,0,0,1-1.023-1.8,2.651,2.651,0,0,1,.2-1.183.961.961,0,0,1,.615-.649.433.433,0,0,1,.505.211c.069.13.041.225.067.232s.1-.082.057-.276a.527.527,0,0,0-.2-.29.651.651,0,0,0-.471-.106,1.176,1.176,0,0,0-.859.757A2.728,2.728,0,0,0,92.13,91.7a2.134,2.134,0,0,0,1.294,2,.923.923,0,0,0,.768-.148c.146-.12.169-.227.152-.235" transform="translate(-37.734 -36.707)" fill="#eb996e"/>
          <path id="Path_99284" data-name="Path 99284" d="M98.366,59.38l20.2.433A9.074,9.074,0,0,0,115.6,56.47a16.046,16.046,0,0,0-9.148-3.206c-3.3-.056-10,3.852-12.39,6.065a4.982,4.982,0,0,0-1.9,3.3c-.3,2.551,1.163,5.451,1.745,7.955.3,1.291.881,5.2.881,5.2h0c1.113,0,1.527-.867,1.358-1.938l-.209-4.2a6.265,6.265,0,0,0,1.993-7.415c-.288-.382-.9-2.134.431-2.847" transform="translate(-37.735 -21.817)" fill="#263238"/>
          <path id="Path_99295" data-name="Path 99295" d="M95.045,57.286a5.642,5.642,0,0,1,1.134-5.056,6,6,0,0,1,4.834-2.176,19.5,19.5,0,0,0,2.82.2c1.748-.186,3.1-1.55,4.717-2.213a6.253,6.253,0,0,1,7.265,2.122c.615.893,1.018,2,1.96,2.56a11.472,11.472,0,0,0,2.755.714,4.383,4.383,0,0,1,3.02,4.334,5.172,5.172,0,0,1-3.226,4.335,6.626,6.626,0,0,1-5.583-.384c-1.524-.826-2.889-2.235-4.633-2.185-1.807.051-3.385,1.71-5.157,1.366a5.013,5.013,0,0,1-2.326-1.519,4.077,4.077,0,0,0-2.408-1.35c-.946-.054-1.439,1.211-1.1,2.073Z" transform="translate(-38.848 -19.505)" fill="#263238"/>
          <path id="Path_99296" data-name="Path 99296" d="M120.968,58.187s-.008.025-.032.069a1.8,1.8,0,0,1-.117.19,3.277,3.277,0,0,1-.579.641,3.6,3.6,0,0,1-1.2.677,3.522,3.522,0,0,1-1.833.107,3.653,3.653,0,0,1-1.934-1.071,23.128,23.128,0,0,1-1.393-2.073,2.826,2.826,0,0,0-.978-.862,2.941,2.941,0,0,0-1.34-.287,3.119,3.119,0,0,0-1.374.361,2.539,2.539,0,0,0-1.014,1.015c-.244.432-.419.906-.713,1.327a1.684,1.684,0,0,1-1.294.766,2.566,2.566,0,0,1-1.41-.4,5.281,5.281,0,0,1-1.073-.864,4.49,4.49,0,0,0-2-1.389,2.6,2.6,0,0,0-2.029.464,3.419,3.419,0,0,0-1.115,1.344,5.464,5.464,0,0,0-.416,1.265c-.075.36-.11.644-.135.835a2.039,2.039,0,0,1-.042.293.2.2,0,0,1,0-.076c0-.05,0-.124.008-.221a7.292,7.292,0,0,1,.1-.845,5.321,5.321,0,0,1,.392-1.3,3.5,3.5,0,0,1,1.133-1.409,2.732,2.732,0,0,1,2.147-.509,4.615,4.615,0,0,1,2.094,1.419,5.117,5.117,0,0,0,1.041.833,2.385,2.385,0,0,0,1.3.366,1.487,1.487,0,0,0,1.146-.688c.275-.392.449-.862.7-1.311a2.732,2.732,0,0,1,1.09-1.089,3.3,3.3,0,0,1,1.465-.382,3.12,3.12,0,0,1,1.43.312,2.993,2.993,0,0,1,1.038.92,24.59,24.59,0,0,0,1.369,2.071,3.524,3.524,0,0,0,1.842,1.044,3.428,3.428,0,0,0,1.77-.076,3.62,3.62,0,0,0,1.186-.633,4.494,4.494,0,0,0,.778-.843" transform="translate(-40.525 -22.688)" fill="#455a64"/>
          <path id="Path_99297" data-name="Path 99297" d="M137.366,60.246a1.049,1.049,0,0,1,.082.379,2.92,2.92,0,0,1-.1,1.054,3.619,3.619,0,0,1-.757,1.389,4.41,4.41,0,0,1-1.6,1.132,6.724,6.724,0,0,1-3.524.388,9.543,9.543,0,0,1-1.059-.205,1.451,1.451,0,0,1-.375-.122c.007-.032.554.1,1.451.194a7.022,7.022,0,0,0,3.429-.429,4.394,4.394,0,0,0,1.54-1.073,3.676,3.676,0,0,0,.762-1.312,4.058,4.058,0,0,0,.152-1.4" transform="translate(-53.262 -24.677)" fill="#455a64"/>
          <path id="Path_99300" data-name="Path 99300" d="M105.043,76.055c-.086-.007-.112-.514-.115-1.132s.021-1.125.107-1.134.2.5.2,1.132-.109,1.141-.192,1.134" transform="translate(-42.979 -30.224)" fill="#263238"/>
          <path id="Path_99301" data-name="Path 99301" d="M103.847,76.141a6.548,6.548,0,0,1-.034-2.822,6.548,6.548,0,0,1,.034,2.822" transform="translate(-42.465 -30.032)" fill="#263238"/>
          <path id="Path_99302" data-name="Path 99302" d="M45.281,262.5a2.972,2.972,0,0,0-1.287.954l-.876,1.126a2.984,2.984,0,0,0,2.423,4.815l26.151-.591-2.627-10.5-1.132-3.038" transform="translate(-17.404 -104.555)" fill="#20abe1"/>
          <path id="Path_99307" data-name="Path 99307" d="M85.586,258.843v.286s.381-.394,0-.286" transform="translate(-35.056 -106.014)" fill="#263238"/>
          <path id="Path_99308" data-name="Path 99308" d="M85.318,258.937l-.04.017.04-.017" transform="translate(-34.93 -106.061)" fill="#263238"/>
          <path id="Path_99309" data-name="Path 99309" d="M85.166,258.964l-.161.065.161-.065" transform="translate(-34.818 -106.072)" fill="#263238"/>
          <path id="Path_99310" data-name="Path 99310" d="M58.337,257.869l-12.794,4.169a6.311,6.311,0,0,0-1.934,1.04c-1.066.956-1.947,2.516-1.415,3.989.7,1.931,1.87,2.06,1.87,2.06s-1.428-1.759-1.015-3.1,1.961-2.579,3.844-3.3l20.712-5.294a1.3,1.3,0,0,1,.142-.048v-2.122Z" transform="translate(-17.218 -104.555)" fill="#263238"/>
          <path id="Path_99311" data-name="Path 99311" d="M84.958,259.075h0" transform="translate(-34.771 -106.117)" fill="#263238"/>
          <path id="Path_99314" data-name="Path 99314" d="M131.531,53.514a2.8,2.8,0,0,1,1.288-2.006l.221,1.179a3.522,3.522,0,0,1,2.8-1.552l-.857,1.519a4.192,4.192,0,0,1,1.862-.25,4.447,4.447,0,0,1-1.495,1.533,2.815,2.815,0,0,0-1.239,1.705" transform="translate(-53.875 -20.945)" fill="#263238"/>
          <path id="Path_99315" data-name="Path 99315" d="M167.729,102.921l-26.226,21.6c-.446-.375-8.426-16.084-8.426-16.084l22.915-13.632L136.3,77.173l5.087-3.855,24.925,13.909a9.54,9.54,0,0,1,1.416,15.693" transform="translate(-54.508 -30.031)" fill="#ffbe9d"/>
          <path id="Path_99316" data-name="Path 99316" d="M133.473,70.662l4.051-4.638-5.269-4.883-1.382-3.474a2.152,2.152,0,0,0-1.849-2.553l-4.27-.275s-2.012-.111-1.825,1.161a.6.6,0,0,0,.415.478l-.414.724c-.041,1.161,1.451,1.285,1.451,1.285l3.563.332.707,1.866s-4.27-1.949-4.975-1.2,7.2,4.772,7.2,4.772l.317,5.126.83.32Z" transform="translate(-50.347 -22.462)" fill="#ffbe9d"/>
          <path id="Path_99320" data-name="Path 99320" d="M176.334,114.218a20.485,20.485,0,0,1-2.355-2.146c-1.256-1.228-2.374-2.092-2.336-2.154a8.93,8.93,0,0,1,2.548,1.932,14.034,14.034,0,0,1,2.143,2.369" transform="translate(-70.305 -45.02)" fill="#eb996e"/>
          <path id="Path_99321" data-name="Path 99321" d="M125.27,60.588a3.257,3.257,0,0,1,1.194-.885,1.469,1.469,0,0,1,1.423.164c.293.24.451.615.747.851a1.451,1.451,0,0,0,1.394.145,3.564,3.564,0,0,0,1.187-.842c.106-.1.257-.214.384-.14a.315.315,0,0,1,.119.236,1.781,1.781,0,0,1-.267,1.215.812.812,0,0,0,.608-.076,1.1,1.1,0,0,1-.7,1.334,2.9,2.9,0,0,1-1.653.007,9.619,9.619,0,0,1-3.6-1.392" transform="translate(-51.311 -24.41)" fill="#263238"/>
          <path id="Path_99322" data-name="Path 99322" d="M50.355,131.173A21.854,21.854,0,0,1,59.186,112.6a20.139,20.139,0,0,1-8.629,18.823" transform="translate(-20.611 -46.121)" fill="#20abe1"/>
          <g id="Group_84167" data-name="Group 84167" transform="translate(29.709 66.48)" opacity="0.2">
            <g id="Group_84166" data-name="Group 84166">
              <g id="Group_84165" data-name="Group 84165" clip-path="url(#clip-path-3)">
                <path id="Path_99323" data-name="Path 99323" d="M50.355,131.173A21.854,21.854,0,0,1,59.186,112.6a20.139,20.139,0,0,1-8.629,18.823" transform="translate(-50.321 -112.602)"/>
              </g>
            </g>
          </g>
          <path id="Path_99324" data-name="Path 99324" d="M64.07,106.454,49.255,93.262l17.968-18.09-7-5.119s-21.181,16-25.446,20.5c-1.989,2.1-2.713,7.567-.279,10.046,6.3,6.416,18.977,17.954,18.977,17.954Z" transform="translate(-13.497 -28.694)" fill="#ffbe9d"/>
          <path id="Path_99325" data-name="Path 99325" d="M98.457,59.463c-1.867-.3-6.209-1-6.209-1l3.6-1.814,1.733-.056A2.45,2.45,0,0,0,95.3,54.645c-1.944-.122-2.259.266-2.259.266s-.952-2.029-1.458-2.158a7.627,7.627,0,0,0-2.288-.368,4.632,4.632,0,0,0-1.65,1.027s-2.292-1.231-2.848-.458A16.374,16.374,0,0,0,83.529,56.1l-3.178,3.08-.537.327-9.356,7.3,6.677,6.712,8.092-8.3,1.316.4a2.23,2.23,0,0,0,1.916-.58,9.11,9.11,0,0,0,1.353-1.412c.3-.387.906-1.418,1.02-1.526a4,4,0,0,1,1.043-.727s6.575-.09,7.056-.4,1.13-1.252-.475-1.513" transform="translate(-28.86 -21.451)" fill="#ffbe9d"/>
          <path id="Path_99330" data-name="Path 99330" d="M57.851,107.386a5.186,5.186,0,0,1-.807.977c-.528.577-1.272,1.36-2.109,2.212s-1.606,1.611-2.173,2.148a5.159,5.159,0,0,1-.962.825,5.3,5.3,0,0,1,.81-.979c.528-.577,1.272-1.359,2.107-2.209s1.6-1.608,2.17-2.146a5.264,5.264,0,0,1,.965-.828" transform="translate(-21.216 -43.985)" fill="#eb996e"/>
          <path id="Path_99331" data-name="Path 99331" d="M104.656,53.958a4.181,4.181,0,0,1-1.582-2.421l.827.572a4.293,4.293,0,0,1,.194-3.59l1.419,2.335a1.707,1.707,0,0,1,.9-1.258,7.731,7.731,0,0,0,.649,3.606" transform="translate(-42.219 -19.873)" fill="#263238"/>
          <path id="Path_99332" data-name="Path 99332" d="M97.653,52.354a6.647,6.647,0,0,1-1.48-2.12c.129-.064.275.033.393.115s.3.145.391.037.031-.237-.014-.354A2.156,2.156,0,0,1,97.09,48.2l1.638,3.048L97.616,52.3" transform="translate(-39.393 -19.744)" fill="#263238"/>
          <path id="Path_99333" data-name="Path 99333" d="M168.417,261.887c-1.273-4.115-2.81-8.246-9.016-11.868l-5.908-2.986c.165.064.329.127.494.2l-26.173-13.365-.329.021-7.944-4.016-23.363.906-1.6,5.239-15.3.99-.35,11.99L78.953,254c-2.634-2.664-8.678.289-8.678,4.684L85.6,280.681c7.67,12.486,25.325,8.213,25.325,8.213l.221-.123a13.628,13.628,0,0,0,6.5-15.479l-.75-2.751c.1.223.147.348.147.348l-.2-2.64.1.059,24.386,6.406c9.668,1.579,16.07,3.493,22.641-.559a10.556,10.556,0,0,0,3.093-2.894,10.726,10.726,0,0,0,1.363-9.374" transform="translate(-28.785 -94.154)" fill="#263238"/>
          <path id="Path_99340" data-name="Path 99340" d="M94.6,289.246a4.158,4.158,0,0,1-.475-.671c-.29-.442-.691-1.093-1.17-1.908-.96-1.627-2.208-3.921-3.509-6.492s-2.422-4.927-3.227-6.635l-.939-2.029a4.233,4.233,0,0,1-.308-.762,4.1,4.1,0,0,1,.415.709c.25.465.6,1.144,1.027,1.986.874,1.74,2.029,4.044,3.307,6.591,1.3,2.569,2.513,4.873,3.423,6.524.435.785.8,1.441,1.082,1.954a4.205,4.205,0,0,1,.373.733" transform="translate(-34.804 -110.899)" fill="#455a64"/>
          <path id="Path_99344" data-name="Path 99344" d="M138.8,264.641a5.073,5.073,0,0,1,.388.819c.23.535.546,1.318.9,2.3.726,1.954,1.613,4.694,2.493,7.748s1.6,5.84,2.114,7.858c.239.969.437,1.774.589,2.394a5.042,5.042,0,0,1,.177.889,5.172,5.172,0,0,1-.292-.858l-.684-2.369-2.2-7.829c-.878-3.049-1.731-5.794-2.4-7.761-.33-.985-.613-1.778-.809-2.326a5.17,5.17,0,0,1-.277-.863" transform="translate(-56.851 -108.397)" fill="#455a64"/>
          <path id="Path_99346" data-name="Path 99346" d="M97.959,186.523c-.007.007.053.076.172.2l.534.533a11.127,11.127,0,0,0,.883.8c.358.3.752.657,1.232.994.469.353.987.734,1.575,1.1.571.39,1.221.74,1.9,1.121a27.407,27.407,0,0,0,9.586,3.028c.773.077,1.506.164,2.2.172.69.042,1.333.027,1.919.007.587,0,1.115-.067,1.579-.105a11.109,11.109,0,0,0,1.184-.151l.743-.129a.9.9,0,0,0,.255-.065.927.927,0,0,0-.265.007l-.749.075c-.324.04-.72.083-1.183.1s-.988.075-1.57.061c-.583.006-1.22.009-1.9-.043-.685-.019-1.41-.115-2.175-.2a28.55,28.55,0,0,1-9.494-3c-.673-.371-1.322-.71-1.893-1.088-.589-.35-1.109-.719-1.582-1.058-.485-.324-.884-.669-1.25-.953s-.67-.543-.911-.762l-.57-.491a.917.917,0,0,0-.213-.158" transform="translate(-40.124 -76.4)" fill="#263238"/>
          <path id="Path_99347" data-name="Path 99347" d="M109.574,162.134l-.42-5.585.45-15.524,14.073-11.06c-.648-4.99-8.5-15.155-8.5-15.155l-12,4.744h-2.027l-1.745,1.714-4.055-.553c-1.575,7.869-11.524,6.793-16.883.389l-5.856.512-2.144-1.937-3.006.824-8.234-7.9c-.177,8.333-3.268,14.279-8.849,18.57l11.842,12.75,2.947,2.937c1.088,15.58,2.107,30.543,5.1,45.513l3.1-.679c15.793-.321,39.836-5.146,46.3-5.863l1.33-1.307-2.365-2.091Z" transform="translate(-20.635 -46.123)" fill="#20abe1"/>
          <path id="Path_99348" data-name="Path 99348" d="M83.506,133.407a4.938,4.938,0,0,1,.217.876c.11.57.264,1.4.4,2.427a46.83,46.83,0,0,1,.423,8.1,23.772,23.772,0,0,1-.572,4.445,5.9,5.9,0,0,1-1.75,3.211,3.444,3.444,0,0,1-2.307.858,2.293,2.293,0,0,1-.667-.122c-.145-.058-.217-.093-.213-.1a4.688,4.688,0,0,0,.88.1,3.431,3.431,0,0,0,2.164-.9,5.794,5.794,0,0,0,1.617-3.113,25.059,25.059,0,0,0,.54-4.393,54.492,54.492,0,0,0-.332-8.062c-.11-1.029-.23-1.858-.3-2.433a5.167,5.167,0,0,1-.1-.9" transform="translate(-32.375 -54.644)" fill="#263238"/>
          <path id="Path_99349" data-name="Path 99349" d="M94.946,139.955a16.74,16.74,0,0,1-.184-1.829,31.249,31.249,0,0,0-2.047-8.564,16.809,16.809,0,0,1-.663-1.715,1.562,1.562,0,0,1,.268.419c.157.277.362.691.6,1.212a24.53,24.53,0,0,1,2.063,8.632c.027.57.032,1.031.017,1.35a1.557,1.557,0,0,1-.05.495" transform="translate(-37.703 -52.366)" fill="#263238"/>
          <path id="Path_99350" data-name="Path 99350" d="M131.341,229.511a1.392,1.392,0,0,1-.293.167l-.866.426c-.376.185-.841.4-1.392.63s-1.168.51-1.873.764c-1.4.547-3.094,1.11-5,1.644a54.342,54.342,0,0,1-12.739,1.918c-1.984.052-3.772.014-5.268-.1-.749-.035-1.423-.12-2.016-.178s-1.1-.126-1.515-.192l-.953-.152a1.372,1.372,0,0,1-.329-.073,1.412,1.412,0,0,1,.338.012l.959.094c.416.048.924.1,1.517.14s1.265.112,2.012.133c1.491.084,3.271.1,5.245.032a57.73,57.73,0,0,0,12.675-1.909c1.905-.517,3.6-1.055,5-1.575.708-.24,1.33-.5,1.884-.719s1.025-.412,1.408-.58l.889-.373a1.411,1.411,0,0,1,.319-.111" transform="translate(-40.589 -94.007)" fill="#263238"/>
          <path id="Path_99353" data-name="Path 99353" d="M148.845,170.279c-.084-.006.308-6.166.876-13.755s1.1-13.739,1.183-13.733-.308,6.164-.877,13.756-1.1,13.738-1.183,13.732" transform="translate(-60.962 -58.487)" fill="#263238"/>
        </g>
      </g>
    </g>
    <g id="Group_84207" data-name="Group 84207" transform="translate(654.755 284.215)">
      <g id="Group_84209" data-name="Group 84209">
        <g id="Group_84205" data-name="Group 84205">
          <g id="Group_84208" data-name="Group 84208">
            <path id="Path_99354" data-name="Path 99354" d="M50.163,15.709l-26.892,61.6A11.625,11.625,0,0,0,35.1,93.525c18.684-1.9,46.68-4.781,66.084-6.786A12.356,12.356,0,0,0,109.694,66.9L68.482,13.452a10.723,10.723,0,0,0-18.319,2.257" fill="#e8f2ff"/>
            <g id="Group_84179" data-name="Group 84179" opacity="0.5">
              <g id="Group_84178" data-name="Group 84178">
                <g id="Group_84177" data-name="Group 84177" clip-path="url(#clip-path-4)">
                  <path id="Path_99355" data-name="Path 99355" d="M51.547,19.848a1.935,1.935,0,0,1,.222-.6c.09-.192.188-.441.34-.718q.262-.4.6-.922c.245-.338.575-.672.913-1.065a11.048,11.048,0,0,1,1.316-1.072,9.48,9.48,0,0,1,3.92-1.587,10.123,10.123,0,0,1,5.288.509A10.234,10.234,0,0,1,66.8,15.956l.621.526c.191.194.371.4.559.61.391.413.713.843,1.057,1.279,2.736,3.494,5.85,7.469,9.291,11.861l24.079,30.956,3.43,4.439a11.753,11.753,0,0,1,2.319,5.583A11.865,11.865,0,0,1,97.522,84.631q-3.048.313-6.142.636L78.833,86.559,54.09,89.084,42.323,90.273l-2.868.288-1.423.142-1.517.049a10.953,10.953,0,0,1-5.653-1.778,11.29,11.29,0,0,1-5.106-9.755c.045-.464.045-.933.133-1.386s.185-.9.3-1.347l.466-1.286c.163-.409.341-.785.511-1.178q1.026-2.327,2.021-4.579l7.394-16.7c4.532-10.2,8.223-18.449,10.807-24.133,1.3-2.823,2.315-5.02,3.011-6.53a15.09,15.09,0,0,1,1.147-2.234,15.234,15.234,0,0,1-.859,2.36c-.634,1.537-1.556,3.774-2.742,6.647C45.534,34.614,42,42.927,37.6,53.187c-2.208,5.129-4.625,10.745-7.219,16.774q-.976,2.261-1.985,4.6c-.164.388-.347.784-.5,1.169l-.4,1.137c-.1.391-.166.79-.254,1.185s-.067.808-.108,1.213a9.9,9.9,0,0,0,4.515,8.5,9.5,9.5,0,0,0,4.917,1.52l1.324-.048,1.421-.148,2.867-.3,11.762-1.227L78.673,85l12.548-1.284,6.142-.626a10.353,10.353,0,0,0,9.312-11.69,10.287,10.287,0,0,0-2.009-4.893l-3.4-4.445L77.452,30.907l-9.108-12c-.334-.441-.659-.889-1-1.259-.169-.192-.33-.39-.5-.573l-.561-.493a9.046,9.046,0,0,0-7.327-2.1A9.148,9.148,0,0,0,55.2,15.857a11.3,11.3,0,0,0-1.3.967c-.339.361-.677.666-.933.977l-.648.853c-.17.256-.288.488-.4.665-.215.359-.339.54-.364.529" fill="#fff"/>
                </g>
              </g>
            </g>
            <g id="Group_84182" data-name="Group 84182" opacity="0.5">
              <g id="Group_84181" data-name="Group 84181">
                <g id="Group_84180" data-name="Group 84180" clip-path="url(#clip-path-5)">
                  <path id="Path_99356" data-name="Path 99356" d="M55.855,33.925l4.014,24.548a4.028,4.028,0,0,0,8-.6l.28-25.1a3.161,3.161,0,0,0-3.517-3.175l-6.017.682a3.16,3.16,0,0,0-2.763,3.65" fill="#fff"/>
                </g>
              </g>
            </g>
            <g id="Group_84185" data-name="Group 84185" opacity="0.5">
              <g id="Group_84184" data-name="Group 84184">
                <g id="Group_84183" data-name="Group 84183" clip-path="url(#clip-path-6)">
                  <path id="Path_99357" data-name="Path 99357" d="M71.415,74.143A6.059,6.059,0,1,1,66.837,66.9a6.058,6.058,0,0,1,4.578,7.242" fill="#fff"/>
                </g>
              </g>
            </g>
            <path id="Path_99358" data-name="Path 99358" d="M21.553,1.138,1.528,19.451a4.693,4.693,0,0,0,1.7,7.923c7.2,2.366,18.005,5.894,25.493,8.337a4.989,4.989,0,0,0,6.394-5.922L28.681,3.31a4.329,4.329,0,0,0-7.128-2.172" fill="#e8f2ff"/>
            <g id="Group_84188" data-name="Group 84188" opacity="0.5">
              <g id="Group_84187" data-name="Group 84187">
                <g id="Group_84186" data-name="Group 84186" clip-path="url(#clip-path-7)">
                  <path id="Path_99359" data-name="Path 99359" d="M21.385,2.892c-.023-.021.168-.343.753-.719a3.912,3.912,0,0,1,2.971-.458,4.261,4.261,0,0,1,1.979,1.076,4.743,4.743,0,0,1,1.244,2.363c.458,1.739.977,3.709,1.549,5.884,1.115,4.381,2.436,9.579,3.9,15.346q.27,1.087.547,2.2a5.18,5.18,0,0,1-.061,2.666,5.241,5.241,0,0,1-6.693,3.519L25.206,34l-4.842-1.579-9.54-3.136-4.532-1.5-1.1-.368-.549-.182-.62-.255a4.851,4.851,0,0,1-1.963-1.743,4.973,4.973,0,0,1-.293-4.848,5.4,5.4,0,0,1,.668-1.02l.418-.431.387-.351,1.505-1.349,5.505-4.9c3.374-2.99,6.122-5.39,8.045-7.022a18.875,18.875,0,0,1,3.094-2.417A18.878,18.878,0,0,1,18.7,5.758c-1.8,1.77-4.432,4.294-7.711,7.388L5.615,18.192,4.137,19.571l-.369.349-.3.321A4.055,4.055,0,0,0,3,20.984a3.58,3.58,0,0,0,.262,3.465,3.4,3.4,0,0,0,1.395,1.207l.444.177.548.176,1.108.356L11.3,27.831l9.549,3.105,4.838,1.587,2.368.779a3.729,3.729,0,0,0,4.783-2.473,3.706,3.706,0,0,0,.062-1.91l-.516-2.195c-1.344-5.8-2.556-11.021-3.577-15.425-.49-2.195-.933-4.184-1.324-5.939a4.012,4.012,0,0,0-.93-2.05A3.71,3.71,0,0,0,24.95,2.3a3.812,3.812,0,0,0-2.665.149c-.585.259-.851.5-.9.441" fill="#fff"/>
                </g>
              </g>
            </g>
            <g id="Group_84191" data-name="Group 84191" opacity="0.5">
              <g id="Group_84190" data-name="Group 84190">
                <g id="Group_84189" data-name="Group 84189" clip-path="url(#clip-path-8)">
                  <path id="Path_99360" data-name="Path 99360" d="M20.665,8.792l-2.546,9.714a1.627,1.627,0,0,0,3.052,1.09l4.22-9.214a1.275,1.275,0,0,0-.776-1.748L22.283,7.9a1.276,1.276,0,0,0-1.618.894" fill="#fff"/>
                </g>
              </g>
            </g>
            <g id="Group_84194" data-name="Group 84194" opacity="0.5">
              <g id="Group_84193" data-name="Group 84193">
                <g id="Group_84192" data-name="Group 84192" clip-path="url(#clip-path-9)">
                  <path id="Path_99361" data-name="Path 99361" d="M19.809,26.181a2.447,2.447,0,1,1-.5-3.423,2.447,2.447,0,0,1,.5,3.423" fill="#fff"/>
                </g>
              </g>
            </g>
            <path id="Path_99362" data-name="Path 99362" d="M98.393,6.819,93.85,27.524A3.666,3.666,0,0,0,98.5,31.816c5.664-1.731,14.148-4.341,20.028-6.151a3.9,3.9,0,0,0,1.418-6.659L103.922,5a3.382,3.382,0,0,0-5.529,1.822" fill="#e8f2ff"/>
            <g id="Group_84197" data-name="Group 84197" opacity="0.5">
              <g id="Group_84196" data-name="Group 84196">
                <g id="Group_84195" data-name="Group 84195" clip-path="url(#clip-path-10)">
                  <path id="Path_99363" data-name="Path 99363" d="M99.075,8.014c-.035-.005-.07-.3.127-.814a3.071,3.071,0,0,1,1.7-1.676,3.391,3.391,0,0,1,1.785-.222,3.809,3.809,0,0,1,1.907.957L108.245,9.3l9.423,8.014,1.343,1.158a4.226,4.226,0,0,1,1.21,1.8,4.259,4.259,0,0,1-2.795,5.473l-1.86.577-3.8,1.171-7.5,2.288-3.571,1.077-.871.261-.432.13-.532.121a3.947,3.947,0,0,1-2.122-.242,4.038,4.038,0,0,1-2.46-3.085,4.328,4.328,0,0,1-.031-.99l.076-.479.09-.4q.183-.781.359-1.538c.476-2.011.92-3.887,1.327-5.6.824-3.424,1.517-6.189,2.03-8.092a11.683,11.683,0,0,1,.952-2.922,11.72,11.72,0,0,1-.358,3.052c-.331,1.943-.859,4.744-1.545,8.2-.35,1.73-.732,3.62-1.141,5.645q-.156.762-.318,1.547l-.078.388-.044.323a2.985,2.985,0,0,0,.037.647,2.644,2.644,0,0,0,1.636,1.973,2.508,2.508,0,0,0,1.35.131l.342-.083.429-.135.868-.273,3.559-1.113L111.305,26l3.8-1.164,1.862-.567a2.747,2.747,0,0,0,1.836-3.518,2.737,2.737,0,0,0-.772-1.18l-1.314-1.17-9.2-8.267c-1.292-1.185-2.464-2.262-3.5-3.214a2.767,2.767,0,0,0-2.908-.822,2.967,2.967,0,0,0-1.627,1.248c-.264.419-.338.688-.407.671" fill="#fff"/>
                </g>
              </g>
            </g>
            <g id="Group_84200" data-name="Group 84200" opacity="0.5">
              <g id="Group_84199" data-name="Group 84199">
                <g id="Group_84198" data-name="Group 84198" clip-path="url(#clip-path-11)">
                  <path id="Path_99364" data-name="Path 99364" d="M101.271,12.1l2.747,7.348a1.27,1.27,0,0,0,2.439-.678L105,10.993a1,1,0,0,0-1.282-.767l-1.82.58a1,1,0,0,0-.631,1.3" fill="#fff"/>
                </g>
              </g>
            </g>
            <g id="Group_84203" data-name="Group 84203" opacity="0.5">
              <g id="Group_84202" data-name="Group 84202">
                <g id="Group_84201" data-name="Group 84201" clip-path="url(#clip-path-12)">
                  <path id="Path_99365" data-name="Path 99365" d="M108.55,23.593a1.911,1.911,0,1,1-1.86-1.96,1.911,1.911,0,0,1,1.86,1.96" fill="#fff"/>
                </g>
              </g>
            </g>
            <path id="Path_99366" data-name="Path 99366" d="M13.434,98.5c-.026.025-.275-.206-.7-.647a8.561,8.561,0,0,1-.744-.841,14.048,14.048,0,0,1-.9-1.184,21.024,21.024,0,0,1-1.92-3.368,22.3,22.3,0,0,1-1.992-9.239,21.127,21.127,0,0,1,.362-3.86,13.986,13.986,0,0,1,.334-1.451A8.492,8.492,0,0,1,8.2,76.838a3.384,3.384,0,0,1,.375-.88c.1.031-.357,1.315-.677,3.463a23.832,23.832,0,0,0-.246,3.8A23.726,23.726,0,0,0,9.6,92.266a23.728,23.728,0,0,0,1.787,3.357c1.177,1.826,2.118,2.81,2.044,2.877" fill="#263238"/>
            <path id="Path_99367" data-name="Path 99367" d="M22.144,99.76a3.753,3.753,0,0,1-.856-.542,8.441,8.441,0,0,1-.934-.735,14.129,14.129,0,0,1-1.157-1.07A20.9,20.9,0,0,1,16.6,94.23a22.2,22.2,0,0,1-3.5-9.367,20.835,20.835,0,0,1-.13-4.1,13.894,13.894,0,0,1,.172-1.567,8.4,8.4,0,0,1,.223-1.167,3.8,3.8,0,0,1,.29-.971c.1.021-.244,1.423-.317,3.722a23.058,23.058,0,0,0,.237,4.02,23.394,23.394,0,0,0,3.428,9.172,23.038,23.038,0,0,0,2.457,3.19c1.564,1.688,2.744,2.519,2.681,2.6" fill="#263238"/>
            <path id="Path_99368" data-name="Path 99368" d="M115.154,89.113c-.088-.046.69-1.441,1.574-3.842a33.858,33.858,0,0,0,1.25-4.306A32.851,32.851,0,0,0,118.5,70.05a33.279,33.279,0,0,0-.831-4.406c-.649-2.475-1.29-3.937-1.2-3.975a4.57,4.57,0,0,1,.51,1,22.389,22.389,0,0,1,1.044,2.875,29.43,29.43,0,0,1,.954,4.444,30.774,30.774,0,0,1-.531,11.082,29.375,29.375,0,0,1-1.374,4.332,22.5,22.5,0,0,1-1.316,2.763,4.719,4.719,0,0,1-.6.947" fill="#263238"/>
            <path id="Path_99369" data-name="Path 99369" d="M123.182,87.053c-.086-.045.538-1.185,1.206-3.15a24.532,24.532,0,0,0,.9-3.521,24.294,24.294,0,0,0-.063-8.851,24.368,24.368,0,0,0-.953-3.508c-.7-1.955-1.335-3.086-1.251-3.132a3.107,3.107,0,0,1,.512.758,16.07,16.07,0,0,1,1.084,2.244,21.375,21.375,0,0,1,1.079,3.544,22.547,22.547,0,0,1,.064,9.033,21.248,21.248,0,0,1-1.027,3.558,15.9,15.9,0,0,1-1.051,2.259,3.1,3.1,0,0,1-.5.766" fill="#263238"/>
          </g>
        </g>
      </g>
    </g>
  </g>
</svg>
