<svg width="24" height="28" viewBox="0 0 24 28" fill="none" xmlns="http://www.w3.org/2000/svg">
<path d="M9.80791 21.8598C8.34704 21.8598 7.19922 22.9977 7.19922 24.446C7.19922 25.8943 8.34704 27.0322 9.80791 27.0322C11.2688 27.0322 12.4166 25.8943 12.4166 24.446C12.4166 22.9977 11.2688 21.8598 9.80791 21.8598Z" fill="#F5744B"/>
<path d="M17.7396 21.8598C16.2787 21.8598 15.1309 22.9977 15.1309 24.446C15.1309 25.8943 16.2787 27.0322 17.7396 27.0322C19.2004 27.0322 20.3483 25.8943 20.3483 24.446C20.3483 22.9977 19.2004 21.8598 17.7396 21.8598Z" fill="#F5744B"/>
<path d="M22.9565 18.9632H20.9739V9.65285C20.9739 9.03216 20.4522 8.61837 19.9304 8.61837H16.9043V3.13561C16.9043 2.51492 16.3826 2.10113 15.8609 2.10113H9.49565C8.86957 2.10113 8.45217 2.61837 8.45217 3.13561V18.9632H6.78261C6.46957 18.9632 6.26087 18.7563 6.26087 18.446V2.72182C6.26087 1.1701 5.11304 0.0321655 3.65217 0.0321655H1.04348C0.417391 0.0321655 0 0.549407 0 1.06665C0 1.58389 0.521739 2.10113 1.04348 2.10113H3.65217C3.96522 2.10113 4.17391 2.30803 4.17391 2.61837V18.446C4.17391 19.8942 5.32174 21.1356 6.88696 21.1356H22.9565C23.5826 21.1356 24 20.6184 24 20.1011C24 19.5839 23.4783 18.9632 22.9565 18.9632ZM10.7478 3.85975C10.7478 3.54941 10.9565 3.34251 11.2696 3.34251H13.8783C14.1913 3.34251 14.4 3.54941 14.4 3.85975C14.4 4.1701 14.1913 4.37699 13.8783 4.37699H11.2696C11.0609 4.48044 10.7478 4.1701 10.7478 3.85975ZM16.8 11.5149H12.5217C12.2087 11.5149 12 11.308 12 10.9977C12 10.6873 12.2087 10.4804 12.5217 10.4804H16.8C17.113 10.4804 17.3217 10.6873 17.3217 10.9977C17.3217 11.308 17.113 11.5149 16.8 11.5149Z" fill="#FFAB90"/>
</svg>
