<svg xmlns="http://www.w3.org/2000/svg" xmlns:xlink="http://www.w3.org/1999/xlink" width="880.927" height="353.733" viewBox="0 0 880.927 353.733">
  <defs>
    <linearGradient id="linear-gradient" x1="0.5" x2="0.5" y2="1" gradientUnits="objectBoundingBox">
      <stop offset="0" stop-color="#fff"/>
      <stop offset="1" stop-color="#effaff"/>
    </linearGradient>
    <linearGradient id="linear-gradient-2" x1="0.5" x2="0.5" y2="1" gradientUnits="objectBoundingBox">
      <stop offset="0" stop-color="#e8f2ff"/>
      <stop offset="1" stop-color="#fff"/>
    </linearGradient>
    <clipPath id="clip-path">
      <rect id="Rectangle_9186" data-name="Rectangle 9186" width="37.91" height="62.607" fill="none"/>
    </clipPath>
    <clipPath id="clip">
      <use xlink:href="#fill"/>
    </clipPath>
    <clipPath id="clip-2">
      <use xlink:href="#fill-2"/>
    </clipPath>
  </defs>
  <g id="Group_84390" data-name="Group 84390" transform="translate(-243 -224.382)">
    <path id="Path_98764" data-name="Path 98764" d="M1712.463,193.784V509.61H831.844V193.182Z" transform="translate(-588.535 31.2)" fill="url(#linear-gradient)"/>
    <g id="Group_81099" data-name="Group 81099" transform="translate(211.486 240.173)">
      <g id="Group_81109" data-name="Group 81109">
        <g id="Group_81106" data-name="Group 81106" transform="translate(0 0.001)">
          <g id="Group_81110" data-name="Group 81110">
            <path id="Path_98765" data-name="Path 98765" d="M539.428,534.084,536.853,421.4l-.39-17.124H518.128V381.794c-.284-.089-.564-.18-.848-.269h-5.468v-.012h-31.8v.012h-.027V384.9h.027v2.319h-.027v3.369h.027v2.326h-.027v3.371h.027v.014l-3.37-.014V378.647H440.956v2.235h-.019v3.369h.019v2.964h-.019v3.369h.019v2.326h-.019v3.371h.019v2.153h-.019V401.8h.019v2.153h-.019v3.371h.019v2.027h-.019V411.5h.019v.234H400.731v19.291H385.706v4.858H369.5V427.51H340.357V404.776H335.8V402.51h-.652v2.265h-3.783v0h-18.9V402.51h-.655v2.261h-4.923V416.2l-24.484-.063V423.2H261.641V379.575h-61.5v46.734H181.361V401.038h-61.5V535.784l.057.082v-.122H539.466Z" transform="translate(372.667 -235.01)" fill="url(#linear-gradient-2)"/>
            <rect id="Rectangle_9144" data-name="Rectangle 9144" width="0.665" height="4.54" transform="translate(469.084 79.333)" fill="#effaff"/>
            <rect id="Rectangle_9145" data-name="Rectangle 9145" width="0.664" height="4.54" transform="translate(483.176 79.333)" fill="#effaff"/>
            <rect id="Rectangle_9146" data-name="Rectangle 9146" width="0.664" height="4.54" transform="translate(645.48 79.333)" fill="#effaff"/>
            <rect id="Rectangle_9147" data-name="Rectangle 9147" width="0.664" height="4.54" transform="translate(502.851 79.333)" fill="#effaff"/>
            <path id="Path_98573" data-name="Path 98573" d="M580.836,580.419l-2.829-146.269-.428-22.228H557.434v-29.19c-.312-.115-.62-.233-.932-.349h-6.008v-.015H515.556v.015h-.029v4.376h.029v3.01h-.029v4.373h.029v3.019h-.029v4.376h.029v.018l-3.7-.018v-22.89H472.646v2.9h-.021v4.373h.021v3.848h-.021v4.373h.021v3.019h-.021v4.376h.021v2.795h-.021v4.376h.021V411.5h-.021v4.376h.021v2.631h-.021v2.78h.021v.3H428.451v25.041H411.943v6.306h-17.8V442.076H362.118V412.564h-5.009v-2.94h-.716v2.94h-4.156v-.006H331.469v-2.934h-.719v2.934h-5.409V427.4l-26.9-.082v9.161H275.633V379.852H208.066v60.664H187.43v-32.8H119.862V582.625l.062.106v-.158H580.877Z" transform="translate(-88.348 -279.094)" fill="url(#linear-gradient-2)"/>
            <rect id="Rectangle_9148" data-name="Rectangle 9148" width="36.604" height="9.599" transform="translate(108.53 100.757)" fill="#eef6ff"/>
            <rect id="Rectangle_9149" data-name="Rectangle 9149" width="36.604" height="9.599" transform="translate(108.53 115.532)" fill="#eef6ff"/>
            <rect id="Rectangle_9150" data-name="Rectangle 9150" width="36.604" height="9.599" transform="translate(108.53 130.615)" fill="#eef6ff"/>
            <rect id="Rectangle_9153" data-name="Rectangle 9153" width="18.302" height="5.829" transform="translate(288.843 99.556)" fill="#eef6ff"/>
            <rect id="Rectangle_9154" data-name="Rectangle 9154" width="18.302" height="5.83" transform="translate(288.843 108.528)" fill="#eef6ff"/>
            <rect id="Rectangle_9155" data-name="Rectangle 9155" width="18.302" height="5.83" transform="translate(288.843 117.688)" fill="#eef6ff"/>
            <rect id="Rectangle_9156" data-name="Rectangle 9156" width="18.302" height="5.83" transform="translate(288.843 126.994)" fill="#eef6ff"/>
            <rect id="Rectangle_9157" data-name="Rectangle 9157" width="18.302" height="5.83" transform="translate(288.843 135.974)" fill="#eef6ff"/>
            <rect id="Rectangle_9158" data-name="Rectangle 9158" width="18.302" height="5.829" transform="translate(288.843 145.856)" fill="#eef6ff"/>
            <rect id="Rectangle_9159" data-name="Rectangle 9159" width="18.302" height="5.829" transform="translate(288.843 154.829)" fill="#eef6ff"/>
            <rect id="Rectangle_9160" data-name="Rectangle 9160" width="18.302" height="5.83" transform="translate(288.843 163.989)" fill="#eef6ff"/>
            <rect id="Rectangle_9161" data-name="Rectangle 9161" width="18.302" height="5.829" transform="translate(288.843 173.295)" fill="#eef6ff"/>
            <rect id="Rectangle_9162" data-name="Rectangle 9162" width="18.302" height="5.83" transform="translate(288.843 182.274)" fill="#eef6ff"/>
            <rect id="Rectangle_9163" data-name="Rectangle 9163" width="18.302" height="5.83" transform="translate(320.17 103.379)" fill="#eef6ff"/>
            <rect id="Rectangle_9164" data-name="Rectangle 9164" width="18.302" height="5.829" transform="translate(320.17 112.351)" fill="#eef6ff"/>
            <rect id="Rectangle_9165" data-name="Rectangle 9165" width="18.302" height="5.829" transform="translate(320.17 121.512)" fill="#eef6ff"/>
            <rect id="Rectangle_9166" data-name="Rectangle 9166" width="18.302" height="5.829" transform="translate(320.17 130.818)" fill="#eef6ff"/>
            <rect id="Rectangle_9167" data-name="Rectangle 9167" width="18.302" height="5.829" transform="translate(320.17 139.797)" fill="#eef6ff"/>
            <rect id="Rectangle_9169" data-name="Rectangle 9169" width="1.412" height="23.034" transform="translate(277.905 120.603)" fill="#effaff"/>
            <rect id="Rectangle_9170" data-name="Rectangle 9170" width="0.588" height="4.241" transform="translate(99.122 96.516)" fill="#effaff"/>
            <rect id="Rectangle_9171" data-name="Rectangle 9171" width="0.588" height="4.241" transform="translate(111.598 96.516)" fill="#effaff"/>
            <rect id="Rectangle_9172" data-name="Rectangle 9172" width="0.588" height="4.241" transform="translate(140.199 96.516)" fill="#effaff"/>
            <rect id="Rectangle_9175" data-name="Rectangle 9175" width="0.588" height="4.241" transform="translate(129.017 96.516)" fill="#effaff"/>
            <rect id="Rectangle_9176" data-name="Rectangle 9176" width="36.347" height="7.401" transform="translate(465.667 89.529)" fill="#eef6ff"/>
            <rect id="Rectangle_9177" data-name="Rectangle 9177" width="36.347" height="7.401" transform="translate(465.667 100.921)" fill="#eef6ff"/>
            <rect id="Rectangle_9178" data-name="Rectangle 9178" width="36.347" height="7.401" transform="translate(465.667 112.552)" fill="#eef6ff"/>
            <rect id="Rectangle_9179" data-name="Rectangle 9179" width="36.347" height="7.402" transform="translate(465.667 124.367)" fill="#eef6ff"/>
            <rect id="Rectangle_9180" data-name="Rectangle 9180" width="36.347" height="7.401" transform="translate(465.667 135.768)" fill="#eef6ff"/>
            <g id="Group_81101" data-name="Group 81101" transform="translate(410.367 117.126)" opacity="0.4">
              <g id="Group_81100" data-name="Group 81100">
                <g id="Group_81099-2" data-name="Group 81099" clip-path="url(#clip-path)">
                  <rect id="Rectangle_9181" data-name="Rectangle 9181" width="37.91" height="8.639" transform="translate(-0.001)" fill="#eef6ff"/>
                  <rect id="Rectangle_9182" data-name="Rectangle 9182" width="37.91" height="8.639" transform="translate(-0.001 13.297)" fill="#eef6ff"/>
                  <rect id="Rectangle_9183" data-name="Rectangle 9183" width="37.91" height="8.639" transform="translate(-0.001 26.871)" fill="#eef6ff"/>
                  <rect id="Rectangle_9184" data-name="Rectangle 9184" width="37.91" height="8.639" transform="translate(-0.001 40.662)" fill="#eef6ff"/>
                  <rect id="Rectangle_9185" data-name="Rectangle 9185" width="37.91" height="8.639" transform="translate(-0.001 53.968)" fill="#eef6ff"/>
                </g>
              </g>
            </g>
          </g>
        </g>
      </g>
    </g>
    <g id="Group_84808" data-name="Group 84808" transform="translate(465.854 200.379)">
      <g id="Speech_Bubble" data-name="Speech Bubble" transform="translate(313.497 65.871)">
        <g id="Group_343" data-name="Group 343" transform="translate(0 0)">
          <g id="Group_342" data-name="Group 342">
            <path id="Path_126" data-name="Path 126" d="M35.012,107.293l13.9-3.415-.1-.017a23.11,23.11,0,0,0,12,3.6,25.111,25.111,0,0,0,7.436-1.086,22.986,22.986,0,0,0,7.246-3.841A23.289,23.289,0,0,0,84.257,87.04a23.008,23.008,0,0,0-5.972-18.558,24.152,24.152,0,0,0-4.026-3.507c-.751-.464-1.493-.946-2.267-1.354l-1.182-.569-.589-.283-.612-.224a23.441,23.441,0,0,0-9.994-1.522A23.138,23.138,0,0,0,39.216,76.6a23.966,23.966,0,0,0-1.284,7.5,23.04,23.04,0,0,0,3.33,12.041l0-.126-6.249,11.276L41.478,96.14l.036-.063-.037-.063A22.9,22.9,0,0,1,38.268,84.1a23.711,23.711,0,0,1,1.3-7.384A22.774,22.774,0,0,1,59.643,61.468a23.049,23.049,0,0,1,9.8,1.5l.6.22.577.278,1.158.558c.759.4,1.485.874,2.221,1.329a23.718,23.718,0,0,1,3.946,3.439,22.824,22.824,0,0,1-2.706,33.417,22.654,22.654,0,0,1-7.11,3.8,24.837,24.837,0,0,1-7.314,1.1,22.924,22.924,0,0,1-11.865-3.475l-.048-.03-.054.014Z" transform="translate(-35.012 -60.971)" fill="none" stroke="#e8f2ff" stroke-width="1.048"/>
          </g>
          <path id="Path_99563" data-name="Path 99563" d="M25.417,25.32a1.625,1.625,0,0,1-2.3,0l-6.034-6.034-6.321,6.321a1.625,1.625,0,0,1-2.3-2.3l6.321-6.321L8.752,10.954a1.625,1.625,0,0,1,2.3-2.3l6.034,6.034,5.746-5.746a1.625,1.625,0,0,1,2.3,2.3l-5.746,5.746,6.034,6.034A1.625,1.625,0,0,1,25.417,25.32Z" transform="translate(8.613 5.714)" fill="#20abe1"/>
        </g>
      </g>
      <g id="Group_84913" data-name="Group 84913" transform="translate(3260.146 -5666.633)">
        <g id="Group_84917" data-name="Group 84917" transform="translate(-3082.801 5804.979)">
          <rect id="Rectangle_9466" data-name="Rectangle 9466" width="158.07" height="56.7" rx="4.431" transform="translate(0 0.562)" fill="#f5f5f5"/>
          <g id="Device" transform="translate(0 0)">
            <g id="Group_1122" data-name="Group 1122" transform="translate(0 0)">
              <g id="Group_759" data-name="Group 759">
                <g id="Group_648" data-name="Group 648">
                  <g id="Group_647" data-name="Group 647">
                    <path id="Rectangle_19" data-name="Rectangle 19" d="M3.993,0H67.038a0,0,0,0,1,0,0V56.6a0,0,0,0,1,0,0H3.992A3.992,3.992,0,0,1,0,52.608V3.993A3.993,3.993,0,0,1,3.993,0Z" fill="#fff"/>
                  </g>
                </g>
                <g id="Group_704" data-name="Group 704" transform="translate(72.205 12.625)">
                  <g id="Group_703" data-name="Group 703">
                    <g id="Group_702" data-name="Group 702">
                      <path id="Path_102" data-name="Path 102" d="M291.5,107.708c0,.151-5.407.273-12.076.273s-12.077-.122-12.077-.273,5.406-.272,12.077-.272S291.5,107.557,291.5,107.708Z" transform="translate(-267.352 -107.436)" fill="#263238"/>
                    </g>
                  </g>
                </g>
                <g id="Group_707" data-name="Group 707" transform="translate(71.956 20.068)">
                  <g id="Group_706" data-name="Group 706">
                    <g id="Group_705" data-name="Group 705">
                      <path id="Path_103" data-name="Path 103" d="M314.8,114.821c0,.151-10.675.272-23.839.272s-23.843-.121-23.843-.272,10.672-.273,23.843-.273S314.8,114.67,314.8,114.821Z" transform="translate(-267.114 -114.548)" fill="#263238"/>
                    </g>
                  </g>
                </g>
                <g id="Group_710" data-name="Group 710" transform="translate(71.956 24.436)">
                  <g id="Group_709" data-name="Group 709">
                    <g id="Group_708" data-name="Group 708">
                      <path id="Path_104" data-name="Path 104" d="M314.8,118.994c0,.151-10.675.272-23.839.272s-23.843-.121-23.843-.272,10.672-.272,23.843-.272S314.8,118.843,314.8,118.994Z" transform="translate(-267.114 -118.722)" fill="#263238"/>
                    </g>
                  </g>
                </g>
                <g id="Group_758" data-name="Group 758" transform="translate(73.539 47.739)">
                  <g id="Group_757" data-name="Group 757">
                    <g id="Group_756" data-name="Group 756">
                      <path id="Path_118" data-name="Path 118" d="M290.6,141.263c0,.151-4.919.272-10.984.272s-10.985-.121-10.985-.272,4.918-.273,10.985-.273S290.6,141.112,290.6,141.263Z" transform="translate(-268.627 -140.99)" fill="#263238"/>
                    </g>
                  </g>
                </g>
                <g id="Group_84913-2" data-name="Group 84913" transform="translate(132.962 44.022)">
                  <path id="Path_105" data-name="Path 105" d="M308.238,139.631a2.434,2.434,0,0,0-.588-1.337,2.336,2.336,0,0,0-1.2-.784,1.919,1.919,0,0,0-1.482.248,1.9,1.9,0,0,0-.621.665,1.889,1.889,0,0,0-2.01-.953,2.334,2.334,0,0,0-1.239.716,2.432,2.432,0,0,0-.661,1.3,2.964,2.964,0,0,0,.318,1.83,4.194,4.194,0,0,0,1.4,1.392c.927.593,2.148,1.34,2.148,1.34s1.071-.756,2.028-1.3a4.177,4.177,0,0,0,1.481-1.311A2.961,2.961,0,0,0,308.238,139.631Z" transform="translate(-300.409 -137.438)" fill="#e0d7d7"/>
                </g>
                <g id="Group_84915" data-name="Group 84915" transform="translate(11.053 9.463)">
                  <g id="Group_83667" data-name="Group 83667" transform="translate(0 0)">
                    <g id="Union_159" data-name="Union 159" transform="translate(10.778 6.244)" fill="none" stroke-linecap="round" stroke-linejoin="round">
                      <path d="M5.038,0H18.745c.976.379,4.3,1.752,5.038,5.051V23.726a5.044,5.044,0,0,1-5.038,5.051H5.038A5.044,5.044,0,0,1,0,23.726V5.051C.139,2.065,3.964.174,5.038,0Z" stroke="none"/>
                      <path d="M 5.112106323242188 0.7999992370605469 C 4.701107025146484 0.8897113800048828 3.645099639892578 1.330593109130859 2.661708831787109 2.100728988647461 C 1.84925651550293 2.736989974975586 0.8687801361083984 3.767656326293945 0.7999992370605469 5.070535659790039 L 0.7999992370605469 23.72637939453125 C 0.7999992370605469 26.07019805908203 2.700979232788086 27.97703742980957 5.037609100341797 27.97703742980957 L 18.74460983276367 27.97703742980957 C 21.08123970031738 27.97703742980957 22.98221969604492 26.07019805908203 22.98221969604492 23.72637939453125 L 22.98221969604492 5.142734527587891 C 22.41426658630371 2.801017761230469 20.31734657287598 1.494533538818359 18.59218597412109 0.7999992370605469 L 5.112106323242188 0.7999992370605469 M 5.037609100341797 -1.9073486328125e-06 L 18.74460983276367 -1.9073486328125e-06 C 19.72073936462402 0.3793277740478516 23.04107856750488 1.751998901367188 23.78221893310547 5.050668716430664 L 23.78221893310547 23.72637939453125 C 23.78221893310547 26.51578903198242 21.52680015563965 28.77703857421875 18.74460983276367 28.77703857421875 L 5.037609100341797 28.77703857421875 C 2.25541877746582 28.77703857421875 0 26.51578903198242 0 23.72637939453125 L 0 5.050668716430664 C 0.1388893127441406 2.064619064331055 3.964469909667969 0.1741790771484375 5.037609100341797 -1.9073486328125e-06 Z" stroke="none" fill="#000"/>
                    </g>
                    <g id="Group_80859" data-name="Group 80859" transform="translate(15.347)">
                      <g id="Path_98392" data-name="Path 98392" transform="translate(0.117 3.876)" fill="none" stroke-linecap="round" stroke-linejoin="round">
                        <path d="M0-3.417a53.075,53.075,0,0,1,6.725-.459,74.45,74.45,0,0,1,7.45.459V-.335H0Z" stroke="none"/>
                        <path d="M 6.725363254547119 -3.075978755950928 C 4.240658760070801 -3.075978755950928 1.91331672668457 -2.843050003051758 0.8000030517578125 -2.711904048919678 L 0.8000030517578125 -1.134998798370361 L 13.37560367584229 -1.134998798370361 L 13.37560367584229 -2.697582244873047 C 12.09802913665771 -2.826690435409546 9.297891616821289 -3.075978755950928 6.725363254547119 -3.075978755950928 M 6.725363254547119 -3.875978708267212 C 10.26926326751709 -3.875978708267212 14.17560291290283 -3.41658878326416 14.17560291290283 -3.41658878326416 L 14.17560291290283 -0.3349988460540771 L 3.814697265625e-06 -0.3349988460540771 L 3.814697265625e-06 -3.41658878326416 C 3.814697265625e-06 -3.41658878326416 3.181453704833984 -3.875978708267212 6.725363254547119 -3.875978708267212 Z" stroke="none" fill="#000"/>
                      </g>
                      <g id="Rectangle_8933" data-name="Rectangle 8933" transform="translate(0 3.885)" fill="none" stroke="#000" stroke-linecap="round" stroke-linejoin="round" stroke-width="0.8">
                        <rect id="fill" width="14.527" height="0.474" rx="0.237" stroke="none"/>
                        <path d="M0,0.074089914560318h14.527068138122559M14.127068132162094,0v0.47408992052078247M14.527068138122559,0.4000000059604645h-14.527068138122559M0.4000000059604645,0.47408992052078247v-0.47408992052078247" fill="none" clip-path="url(#clip)"/>
                      </g>
                      <g id="Rectangle_8934" data-name="Rectangle 8934" transform="translate(0 4.359)" fill="none" stroke="#000" stroke-linecap="round" stroke-linejoin="round" stroke-width="0.8">
                        <rect width="14.527" height="1.067" rx="0.533" stroke="none"/>
                        <rect x="0.4" y="0.4" width="13.727" height="0.267" rx="0.133" fill="none"/>
                      </g>
                    </g>
                    <g id="Group_80860" data-name="Group 80860" transform="translate(0 6.284)">
                      <g id="noun-body-building-3001853" transform="translate(-133.325 -70.021)" fill="none" stroke-linecap="round" stroke-linejoin="round">
                        <path d="M174.907,73.24a2.2,2.2,0,0,1-1.791.166.888.888,0,0,1-.423-.378.63.63,0,0,1-.042-.52.683.683,0,0,1,.138-.227l-.872-.129.03-.2-.03.2a.206.206,0,0,1-.174-.175,1.456,1.456,0,0,1,1.142-1.788h0l.011,0a8.072,8.072,0,0,1,2.62-.087h0a.209.209,0,0,1,.058.021c1.2.5,2.137,4.9,2.679,7.464.13.615.238,1.123.316,1.428h0a.2.2,0,0,1,0,.091,2.36,2.36,0,0,1-1.915,2.049c-.348.177-4.308,2.114-7.227.075a2.656,2.656,0,0,1-2.1,1.971h0a.206.206,0,0,1-.233-.174.2.2,0,0,1,0-.032V75.58a.206.206,0,0,1,.182-.2c.241-.048,3.062-.568,4.122,1.048a2.14,2.14,0,0,1,3-.069l.508-3.113Zm-1.932-2.65-.007,0C172.137,70.768,173.1,70.566,172.975,70.591Z" stroke="none"/>
                        <path d="M 174.5915374755859 70.82122802734375 L 174.591552734375 70.82122802734375 C 174.1773681640625 70.82123565673828 173.7749328613281 70.862548828125 173.4840698242188 70.90220642089844 L 173.6635284423828 71.01535034179688 C 173.482666015625 71.30220031738281 173.2463226318359 71.35216522216797 172.9726715087891 71.41000366210938 C 172.8139801025391 71.44354248046875 172.7519378662109 71.45665740966797 172.7072906494141 71.46178436279297 L 172.9059906005859 71.49121856689453 C 173.1980590820312 71.53449249267578 173.4425506591797 71.73512268066406 173.5420074462891 72.01313018798828 C 173.6231384277344 72.23994445800781 173.5969848632812 72.48815155029297 173.4768676757812 72.69065093994141 C 173.5246887207031 72.7080078125 173.6072082519531 72.72824859619141 173.7319488525391 72.72824859619141 C 173.8984222412109 72.72824859619141 174.1784515380859 72.69117736816406 174.5692138671875 72.51525115966797 C 174.7309417724609 72.43984985351562 174.9145355224609 72.42018127441406 175.0905914306641 72.46160125732422 C 175.4303588867188 72.54154205322266 175.6790924072266 72.83255004882812 175.7051391601562 73.18061828613281 C 175.7104339599609 73.25131988525391 175.7062835693359 73.32103729248047 175.693603515625 73.38837432861328 L 175.1883850097656 76.48225402832031 C 175.1422882080078 76.76456451416016 174.9489593505859 77.00077056884766 174.6813507080078 77.10178375244141 C 174.4137268066406 77.20277404785156 174.1125183105469 77.15323638916016 173.8914031982422 76.97177886962891 C 173.5655212402344 76.70441436767578 173.2454833984375 76.56885528564453 172.9401397705078 76.56887817382812 C 172.4957275390625 76.56890869140625 172.1220397949219 76.84822845458984 171.9388580322266 77.01473236083984 C 171.7656555175781 77.17212677001953 171.5322570800781 77.24577331542969 171.3000793457031 77.21635437011719 C 171.0679321289062 77.1868896484375 170.8602905273438 77.0572509765625 170.7319183349609 76.86159515380859 C 170.2960968017578 76.19737243652344 169.3121032714844 76.05795288085938 168.5634002685547 76.05795288085938 C 168.3129425048828 76.05795288085938 168.0833892822266 76.07402038574219 167.8973388671875 76.09345245361328 L 167.8973388671875 82.14015960693359 C 168.3432922363281 81.82695770263672 168.5640411376953 81.3245849609375 168.6667938232422 80.99163818359375 C 168.7421722412109 80.74745178222656 168.9296722412109 80.553955078125 169.1713714599609 80.47095489501953 C 169.4130554199219 80.38793182373047 169.6798858642578 80.42540740966797 169.8893890380859 80.57176971435547 C 170.6325836181641 81.09098815917969 171.5390625 81.35426330566406 172.5836334228516 81.35426330566406 C 174.4447021484375 81.35426330566406 176.1114196777344 80.53359222412109 176.2953491210938 80.44001007080078 C 176.3606567382812 80.40678405761719 176.4302215576172 80.38268280029297 176.5020904541016 80.36839294433594 C 177.4810333251953 80.17373657226562 177.7127075195312 79.39356231689453 177.7657165527344 79.09725952148438 C 177.6862487792969 78.77035522460938 177.5853576660156 78.29342651367188 177.4705505371094 77.75072479248047 C 177.2095489501953 76.51750183105469 176.8520965576172 74.82855224609375 176.4223022460938 73.39639282226562 C 175.8142852783203 71.37032318115234 175.3781433105469 70.94401550292969 175.2819519042969 70.87079620361328 C 175.0843353271484 70.837890625 174.8525543212891 70.82122802734375 174.5915374755859 70.82122802734375 M 174.5915374755859 70.02123260498047 C 174.9043121337891 70.02123260498047 175.2238159179688 70.04251098632812 175.5152740478516 70.10020446777344 L 175.5157470703125 70.10007476806641 C 175.5365753173828 70.104248046875 175.5559692382812 70.11135864257812 175.5737457275391 70.12091064453125 C 176.7787322998047 70.61824798583984 177.7107849121094 75.02212524414062 178.2532196044922 77.58506774902344 C 178.3833923339844 78.200439453125 178.4909057617188 78.70819854736328 178.5693359375 79.01356506347656 L 178.5701904296875 79.01332092285156 C 178.5781707763672 79.04408264160156 178.5786590576172 79.07508850097656 178.5728912353516 79.10427856445312 C 178.5503234863281 79.30458068847656 178.3256378173828 80.82146453857422 176.6581115722656 81.15303039550781 C 176.3099670410156 81.33016967773438 172.3503570556641 83.26699829101562 169.4312133789062 81.22756958007812 C 169.2530975341797 81.80469512939453 168.7212219238281 82.99721527099609 167.3327026367188 83.19847869873047 L 167.3327026367188 83.19886016845703 C 167.2200775146484 83.21518707275391 167.1157073974609 83.1370849609375 167.0994262695312 83.02454376220703 C 167.0978240966797 83.01376342773438 167.0972137451172 83.00321960449219 167.0973358154297 82.99266815185547 L 167.0973358154297 75.57968139648438 C 167.0973358154297 75.47412872314453 167.1767578125 75.38709259033203 167.2791137695312 75.37509155273438 C 167.5196380615234 75.32740783691406 170.3408966064453 74.80740356445312 171.4007873535156 76.42271423339844 C 171.8528900146484 76.01179504394531 173.0179290771484 75.22027587890625 174.3988494873047 76.35332489013672 L 174.9071807861328 73.24041748046875 C 174.9072265625 73.24039459228516 174.9073181152344 73.2403564453125 174.9073638916016 73.24033355712891 L 174.9071960449219 73.24028778076172 L 174.9071807861328 73.24041748046875 C 174.1123809814453 73.60062408447266 173.4983520507812 73.58197784423828 173.1160125732422 73.40669250488281 C 172.9170989990234 73.31548309326172 172.7741394042969 73.18074798583984 172.6928863525391 73.02912902832031 C 172.6043853759766 72.86399841308594 172.5885467529297 72.68122863769531 172.6504669189453 72.50948333740234 C 172.6794128417969 72.42931365966797 172.7253723144531 72.35245513916016 172.7887420654297 72.28258514404297 L 171.9165496826172 72.15335845947266 L 171.9463348388672 71.94987487792969 L 171.9161682128906 72.15361785888672 C 171.8236389160156 72.13988494873047 171.7546234130859 72.06658172607422 171.7423553466797 71.97843933105469 C 171.7129516601562 71.82704925537109 171.4922790527344 70.48339080810547 172.8838653564453 70.19017791748047 L 172.8837432861328 70.18970489501953 C 172.8875427246094 70.18883514404297 172.8913421630859 70.18822479248047 172.89501953125 70.18759918212891 C 172.9823150634766 70.17043304443359 173.7632751464844 70.021240234375 174.5915374755859 70.02123260498047 Z M 172.9868011474609 70.58867645263672 C 172.9868011474609 70.58866882324219 172.9867858886719 70.58866882324219 172.9867553710938 70.58866882324219 C 172.9867858886719 70.58866882324219 172.9868011474609 70.58866882324219 172.9868011474609 70.58867645263672 C 172.9872283935547 70.58957672119141 172.6286315917969 70.66506195068359 172.6269073486328 70.66506195068359 C 172.6286315917969 70.66506195068359 172.9872283935547 70.58957672119141 172.9868011474609 70.58867645263672 Z" stroke="none" fill="#000"/>
                      </g>
                      <g id="noun-body-building-3001853-2" data-name="noun-body-building-3001853" transform="translate(-167.097 -70.021)" fill="none" stroke-linecap="round" stroke-linejoin="round">
                        <path d="M170.767,73.24a2.2,2.2,0,0,0,1.791.166.889.889,0,0,0,.423-.378.63.63,0,0,0,.042-.52.683.683,0,0,0-.138-.227l.872-.129-.03-.2.03.2a.206.206,0,0,0,.174-.175,1.456,1.456,0,0,0-1.142-1.788h0l-.011,0a8.072,8.072,0,0,0-2.62-.087h0a.209.209,0,0,0-.058.021c-1.205.5-2.137,4.9-2.679,7.464-.13.615-.238,1.123-.316,1.429h0a.2.2,0,0,0,0,.091,2.36,2.36,0,0,0,1.915,2.049c.348.177,4.308,2.114,7.227.075a2.656,2.656,0,0,0,2.1,1.971h0a.206.206,0,0,0,.233-.174.2.2,0,0,0,0-.032V75.58a.206.206,0,0,0-.182-.2c-.24-.048-3.062-.568-4.122,1.048a2.14,2.14,0,0,0-3-.069l-.508-3.113Zm1.932-2.65.007,0C173.537,70.768,172.572,70.566,172.7,70.591Z" stroke="none"/>
                        <path d="M 171.0825805664062 70.82123565673828 C 170.8215637207031 70.82123565673828 170.5897979736328 70.837890625 170.3921813964844 70.87079620361328 C 170.2959899902344 70.94400787353516 169.8598327636719 71.37029266357422 169.2518463134766 73.39626312255859 C 168.8220672607422 74.82836151123047 168.4646148681641 76.51732635498047 168.2035827636719 77.75070190429688 C 168.0888061523438 78.29325103759766 167.9879455566406 78.77003479003906 167.9083404541016 79.09734344482422 C 167.9613037109375 79.39358520507812 168.1928863525391 80.17377471923828 169.1720123291016 80.36846160888672 C 169.243896484375 80.38275146484375 169.3134613037109 80.40685272216797 169.3787841796875 80.44009399414062 C 169.5626983642578 80.53367614746094 171.2293548583984 81.35434722900391 173.0904693603516 81.35434722900391 C 174.1350555419922 81.35434722900391 175.0415344238281 81.09107208251953 175.7847442626953 80.57183837890625 C 175.9942474365234 80.42546081542969 176.2610778808594 80.38799285888672 176.5027770996094 80.47101593017578 C 176.7444915771484 80.55402374267578 176.9319915771484 80.74752807617188 177.0073547363281 80.99173736572266 C 177.110107421875 81.32469940185547 177.3307800292969 81.82704925537109 177.7768096923828 82.1402587890625 L 177.7768096923828 76.09346771240234 C 177.5908203125 76.07404327392578 177.3612670898438 76.0579833984375 177.1107788085938 76.0579833984375 C 176.3620300292969 76.0579833984375 175.3780212402344 76.19741821289062 174.9421691894531 76.86164855957031 C 174.8137817382812 77.05730438232422 174.6061553955078 77.18694305419922 174.3739776611328 77.21639251708984 C 174.1419067382812 77.24582672119141 173.9084014892578 77.17217254638672 173.7352142333984 77.01474761962891 C 173.5520324707031 76.84824371337891 173.1783905029297 76.56891632080078 172.7340240478516 76.56891632080078 C 172.4286193847656 76.56891632080078 172.1085357666016 76.70447540283203 171.7826843261719 76.97182464599609 C 171.5615386962891 77.15326690673828 171.2603759765625 77.20281219482422 170.9927368164062 77.10181427001953 C 170.7251281738281 77.00079345703125 170.5318145751953 76.76458740234375 170.4857177734375 76.48228454589844 L 169.9798278808594 73.38420867919922 C 169.9690551757812 73.3251953125 169.9648132324219 73.26432037353516 169.9677276611328 73.20256805419922 C 169.9838256835938 72.86198425292969 170.2140960693359 72.56901550292969 170.5411987304688 72.47281646728516 C 170.7293395996094 72.41745758056641 170.9299774169922 72.43354034423828 171.1054534912109 72.51551818847656 C 171.4959564208984 72.69123077392578 171.7757873535156 72.72826385498047 171.9421691894531 72.72826385498047 C 172.0669403076172 72.72826385498047 172.1494750976562 72.70801544189453 172.197265625 72.69066619873047 C 172.0771636962891 72.48818969726562 172.0509796142578 72.239990234375 172.1320953369141 72.01318359375 C 172.2315368652344 71.73514556884766 172.4760437011719 71.53448486328125 172.7681427001953 71.49122619628906 L 172.9668884277344 71.46178436279297 C 172.9222259521484 71.4566650390625 172.8601989746094 71.44355773925781 172.7014617919922 71.41000366210938 C 172.4273376464844 71.35206604003906 172.2108154296875 71.30630493164062 172.0292205810547 71.04356384277344 L 172.2264556884766 70.9072265625 C 171.9333648681641 70.86611938476562 171.5144195556641 70.82123565673828 171.0825805664062 70.82123565673828 M 171.0825805664062 70.021240234375 C 171.9108581542969 70.021240234375 172.6918182373047 70.17044067382812 172.7790832519531 70.18760681152344 C 172.7827606201172 70.18822479248047 172.7865753173828 70.18882751464844 172.7903747558594 70.189697265625 L 172.7902374267578 70.190185546875 C 174.1818389892578 70.4833984375 173.961181640625 71.82706451416016 173.9317474365234 71.97844696044922 C 173.9195098876953 72.06658172607422 173.8504943847656 72.139892578125 173.7579345703125 72.15363311767578 L 173.7277984619141 71.94989776611328 L 173.757568359375 72.15338134765625 L 172.8853759765625 72.28258514404297 C 172.9487609863281 72.35245513916016 172.9947204589844 72.4293212890625 173.0236663818359 72.50949859619141 C 173.0855712890625 72.68125152587891 173.0697479248047 72.86402130126953 172.9812469482422 73.02915191650391 C 172.8999786376953 73.1807861328125 172.7570343017578 73.31549835205078 172.5580902099609 73.40671539306641 C 172.17578125 73.58198547363281 171.5617370605469 73.60064697265625 170.7669372558594 73.24044036865234 L 170.7669219970703 73.24030303955078 L 170.7667541503906 73.2403564453125 C 170.7667999267578 73.24037933349609 170.7668914794922 73.24041748046875 170.7669372558594 73.24044036865234 L 171.2752532958984 76.35335540771484 C 172.6561737060547 75.22032928466797 173.8212432861328 76.0118408203125 174.2733154296875 76.42275238037109 C 175.333251953125 74.80741882324219 178.154541015625 75.32743835449219 178.3950042724609 75.3751220703125 C 178.4973754882812 75.38712310791016 178.5768127441406 75.47417449951172 178.5768127441406 75.5797119140625 L 178.5768127441406 82.99275207519531 C 178.5769348144531 83.0032958984375 178.5763092041016 83.01383209228516 178.5747222900391 83.02463531494141 C 178.5584106445312 83.13716888427734 178.4539794921875 83.21527862548828 178.3414459228516 83.19895172119141 L 178.3414459228516 83.19857788085938 C 176.9529418945312 82.99729156494141 176.4210357666016 81.80478668212891 176.242919921875 81.22763824462891 C 173.32373046875 83.26708221435547 169.3641204833984 81.33023834228516 169.0159912109375 81.15310668945312 C 167.3484497070312 80.82152557373047 167.1237335205078 79.30464172363281 167.1011962890625 79.10433197021484 C 167.0954132080078 79.07516479492188 167.0959167480469 79.04415130615234 167.1038970947266 79.01338195800781 L 167.104736328125 79.01362609863281 C 167.1831817626953 78.70824432373047 167.2907257080078 78.20048522949219 167.4208984375 77.58512115478516 C 167.9633331298828 75.02215576171875 168.8953399658203 70.61827850341797 170.1003723144531 70.12091827392578 C 170.1181488037109 70.11136627197266 170.1375122070312 70.10425567626953 170.1583557128906 70.10007476806641 L 170.1588439941406 70.10020446777344 C 170.4503021240234 70.04251098632812 170.7698059082031 70.021240234375 171.0825805664062 70.021240234375 Z M 172.6873168945312 70.58868408203125 C 172.6873168945312 70.58867645263672 172.6873321533203 70.58867645263672 172.6873474121094 70.58867645263672 C 172.6873321533203 70.58867645263672 172.6873168945312 70.58867645263672 172.6873168945312 70.58868408203125 C 172.6869659423828 70.58958435058594 173.0454406738281 70.66506195068359 173.0472106933594 70.66506195068359 C 173.0454406738281 70.66506195068359 172.6869659423828 70.58958435058594 172.6873168945312 70.58868408203125 Z" stroke="none" fill="#000"/>
                      </g>
                    </g>
                    <g id="noun-smile-169431" transform="translate(16.776 15.401)">
                      <path id="Path_98399" data-name="Path 98399" d="M78.57,51a22.285,22.285,0,0,0,5.413.739A29.257,29.257,0,0,0,89.87,51a6.379,6.379,0,0,1-5.887,3.306A5.648,5.648,0,0,1,78.57,51Z" transform="translate(-78.57 -43.847)" fill="#20abe1" stroke="#20abe1" stroke-linecap="round" stroke-linejoin="round" stroke-width="0.8"/>
                      <g id="noun-smile-169431-2" data-name="noun-smile-169431" transform="translate(1.239)">
                        <path id="Path_98401" data-name="Path 98401" d="M6876.87-15844.248v-1.977" transform="translate(-6876.87 15846.225)" fill="none" stroke="#20abe1" stroke-linecap="round" stroke-width="0.8"/>
                        <path id="Path_98403" data-name="Path 98403" d="M6876.87-15844.248v-1.977" transform="translate(-6867.61 15846.225)" fill="none" stroke="#20abe1" stroke-linecap="round" stroke-width="0.8"/>
                      </g>
                    </g>
                  </g>
                </g>
              </g>
            </g>
          </g>
        </g>
        <g id="Group_84916" data-name="Group 84916" transform="translate(-3125.801 5737.188)">
          <rect id="Rectangle_9466-2" data-name="Rectangle 9466" width="158.07" height="56.7" rx="4.431" transform="translate(0 0.562)" fill="#f5f5f5"/>
          <g id="Device-2" data-name="Device" transform="translate(0 0)">
            <g id="Group_1122-2" data-name="Group 1122" transform="translate(0 0)">
              <g id="Group_759-2" data-name="Group 759">
                <g id="Group_648-2" data-name="Group 648">
                  <g id="Group_647-2" data-name="Group 647">
                    <path id="Rectangle_19-2" data-name="Rectangle 19" d="M3.993,0H67.038a0,0,0,0,1,0,0V56.6a0,0,0,0,1,0,0H3.992A3.992,3.992,0,0,1,0,52.608V3.993A3.993,3.993,0,0,1,3.993,0Z" fill="#ebebeb"/>
                  </g>
                </g>
                <g id="Group_704-2" data-name="Group 704" transform="translate(72.205 12.625)">
                  <g id="Group_703-2" data-name="Group 703">
                    <g id="Group_702-2" data-name="Group 702">
                      <path id="Path_102-2" data-name="Path 102" d="M291.5,107.708c0,.151-5.407.273-12.076.273s-12.077-.122-12.077-.273,5.406-.272,12.077-.272S291.5,107.557,291.5,107.708Z" transform="translate(-267.352 -107.436)" fill="#263238"/>
                    </g>
                  </g>
                </g>
                <g id="Group_707-2" data-name="Group 707" transform="translate(71.956 20.068)">
                  <g id="Group_706-2" data-name="Group 706">
                    <g id="Group_705-2" data-name="Group 705">
                      <path id="Path_103-2" data-name="Path 103" d="M314.8,114.821c0,.151-10.675.272-23.839.272s-23.843-.121-23.843-.272,10.672-.273,23.843-.273S314.8,114.67,314.8,114.821Z" transform="translate(-267.114 -114.548)" fill="#263238"/>
                    </g>
                  </g>
                </g>
                <g id="Group_710-2" data-name="Group 710" transform="translate(71.956 24.436)">
                  <g id="Group_709-2" data-name="Group 709">
                    <g id="Group_708-2" data-name="Group 708">
                      <path id="Path_104-2" data-name="Path 104" d="M314.8,118.994c0,.151-10.675.272-23.839.272s-23.843-.121-23.843-.272,10.672-.272,23.843-.272S314.8,118.843,314.8,118.994Z" transform="translate(-267.114 -118.722)" fill="#263238"/>
                    </g>
                  </g>
                </g>
                <g id="Group_758-2" data-name="Group 758" transform="translate(73.539 47.739)">
                  <g id="Group_757-2" data-name="Group 757">
                    <g id="Group_756-2" data-name="Group 756">
                      <path id="Path_118-2" data-name="Path 118" d="M290.6,141.263c0,.151-4.919.272-10.984.272s-10.985-.121-10.985-.272,4.918-.273,10.985-.273S290.6,141.112,290.6,141.263Z" transform="translate(-268.627 -140.99)" fill="#263238"/>
                    </g>
                  </g>
                </g>
                <g id="Group_84913-3" data-name="Group 84913" transform="translate(132.962 44.022)">
                  <path id="Path_105-2" data-name="Path 105" d="M308.238,139.631a2.434,2.434,0,0,0-.588-1.337,2.336,2.336,0,0,0-1.2-.784,1.919,1.919,0,0,0-1.482.248,1.9,1.9,0,0,0-.621.665,1.889,1.889,0,0,0-2.01-.953,2.334,2.334,0,0,0-1.239.716,2.432,2.432,0,0,0-.661,1.3,2.964,2.964,0,0,0,.318,1.83,4.194,4.194,0,0,0,1.4,1.392c.927.593,2.148,1.34,2.148,1.34s1.071-.756,2.028-1.3a4.177,4.177,0,0,0,1.481-1.311A2.961,2.961,0,0,0,308.238,139.631Z" transform="translate(-300.409 -137.438)" fill="#e0d7d7"/>
                </g>
                <g id="Group_84915-2" data-name="Group 84915" transform="translate(11.053 9.463)">
                  <g id="Group_83667-2" data-name="Group 83667" transform="translate(0 0)">
                    <g id="Union_159-2" data-name="Union 159" transform="translate(10.778 6.244)" fill="none" stroke-linecap="round" stroke-linejoin="round">
                      <path d="M5.038,0H18.745c.976.379,4.3,1.752,5.038,5.051V23.726a5.044,5.044,0,0,1-5.038,5.051H5.038A5.044,5.044,0,0,1,0,23.726V5.051C.139,2.065,3.964.174,5.038,0Z" stroke="none"/>
                      <path d="M 5.112106323242188 0.7999992370605469 C 4.701107025146484 0.8897113800048828 3.645099639892578 1.330593109130859 2.661708831787109 2.100728988647461 C 1.84925651550293 2.736989974975586 0.8687801361083984 3.767656326293945 0.7999992370605469 5.070535659790039 L 0.7999992370605469 23.72637939453125 C 0.7999992370605469 26.07019805908203 2.700979232788086 27.97703742980957 5.037609100341797 27.97703742980957 L 18.74460983276367 27.97703742980957 C 21.08123970031738 27.97703742980957 22.98221969604492 26.07019805908203 22.98221969604492 23.72637939453125 L 22.98221969604492 5.142734527587891 C 22.41426658630371 2.801017761230469 20.31734657287598 1.494533538818359 18.59218597412109 0.7999992370605469 L 5.112106323242188 0.7999992370605469 M 5.037609100341797 -1.9073486328125e-06 L 18.74460983276367 -1.9073486328125e-06 C 19.72073936462402 0.3793277740478516 23.04107856750488 1.751998901367188 23.78221893310547 5.050668716430664 L 23.78221893310547 23.72637939453125 C 23.78221893310547 26.51578903198242 21.52680015563965 28.77703857421875 18.74460983276367 28.77703857421875 L 5.037609100341797 28.77703857421875 C 2.25541877746582 28.77703857421875 0 26.51578903198242 0 23.72637939453125 L 0 5.050668716430664 C 0.1388893127441406 2.064619064331055 3.964469909667969 0.1741790771484375 5.037609100341797 -1.9073486328125e-06 Z" stroke="none" fill="#000"/>
                    </g>
                    <g id="Group_80859-2" data-name="Group 80859" transform="translate(15.347)">
                      <g id="Path_98392-2" data-name="Path 98392" transform="translate(0.117 3.876)" fill="none" stroke-linecap="round" stroke-linejoin="round">
                        <path d="M0-3.417a53.075,53.075,0,0,1,6.725-.459,74.45,74.45,0,0,1,7.45.459V-.335H0Z" stroke="none"/>
                        <path d="M 6.725363254547119 -3.075978755950928 C 4.240658760070801 -3.075978755950928 1.91331672668457 -2.843050003051758 0.8000030517578125 -2.711904048919678 L 0.8000030517578125 -1.134998798370361 L 13.37560367584229 -1.134998798370361 L 13.37560367584229 -2.697582244873047 C 12.09802913665771 -2.826690435409546 9.297891616821289 -3.075978755950928 6.725363254547119 -3.075978755950928 M 6.725363254547119 -3.875978708267212 C 10.26926326751709 -3.875978708267212 14.17560291290283 -3.41658878326416 14.17560291290283 -3.41658878326416 L 14.17560291290283 -0.3349988460540771 L 3.814697265625e-06 -0.3349988460540771 L 3.814697265625e-06 -3.41658878326416 C 3.814697265625e-06 -3.41658878326416 3.181453704833984 -3.875978708267212 6.725363254547119 -3.875978708267212 Z" stroke="none" fill="#000"/>
                      </g>
                      <g id="Rectangle_8933-2" data-name="Rectangle 8933" transform="translate(0 3.885)" fill="none" stroke="#000" stroke-linecap="round" stroke-linejoin="round" stroke-width="0.8">
                        <rect id="fill-2" width="14.527" height="0.474" rx="0.237" stroke="none"/>
                        <path d="M0,0.074089914560318h14.527068138122559M14.127068132162094,0v0.47408992052078247M14.527068138122559,0.4000000059604645h-14.527068138122559M0.4000000059604645,0.47408992052078247v-0.47408992052078247" fill="none" clip-path="url(#clip-2)"/>
                      </g>
                      <g id="Rectangle_8934-2" data-name="Rectangle 8934" transform="translate(0 4.359)" fill="none" stroke="#000" stroke-linecap="round" stroke-linejoin="round" stroke-width="0.8">
                        <rect width="14.527" height="1.067" rx="0.533" stroke="none"/>
                        <rect x="0.4" y="0.4" width="13.727" height="0.267" rx="0.133" fill="none"/>
                      </g>
                    </g>
                    <g id="Group_80860-2" data-name="Group 80860" transform="translate(0 6.284)">
                      <g id="noun-body-building-3001853-3" data-name="noun-body-building-3001853" transform="translate(-133.325 -70.021)" fill="none" stroke-linecap="round" stroke-linejoin="round">
                        <path d="M174.907,73.24a2.2,2.2,0,0,1-1.791.166.888.888,0,0,1-.423-.378.63.63,0,0,1-.042-.52.683.683,0,0,1,.138-.227l-.872-.129.03-.2-.03.2a.206.206,0,0,1-.174-.175,1.456,1.456,0,0,1,1.142-1.788h0l.011,0a8.072,8.072,0,0,1,2.62-.087h0a.209.209,0,0,1,.058.021c1.2.5,2.137,4.9,2.679,7.464.13.615.238,1.123.316,1.428h0a.2.2,0,0,1,0,.091,2.36,2.36,0,0,1-1.915,2.049c-.348.177-4.308,2.114-7.227.075a2.656,2.656,0,0,1-2.1,1.971h0a.206.206,0,0,1-.233-.174.2.2,0,0,1,0-.032V75.58a.206.206,0,0,1,.182-.2c.241-.048,3.062-.568,4.122,1.048a2.14,2.14,0,0,1,3-.069l.508-3.113Zm-1.932-2.65-.007,0C172.137,70.768,173.1,70.566,172.975,70.591Z" stroke="none"/>
                        <path d="M 174.5915374755859 70.82122802734375 L 174.591552734375 70.82122802734375 C 174.1773681640625 70.82123565673828 173.7749328613281 70.862548828125 173.4840698242188 70.90220642089844 L 173.6635284423828 71.01535034179688 C 173.482666015625 71.30220031738281 173.2463226318359 71.35216522216797 172.9726715087891 71.41000366210938 C 172.8139801025391 71.44354248046875 172.7519378662109 71.45665740966797 172.7072906494141 71.46178436279297 L 172.9059906005859 71.49121856689453 C 173.1980590820312 71.53449249267578 173.4425506591797 71.73512268066406 173.5420074462891 72.01313018798828 C 173.6231384277344 72.23994445800781 173.5969848632812 72.48815155029297 173.4768676757812 72.69065093994141 C 173.5246887207031 72.7080078125 173.6072082519531 72.72824859619141 173.7319488525391 72.72824859619141 C 173.8984222412109 72.72824859619141 174.1784515380859 72.69117736816406 174.5692138671875 72.51525115966797 C 174.7309417724609 72.43984985351562 174.9145355224609 72.42018127441406 175.0905914306641 72.46160125732422 C 175.4303588867188 72.54154205322266 175.6790924072266 72.83255004882812 175.7051391601562 73.18061828613281 C 175.7104339599609 73.25131988525391 175.7062835693359 73.32103729248047 175.693603515625 73.38837432861328 L 175.1883850097656 76.48225402832031 C 175.1422882080078 76.76456451416016 174.9489593505859 77.00077056884766 174.6813507080078 77.10178375244141 C 174.4137268066406 77.20277404785156 174.1125183105469 77.15323638916016 173.8914031982422 76.97177886962891 C 173.5655212402344 76.70441436767578 173.2454833984375 76.56885528564453 172.9401397705078 76.56887817382812 C 172.4957275390625 76.56890869140625 172.1220397949219 76.84822845458984 171.9388580322266 77.01473236083984 C 171.7656555175781 77.17212677001953 171.5322570800781 77.24577331542969 171.3000793457031 77.21635437011719 C 171.0679321289062 77.1868896484375 170.8602905273438 77.0572509765625 170.7319183349609 76.86159515380859 C 170.2960968017578 76.19737243652344 169.3121032714844 76.05795288085938 168.5634002685547 76.05795288085938 C 168.3129425048828 76.05795288085938 168.0833892822266 76.07402038574219 167.8973388671875 76.09345245361328 L 167.8973388671875 82.14015960693359 C 168.3432922363281 81.82695770263672 168.5640411376953 81.3245849609375 168.6667938232422 80.99163818359375 C 168.7421722412109 80.74745178222656 168.9296722412109 80.553955078125 169.1713714599609 80.47095489501953 C 169.4130554199219 80.38793182373047 169.6798858642578 80.42540740966797 169.8893890380859 80.57176971435547 C 170.6325836181641 81.09098815917969 171.5390625 81.35426330566406 172.5836334228516 81.35426330566406 C 174.4447021484375 81.35426330566406 176.1114196777344 80.53359222412109 176.2953491210938 80.44001007080078 C 176.3606567382812 80.40678405761719 176.4302215576172 80.38268280029297 176.5020904541016 80.36839294433594 C 177.4810333251953 80.17373657226562 177.7127075195312 79.39356231689453 177.7657165527344 79.09725952148438 C 177.6862487792969 78.77035522460938 177.5853576660156 78.29342651367188 177.4705505371094 77.75072479248047 C 177.2095489501953 76.51750183105469 176.8520965576172 74.82855224609375 176.4223022460938 73.39639282226562 C 175.8142852783203 71.37032318115234 175.3781433105469 70.94401550292969 175.2819519042969 70.87079620361328 C 175.0843353271484 70.837890625 174.8525543212891 70.82122802734375 174.5915374755859 70.82122802734375 M 174.5915374755859 70.02123260498047 C 174.9043121337891 70.02123260498047 175.2238159179688 70.04251098632812 175.5152740478516 70.10020446777344 L 175.5157470703125 70.10007476806641 C 175.5365753173828 70.104248046875 175.5559692382812 70.11135864257812 175.5737457275391 70.12091064453125 C 176.7787322998047 70.61824798583984 177.7107849121094 75.02212524414062 178.2532196044922 77.58506774902344 C 178.3833923339844 78.200439453125 178.4909057617188 78.70819854736328 178.5693359375 79.01356506347656 L 178.5701904296875 79.01332092285156 C 178.5781707763672 79.04408264160156 178.5786590576172 79.07508850097656 178.5728912353516 79.10427856445312 C 178.5503234863281 79.30458068847656 178.3256378173828 80.82146453857422 176.6581115722656 81.15303039550781 C 176.3099670410156 81.33016967773438 172.3503570556641 83.26699829101562 169.4312133789062 81.22756958007812 C 169.2530975341797 81.80469512939453 168.7212219238281 82.99721527099609 167.3327026367188 83.19847869873047 L 167.3327026367188 83.19886016845703 C 167.2200775146484 83.21518707275391 167.1157073974609 83.1370849609375 167.0994262695312 83.02454376220703 C 167.0978240966797 83.01376342773438 167.0972137451172 83.00321960449219 167.0973358154297 82.99266815185547 L 167.0973358154297 75.57968139648438 C 167.0973358154297 75.47412872314453 167.1767578125 75.38709259033203 167.2791137695312 75.37509155273438 C 167.5196380615234 75.32740783691406 170.3408966064453 74.80740356445312 171.4007873535156 76.42271423339844 C 171.8528900146484 76.01179504394531 173.0179290771484 75.22027587890625 174.3988494873047 76.35332489013672 L 174.9071807861328 73.24041748046875 C 174.9072265625 73.24039459228516 174.9073181152344 73.2403564453125 174.9073638916016 73.24033355712891 L 174.9071960449219 73.24028778076172 L 174.9071807861328 73.24041748046875 C 174.1123809814453 73.60062408447266 173.4983520507812 73.58197784423828 173.1160125732422 73.40669250488281 C 172.9170989990234 73.31548309326172 172.7741394042969 73.18074798583984 172.6928863525391 73.02912902832031 C 172.6043853759766 72.86399841308594 172.5885467529297 72.68122863769531 172.6504669189453 72.50948333740234 C 172.6794128417969 72.42931365966797 172.7253723144531 72.35245513916016 172.7887420654297 72.28258514404297 L 171.9165496826172 72.15335845947266 L 171.9463348388672 71.94987487792969 L 171.9161682128906 72.15361785888672 C 171.8236389160156 72.13988494873047 171.7546234130859 72.06658172607422 171.7423553466797 71.97843933105469 C 171.7129516601562 71.82704925537109 171.4922790527344 70.48339080810547 172.8838653564453 70.19017791748047 L 172.8837432861328 70.18970489501953 C 172.8875427246094 70.18883514404297 172.8913421630859 70.18822479248047 172.89501953125 70.18759918212891 C 172.9823150634766 70.17043304443359 173.7632751464844 70.021240234375 174.5915374755859 70.02123260498047 Z M 172.9868011474609 70.58867645263672 C 172.9868011474609 70.58866882324219 172.9867858886719 70.58866882324219 172.9867553710938 70.58866882324219 C 172.9867858886719 70.58866882324219 172.9868011474609 70.58866882324219 172.9868011474609 70.58867645263672 C 172.9872283935547 70.58957672119141 172.6286315917969 70.66506195068359 172.6269073486328 70.66506195068359 C 172.6286315917969 70.66506195068359 172.9872283935547 70.58957672119141 172.9868011474609 70.58867645263672 Z" stroke="none" fill="#000"/>
                      </g>
                      <g id="noun-body-building-3001853-4" data-name="noun-body-building-3001853" transform="translate(-167.097 -70.021)" fill="none" stroke-linecap="round" stroke-linejoin="round">
                        <path d="M170.767,73.24a2.2,2.2,0,0,0,1.791.166.889.889,0,0,0,.423-.378.63.63,0,0,0,.042-.52.683.683,0,0,0-.138-.227l.872-.129-.03-.2.03.2a.206.206,0,0,0,.174-.175,1.456,1.456,0,0,0-1.142-1.788h0l-.011,0a8.072,8.072,0,0,0-2.62-.087h0a.209.209,0,0,0-.058.021c-1.205.5-2.137,4.9-2.679,7.464-.13.615-.238,1.123-.316,1.429h0a.2.2,0,0,0,0,.091,2.36,2.36,0,0,0,1.915,2.049c.348.177,4.308,2.114,7.227.075a2.656,2.656,0,0,0,2.1,1.971h0a.206.206,0,0,0,.233-.174.2.2,0,0,0,0-.032V75.58a.206.206,0,0,0-.182-.2c-.24-.048-3.062-.568-4.122,1.048a2.14,2.14,0,0,0-3-.069l-.508-3.113Zm1.932-2.65.007,0C173.537,70.768,172.572,70.566,172.7,70.591Z" stroke="none"/>
                        <path d="M 171.0825805664062 70.82123565673828 C 170.8215637207031 70.82123565673828 170.5897979736328 70.837890625 170.3921813964844 70.87079620361328 C 170.2959899902344 70.94400787353516 169.8598327636719 71.37029266357422 169.2518463134766 73.39626312255859 C 168.8220672607422 74.82836151123047 168.4646148681641 76.51732635498047 168.2035827636719 77.75070190429688 C 168.0888061523438 78.29325103759766 167.9879455566406 78.77003479003906 167.9083404541016 79.09734344482422 C 167.9613037109375 79.39358520507812 168.1928863525391 80.17377471923828 169.1720123291016 80.36846160888672 C 169.243896484375 80.38275146484375 169.3134613037109 80.40685272216797 169.3787841796875 80.44009399414062 C 169.5626983642578 80.53367614746094 171.2293548583984 81.35434722900391 173.0904693603516 81.35434722900391 C 174.1350555419922 81.35434722900391 175.0415344238281 81.09107208251953 175.7847442626953 80.57183837890625 C 175.9942474365234 80.42546081542969 176.2610778808594 80.38799285888672 176.5027770996094 80.47101593017578 C 176.7444915771484 80.55402374267578 176.9319915771484 80.74752807617188 177.0073547363281 80.99173736572266 C 177.110107421875 81.32469940185547 177.3307800292969 81.82704925537109 177.7768096923828 82.1402587890625 L 177.7768096923828 76.09346771240234 C 177.5908203125 76.07404327392578 177.3612670898438 76.0579833984375 177.1107788085938 76.0579833984375 C 176.3620300292969 76.0579833984375 175.3780212402344 76.19741821289062 174.9421691894531 76.86164855957031 C 174.8137817382812 77.05730438232422 174.6061553955078 77.18694305419922 174.3739776611328 77.21639251708984 C 174.1419067382812 77.24582672119141 173.9084014892578 77.17217254638672 173.7352142333984 77.01474761962891 C 173.5520324707031 76.84824371337891 173.1783905029297 76.56891632080078 172.7340240478516 76.56891632080078 C 172.4286193847656 76.56891632080078 172.1085357666016 76.70447540283203 171.7826843261719 76.97182464599609 C 171.5615386962891 77.15326690673828 171.2603759765625 77.20281219482422 170.9927368164062 77.10181427001953 C 170.7251281738281 77.00079345703125 170.5318145751953 76.76458740234375 170.4857177734375 76.48228454589844 L 169.9798278808594 73.38420867919922 C 169.9690551757812 73.3251953125 169.9648132324219 73.26432037353516 169.9677276611328 73.20256805419922 C 169.9838256835938 72.86198425292969 170.2140960693359 72.56901550292969 170.5411987304688 72.47281646728516 C 170.7293395996094 72.41745758056641 170.9299774169922 72.43354034423828 171.1054534912109 72.51551818847656 C 171.4959564208984 72.69123077392578 171.7757873535156 72.72826385498047 171.9421691894531 72.72826385498047 C 172.0669403076172 72.72826385498047 172.1494750976562 72.70801544189453 172.197265625 72.69066619873047 C 172.0771636962891 72.48818969726562 172.0509796142578 72.239990234375 172.1320953369141 72.01318359375 C 172.2315368652344 71.73514556884766 172.4760437011719 71.53448486328125 172.7681427001953 71.49122619628906 L 172.9668884277344 71.46178436279297 C 172.9222259521484 71.4566650390625 172.8601989746094 71.44355773925781 172.7014617919922 71.41000366210938 C 172.4273376464844 71.35206604003906 172.2108154296875 71.30630493164062 172.0292205810547 71.04356384277344 L 172.2264556884766 70.9072265625 C 171.9333648681641 70.86611938476562 171.5144195556641 70.82123565673828 171.0825805664062 70.82123565673828 M 171.0825805664062 70.021240234375 C 171.9108581542969 70.021240234375 172.6918182373047 70.17044067382812 172.7790832519531 70.18760681152344 C 172.7827606201172 70.18822479248047 172.7865753173828 70.18882751464844 172.7903747558594 70.189697265625 L 172.7902374267578 70.190185546875 C 174.1818389892578 70.4833984375 173.961181640625 71.82706451416016 173.9317474365234 71.97844696044922 C 173.9195098876953 72.06658172607422 173.8504943847656 72.139892578125 173.7579345703125 72.15363311767578 L 173.7277984619141 71.94989776611328 L 173.757568359375 72.15338134765625 L 172.8853759765625 72.28258514404297 C 172.9487609863281 72.35245513916016 172.9947204589844 72.4293212890625 173.0236663818359 72.50949859619141 C 173.0855712890625 72.68125152587891 173.0697479248047 72.86402130126953 172.9812469482422 73.02915191650391 C 172.8999786376953 73.1807861328125 172.7570343017578 73.31549835205078 172.5580902099609 73.40671539306641 C 172.17578125 73.58198547363281 171.5617370605469 73.60064697265625 170.7669372558594 73.24044036865234 L 170.7669219970703 73.24030303955078 L 170.7667541503906 73.2403564453125 C 170.7667999267578 73.24037933349609 170.7668914794922 73.24041748046875 170.7669372558594 73.24044036865234 L 171.2752532958984 76.35335540771484 C 172.6561737060547 75.22032928466797 173.8212432861328 76.0118408203125 174.2733154296875 76.42275238037109 C 175.333251953125 74.80741882324219 178.154541015625 75.32743835449219 178.3950042724609 75.3751220703125 C 178.4973754882812 75.38712310791016 178.5768127441406 75.47417449951172 178.5768127441406 75.5797119140625 L 178.5768127441406 82.99275207519531 C 178.5769348144531 83.0032958984375 178.5763092041016 83.01383209228516 178.5747222900391 83.02463531494141 C 178.5584106445312 83.13716888427734 178.4539794921875 83.21527862548828 178.3414459228516 83.19895172119141 L 178.3414459228516 83.19857788085938 C 176.9529418945312 82.99729156494141 176.4210357666016 81.80478668212891 176.242919921875 81.22763824462891 C 173.32373046875 83.26708221435547 169.3641204833984 81.33023834228516 169.0159912109375 81.15310668945312 C 167.3484497070312 80.82152557373047 167.1237335205078 79.30464172363281 167.1011962890625 79.10433197021484 C 167.0954132080078 79.07516479492188 167.0959167480469 79.04415130615234 167.1038970947266 79.01338195800781 L 167.104736328125 79.01362609863281 C 167.1831817626953 78.70824432373047 167.2907257080078 78.20048522949219 167.4208984375 77.58512115478516 C 167.9633331298828 75.02215576171875 168.8953399658203 70.61827850341797 170.1003723144531 70.12091827392578 C 170.1181488037109 70.11136627197266 170.1375122070312 70.10425567626953 170.1583557128906 70.10007476806641 L 170.1588439941406 70.10020446777344 C 170.4503021240234 70.04251098632812 170.7698059082031 70.021240234375 171.0825805664062 70.021240234375 Z M 172.6873168945312 70.58868408203125 C 172.6873168945312 70.58867645263672 172.6873321533203 70.58867645263672 172.6873474121094 70.58867645263672 C 172.6873321533203 70.58867645263672 172.6873168945312 70.58867645263672 172.6873168945312 70.58868408203125 C 172.6869659423828 70.58958435058594 173.0454406738281 70.66506195068359 173.0472106933594 70.66506195068359 C 173.0454406738281 70.66506195068359 172.6869659423828 70.58958435058594 172.6873168945312 70.58868408203125 Z" stroke="none" fill="#000"/>
                      </g>
                    </g>
                    <g id="noun-smile-169431-3" data-name="noun-smile-169431" transform="translate(16.776 15.401)">
                      <path id="Path_98399-2" data-name="Path 98399" d="M78.57,51a22.285,22.285,0,0,0,5.413.739A29.257,29.257,0,0,0,89.87,51a6.379,6.379,0,0,1-5.887,3.306A5.648,5.648,0,0,1,78.57,51Z" transform="translate(-78.57 -43.847)" fill="#20abe1" stroke="#20abe1" stroke-linecap="round" stroke-linejoin="round" stroke-width="0.8"/>
                      <g id="noun-smile-169431-4" data-name="noun-smile-169431" transform="translate(1.239)">
                        <path id="Path_98401-2" data-name="Path 98401" d="M6876.87-15844.248v-1.977" transform="translate(-6876.87 15846.225)" fill="none" stroke="#20abe1" stroke-linecap="round" stroke-width="0.8"/>
                        <path id="Path_98403-2" data-name="Path 98403" d="M6876.87-15844.248v-1.977" transform="translate(-6867.61 15846.225)" fill="none" stroke="#20abe1" stroke-linecap="round" stroke-width="0.8"/>
                      </g>
                    </g>
                  </g>
                </g>
              </g>
            </g>
          </g>
        </g>
        <g id="Character" transform="translate(-3243.153 5746.591)">
          <g id="Group_1243" data-name="Group 1243" transform="translate(0 0)">
            <g id="Group_1148" data-name="Group 1148" transform="translate(25.313 268.775)">
              <g id="Group_1145" data-name="Group 1145">
                <g id="Group_1127" data-name="Group 1127">
                  <g id="Group_1126" data-name="Group 1126">
                    <g id="Group_1125" data-name="Group 1125">
                      <g id="Group_1124" data-name="Group 1124">
                        <g id="Group_1123" data-name="Group 1123">
                          <path id="Path_226" data-name="Path 226" d="M95.171,447.806l-3.424,25.488-13.788-1.573,3.378-25.544Z" transform="translate(-77.959 -446.177)" fill="#263238"/>
                        </g>
                      </g>
                    </g>
                  </g>
                </g>
                <g id="Group_1138" data-name="Group 1138" transform="translate(0 23.74)">
                  <g id="Group_1137" data-name="Group 1137">
                    <g id="Group_1136" data-name="Group 1136">
                      <g id="Group_1135" data-name="Group 1135">
                        <g id="Group_1134" data-name="Group 1134">
                          <path id="Path_228" data-name="Path 228" d="M91.983,478.85,78.2,477.232l-.239,1.8,13.788,1.573Z" transform="translate(-77.959 -477.232)" fill="#263238"/>
                        </g>
                      </g>
                    </g>
                  </g>
                </g>
              </g>
              <g id="Group_1147" data-name="Group 1147" transform="translate(1.669 10.658)" opacity="0.3">
                <g id="Group_1146" data-name="Group 1146">
                  <path id="Path_230" data-name="Path 230" d="M94.406,461.4,94,463.654l-13.855-1.266.3-2.268Z" transform="translate(-80.142 -460.119)"/>
                </g>
              </g>
            </g>
            <g id="Group_1174" data-name="Group 1174" transform="translate(71.235 271.484)">
              <g id="Group_1171" data-name="Group 1171" transform="translate(0)">
                <g id="Group_1153" data-name="Group 1153">
                  <g id="Group_1152" data-name="Group 1152">
                    <g id="Group_1151" data-name="Group 1151">
                      <g id="Group_1150" data-name="Group 1150">
                        <g id="Group_1149" data-name="Group 1149">
                          <path id="Path_231" data-name="Path 231" d="M153.47,450.345,151.9,476.014l-13.865-.573,1.525-25.721Z" transform="translate(-138.03 -449.72)" fill="#263238"/>
                        </g>
                      </g>
                    </g>
                  </g>
                </g>
                <g id="Group_1164" data-name="Group 1164" transform="translate(0 23.905)">
                  <g id="Group_1163" data-name="Group 1163">
                    <g id="Group_1162" data-name="Group 1162">
                      <g id="Group_1161" data-name="Group 1161">
                        <g id="Group_1160" data-name="Group 1160">
                          <path id="Path_233" data-name="Path 233" d="M152,481.609l-13.866-.618-.108,1.816,13.865.573Z" transform="translate(-138.03 -480.991)" fill="#263238"/>
                        </g>
                      </g>
                    </g>
                  </g>
                </g>
              </g>
              <g id="Group_1173" data-name="Group 1173" transform="translate(0.753 10.732)" opacity="0.3">
                <g id="Group_1172" data-name="Group 1172">
                  <path id="Path_235" data-name="Path 235" d="M153.17,464.023l-.245,2.282-13.911-.263.135-2.284Z" transform="translate(-139.015 -463.759)"/>
                </g>
              </g>
            </g>
            <g id="Group_1189" data-name="Group 1189" transform="translate(25.923 133.683)">
              <g id="Group_1176" data-name="Group 1176">
                <g id="Group_1175" data-name="Group 1175">
                  <path id="Path_236" data-name="Path 236" d="M87.641,288.019c-.394.027-1.654,16.938-1.325,22.524s.635,48.969.635,48.969-2.936,1.972-2.936,4.6-5.258,50.611-5.258,50.611l15.827,2.629s14.408-52.254,14.737-59.485,10.517-56.856,10.517-56.856,3.286,47,3.286,54.227-.14,62.874-.14,62.874,11.722,1.654,17.356.313c0,0,4.8-41.825,4.8-55.628V340.45s5.587-25.963,8.216-39.109a71.961,71.961,0,0,0,0-25.681l-47.325-6.2Z" transform="translate(-78.757 -269.462)" fill="#001d42"/>
                </g>
              </g>
            </g>
            <g id="Group_1191" data-name="Group 1191" transform="translate(124.96 11.957)">
              <g id="Group_1190" data-name="Group 1190">
                <path id="Path_241" data-name="Path 241" d="M208.309,130.1a15.177,15.177,0,0,1,1.478-6.541c1.593-3.186,6.373-8.535,6.373-8.535s6.6-5.121,7.284-4.779.91,1.138,0,1.934-4.438,4.894-4.438,4.894,1.479.569,1.479,1.593a2.709,2.709,0,0,1-.341,1.5s1.365.664,1.707,1.46a4.161,4.161,0,0,1,.341,1.479,1.177,1.177,0,0,1,.91,1.138,6.132,6.132,0,0,1-.114,1.935s-2.5,2.845-3.527,3.186-2.39.737-2.39.737l-.894,1.2v3.281Z" transform="translate(-208.308 -110.233)" fill="#ffbe9d"/>
              </g>
            </g>
            <g id="Group_1224" data-name="Group 1224" transform="translate(0 31.63)">
              <g id="Group_1193" data-name="Group 1193" transform="translate(0 25.464)">
                <g id="Group_1192" data-name="Group 1192">
                  <path id="Path_242" data-name="Path 242" d="M68.807,169.276S44.945,211.386,44.848,218c-.173,11.747,33.172,21.219,33.172,21.219l4.7-13.408-17-11.776L78.089,187.18Z" transform="translate(-44.847 -169.276)" fill="#20abe1"/>
                </g>
              </g>
              <g id="Group_1195" data-name="Group 1195" transform="translate(23.864 14.379)">
                <g id="Group_1194" data-name="Group 1194">
                  <path id="Path_243" data-name="Path 243" d="M76.16,165.861a21.883,21.883,0,0,1,10.719-4.409c6.493-.787,18.1-.984,18.1-.984s31.483-6.887,33.844-5.509,5.51,9.839,6.1,13.774-2.67,41.405-2.67,41.405,14.082,43.6,13.1,44.978c-.477.667-17.487,6.653-34.667,7.974l-.953-12.747-2.03,11.868c-15.968,1.194-34.1,1.783-34.1,1.783S96.052,220.781,95.658,219.6,74.492,170.073,76.16,165.861Z" transform="translate(-76.064 -154.776)" fill="#20abe1"/>
                </g>
              </g>
              <g id="Group_1197" data-name="Group 1197" transform="translate(86.627)">
                <g id="Group_1196" data-name="Group 1196">
                  <path id="Path_244" data-name="Path 244" d="M158.164,150.528s11.571,6.53,12.937,6.379,2.731-2.428,4.552-.607l10.167-1.821,10.166-18.512a32.518,32.518,0,0,1,10.166,6.221s-5.614,19.27-9.1,22.153-16.895,12.891-35.617,13.085l-2.316-15.362Z" transform="translate(-158.164 -135.967)" fill="#20abe1"/>
                </g>
              </g>
              <g id="Group_1205" data-name="Group 1205" transform="translate(33.458 81.329)">
                <g id="Group_1204" data-name="Group 1204">
                  <path id="Path_247" data-name="Path 247" d="M88.613,255.613s.476,1.724,3.218-.212c0,0,3.815-.764,5.789-2.657s2.291-3.045,3.676-3.14,5.362-.654,5.432-.618,1.087-2.252-.157-2.642-6.773.122-6.773.122l-1.616.1-.271-2.208.313-2s-3.382,1.287-3.327,2.211c0,0-2.4-.7-2.724.9Z" transform="translate(-88.613 -242.354)" fill="#ffbe9d"/>
                </g>
              </g>
              <g id="Group_1217" data-name="Group 1217" transform="translate(25.454 33.094)" opacity="0.3">
                <g id="Group_1216" data-name="Group 1216">
                  <g id="Group_1215" data-name="Group 1215">
                    <path id="Path_251" data-name="Path 251" d="M83.7,194.524a10.206,10.206,0,0,1-5.419-6.925c-.531-2.744.57-5.574.957-8.343A120.7,120.7,0,0,0,83.7,194.524" transform="translate(-78.143 -179.257)"/>
                  </g>
                </g>
              </g>
            </g>
            <g id="Group_1242" data-name="Group 1242" transform="translate(34.191)">
              <g id="Group_1229" data-name="Group 1229">
                <g id="Group_1228" data-name="Group 1228">
                  <path id="Path_255" data-name="Path 255" d="M119.639,96.083c-3.944-.645-8.009,1.064-10.952,3.769a28.518,28.518,0,0,0-6.479,9.979c-3.07,7.157-4.854,14.786-6.624,22.37-2.608,11.176-5.226,22.417-5.922,33.873s2.731,18.22,7.672,28.578l17.471-2.42-.031-3.311,2.363,3.311,6.781-1.05s2.034-17.736,2.034-17.684,3.235,16.892,3.235,16.892l5.652-.523c5.622-22.287-.738-36.954,2.459-59.716.761-5.413,1.965-10.8,1.943-16.266s-1.431-11.181-5.2-15.139-10.277-5.578-14.906-2.671" transform="translate(-89.572 -94.591)" fill="#263238"/>
                </g>
              </g>
            </g>
          </g>
        </g>
      </g>
    </g>
  </g>
</svg>
